M48
;Layer_Color=9474304
;FILE_FORMAT=2:3
INCH,LZ
;TYPE=PLATED
T1F00S00C0.028
T2F00S00C0.033
T3F00S00C0.035
T4F00S00C0.039
T5F00S00C0.048
T6F00S00C0.051
T7F00S00C0.059
T8F00S00C0.083
T9F00S00C0.098
T10F00S00C0.157
%
T01
X05413Y02673
X05492
X06102Y02559
Y02459
Y02359
X04292Y02528
Y02828
X03322
Y02528
X02352
Y02828
T02
X05118Y02668
Y02968
X04602Y02823
Y02523
X03635
Y02823
X02667
Y02523
T03
X01738Y02814
X0082Y04346
X00361
X01738Y03272
T04
X02362Y03543
Y03643
Y03743
X03281
Y03643
Y03543
X04199
Y03643
Y03743
X05118Y03742
Y03642
Y03542
T05
X03592Y02108
X03692
X0456
X0466
X02954Y02476
X02854
T06
X06102Y00492
Y00689
Y01476
Y01673
X00295Y02575
Y02771
Y0328
Y03476
X0128Y04346
X01476
X02264Y04364
X02461
X02657
X02957
X03154
X03351
X03651
X03847
X04044
X04626Y04346
X04823
X05217
X05413
X06102Y04134
Y03937
Y03346
Y0315
T07
X01178Y02504
Y02898
Y03193
Y03488
T08
X0374Y00886
Y0128
X05217
Y00886
T09
X04528Y00394
X00591Y03937
X0561Y0374
T10
X00335Y0124
X02815
M30
