G04*
G04 #@! TF.GenerationSoftware,Altium Limited,Altium Designer,22.8.2 (66)*
G04*
G04 Layer_Color=8388736*
%FSLAX23Y23*%
%MOIN*%
G70*
G04*
G04 #@! TF.SameCoordinates,8AE226B6-A41B-4233-8507-6C7F5843907F*
G04*
G04*
G04 #@! TF.FilePolarity,Negative*
G04*
G01*
G75*
%ADD15C,0.165*%
%ADD16C,0.131*%
%ADD17O,0.107X0.105*%
%ADD18O,0.107X0.107*%
%ADD19C,0.063*%
%ADD20C,0.071*%
%ADD21R,0.071X0.071*%
%ADD22C,0.079*%
%ADD23R,0.079X0.079*%
%ADD24C,0.055*%
%ADD25R,0.085X0.085*%
%ADD26C,0.085*%
%ADD27R,0.085X0.085*%
%ADD28C,0.067*%
%ADD29R,0.067X0.067*%
%ADD30C,0.097*%
%ADD31R,0.097X0.097*%
%ADD32R,0.067X0.067*%
%ADD33R,0.055X0.055*%
%ADD34R,0.049X0.049*%
%ADD35C,0.049*%
D15*
X2815Y1240D02*
D03*
X335D02*
D03*
D16*
X3740Y1280D02*
D03*
Y886D02*
D03*
X5217Y1280D02*
D03*
Y886D02*
D03*
D17*
X4528Y394D02*
D03*
X591Y3937D02*
D03*
D18*
X5610Y3740D02*
D03*
D19*
X3635Y2523D02*
D03*
Y2823D02*
D03*
X2667Y2523D02*
D03*
Y2823D02*
D03*
X4602Y2523D02*
D03*
Y2823D02*
D03*
X5118Y2668D02*
D03*
Y2968D02*
D03*
D20*
X4199Y3743D02*
D03*
Y3643D02*
D03*
X3281Y3743D02*
D03*
Y3643D02*
D03*
X2362Y3743D02*
D03*
Y3643D02*
D03*
X5118Y3742D02*
D03*
Y3642D02*
D03*
D21*
X4199Y3543D02*
D03*
X3281D02*
D03*
X2362D02*
D03*
X5118Y3542D02*
D03*
D22*
X3692Y2108D02*
D03*
X4660D02*
D03*
X2854Y2476D02*
D03*
D23*
X3592Y2108D02*
D03*
X4560D02*
D03*
X2954Y2476D02*
D03*
D24*
X4292Y2528D02*
D03*
Y2828D02*
D03*
X3322Y2528D02*
D03*
Y2828D02*
D03*
X2352Y2528D02*
D03*
Y2828D02*
D03*
X6102Y2459D02*
D03*
Y2559D02*
D03*
D25*
X5413Y4346D02*
D03*
X4823D02*
D03*
X1476D02*
D03*
X4044Y4364D02*
D03*
X3351D02*
D03*
X2657D02*
D03*
D26*
X5217Y4346D02*
D03*
X4626D02*
D03*
X6102Y1673D02*
D03*
Y689D02*
D03*
Y3346D02*
D03*
X295Y2575D02*
D03*
Y3280D02*
D03*
X1280Y4346D02*
D03*
X3651Y4364D02*
D03*
X3847D02*
D03*
X2957D02*
D03*
X3154D02*
D03*
X2264D02*
D03*
X2461D02*
D03*
X6102Y4134D02*
D03*
D27*
Y1476D02*
D03*
Y492D02*
D03*
Y3150D02*
D03*
X295Y2771D02*
D03*
Y3476D02*
D03*
X6102Y3937D02*
D03*
D28*
X1738Y3272D02*
D03*
X361Y4346D02*
D03*
D29*
X1738Y2814D02*
D03*
D30*
X1178Y3488D02*
D03*
Y3193D02*
D03*
Y2898D02*
D03*
D31*
Y2504D02*
D03*
D32*
X820Y4346D02*
D03*
D33*
X6102Y2359D02*
D03*
D34*
X5413Y2673D02*
D03*
D35*
X5492D02*
D03*
M02*
