G04*
G04 #@! TF.GenerationSoftware,Altium Limited,Altium Designer,22.8.2 (66)*
G04*
G04 Layer_Color=2752767*
%FSLAX23Y23*%
%MOIN*%
G70*
G04*
G04 #@! TF.SameCoordinates,4376FDD3-A04D-437B-B91A-D6F269DAD45D*
G04*
G04*
G04 #@! TF.FilePolarity,Positive*
G04*
G01*
G75*
%ADD59C,0.002*%
%ADD60C,0.003*%
%ADD61C,0.001*%
D59*
X2815Y1232D02*
X2807Y1248D01*
X2823D01*
X2815Y1232D01*
Y1236D02*
X2811Y1244D01*
X2819D01*
X2815Y1236D01*
X335Y1232D02*
X339Y1236D01*
X343D01*
X339Y1240D01*
X343Y1244D01*
X339D01*
X335Y1248D01*
X331Y1244D01*
X327D01*
X331Y1240D01*
X327Y1236D01*
X331D01*
X335Y1232D01*
Y1236D02*
X337Y1238D01*
X339D01*
X337Y1240D01*
X339Y1242D01*
X337D01*
X335Y1244D01*
X333Y1242D01*
X331D01*
X333Y1240D01*
X331Y1238D01*
X333D01*
X335Y1236D01*
X3732Y1280D02*
X3740Y1288D01*
X3748Y1280D01*
X3740Y1272D01*
X3732Y1280D01*
Y886D02*
X3740Y894D01*
X3748Y886D01*
X3740Y878D01*
X3732Y886D01*
X3635Y2515D02*
X3627Y2531D01*
X3643D01*
X3635Y2515D01*
Y2815D02*
X3627Y2831D01*
X3643D01*
X3635Y2815D01*
X2667Y2515D02*
X2659Y2531D01*
X2675D01*
X2667Y2515D01*
Y2815D02*
X2659Y2831D01*
X2675D01*
X2667Y2815D01*
X4602Y2515D02*
X4594Y2531D01*
X4610D01*
X4602Y2515D01*
Y2815D02*
X4594Y2831D01*
X4610D01*
X4602Y2815D01*
X3684Y2100D02*
X3688Y2108D01*
X3684Y2116D01*
X3692Y2112D01*
X3700Y2116D01*
X3696Y2108D01*
X3700Y2100D01*
X3692Y2104D01*
X3684Y2100D01*
X3584D02*
X3588Y2108D01*
X3584Y2116D01*
X3592Y2112D01*
X3600Y2116D01*
X3596Y2108D01*
X3600Y2100D01*
X3592Y2104D01*
X3584Y2100D01*
X4652D02*
X4656Y2108D01*
X4652Y2116D01*
X4660Y2112D01*
X4668Y2116D01*
X4664Y2108D01*
X4668Y2100D01*
X4660Y2104D01*
X4652Y2100D01*
X4552D02*
X4556Y2108D01*
X4552Y2116D01*
X4560Y2112D01*
X4568Y2116D01*
X4564Y2108D01*
X4568Y2100D01*
X4560Y2104D01*
X4552Y2100D01*
X4292Y2520D02*
X4296Y2524D01*
X4300D01*
X4296Y2528D01*
X4300Y2532D01*
X4296D01*
X4292Y2536D01*
X4288Y2532D01*
X4284D01*
X4288Y2528D01*
X4284Y2524D01*
X4288D01*
X4292Y2520D01*
Y2820D02*
X4296Y2824D01*
X4300D01*
X4296Y2828D01*
X4300Y2832D01*
X4296D01*
X4292Y2836D01*
X4288Y2832D01*
X4284D01*
X4288Y2828D01*
X4284Y2824D01*
X4288D01*
X4292Y2820D01*
X3322Y2520D02*
X3326Y2524D01*
X3330D01*
X3326Y2528D01*
X3330Y2532D01*
X3326D01*
X3322Y2536D01*
X3318Y2532D01*
X3314D01*
X3318Y2528D01*
X3314Y2524D01*
X3318D01*
X3322Y2520D01*
Y2820D02*
X3326Y2824D01*
X3330D01*
X3326Y2828D01*
X3330Y2832D01*
X3326D01*
X3322Y2836D01*
X3318Y2832D01*
X3314D01*
X3318Y2828D01*
X3314Y2824D01*
X3318D01*
X3322Y2820D01*
X2352Y2520D02*
X2356Y2524D01*
X2360D01*
X2356Y2528D01*
X2360Y2532D01*
X2356D01*
X2352Y2536D01*
X2348Y2532D01*
X2344D01*
X2348Y2528D01*
X2344Y2524D01*
X2348D01*
X2352Y2520D01*
Y2820D02*
X2356Y2824D01*
X2360D01*
X2356Y2828D01*
X2360Y2832D01*
X2356D01*
X2352Y2836D01*
X2348Y2832D01*
X2344D01*
X2348Y2828D01*
X2344Y2824D01*
X2348D01*
X2352Y2820D01*
X5405Y4338D02*
Y4354D01*
X5421D01*
Y4338D01*
X5405D01*
X5209D02*
Y4354D01*
X5225D01*
Y4338D01*
X5209D01*
X4815D02*
Y4354D01*
X4831D01*
Y4338D01*
X4815D01*
X4618D02*
Y4354D01*
X4634D01*
Y4338D01*
X4618D01*
X6094Y1468D02*
Y1484D01*
X6110D01*
Y1468D01*
X6094D01*
Y1665D02*
Y1681D01*
X6110D01*
Y1665D01*
X6094D01*
X5209Y1280D02*
X5217Y1288D01*
X5225Y1280D01*
X5217Y1272D01*
X5209Y1280D01*
Y886D02*
X5217Y894D01*
X5225Y886D01*
X5217Y878D01*
X5209Y886D01*
X6094Y484D02*
Y500D01*
X6110D01*
Y484D01*
X6094D01*
Y681D02*
Y697D01*
X6110D01*
Y681D01*
X6094D01*
Y3142D02*
Y3158D01*
X6110D01*
Y3142D01*
X6094D01*
Y3338D02*
Y3354D01*
X6110D01*
Y3338D01*
X6094D01*
X2846Y2468D02*
X2850Y2476D01*
X2846Y2484D01*
X2854Y2480D01*
X2862Y2484D01*
X2858Y2476D01*
X2862Y2468D01*
X2854Y2472D01*
X2846Y2468D01*
X2946D02*
X2950Y2476D01*
X2946Y2484D01*
X2954Y2480D01*
X2962Y2484D01*
X2958Y2476D01*
X2962Y2468D01*
X2954Y2472D01*
X2946Y2468D01*
X287Y2567D02*
Y2583D01*
X303D01*
Y2567D01*
X287D01*
Y2763D02*
Y2779D01*
X303D01*
Y2763D01*
X287D01*
Y3272D02*
Y3288D01*
X303D01*
Y3272D01*
X287D01*
Y3468D02*
Y3484D01*
X303D01*
Y3468D01*
X287D01*
X1730Y3264D02*
X1734D01*
X1738Y3268D01*
X1742Y3264D01*
X1746D01*
Y3268D01*
X1742Y3272D01*
X1746Y3276D01*
Y3280D01*
X1742D01*
X1738Y3276D01*
X1734Y3280D01*
X1730D01*
Y3276D01*
X1734Y3272D01*
X1730Y3268D01*
Y3264D01*
Y2806D02*
X1734D01*
X1738Y2810D01*
X1742Y2806D01*
X1746D01*
Y2810D01*
X1742Y2814D01*
X1746Y2818D01*
Y2822D01*
X1742D01*
X1738Y2818D01*
X1734Y2822D01*
X1730D01*
Y2818D01*
X1734Y2814D01*
X1730Y2810D01*
Y2806D01*
X1174Y3484D02*
Y3480D01*
X1182D01*
Y3484D01*
X1186D01*
Y3492D01*
X1182D01*
Y3496D01*
X1174D01*
Y3492D01*
X1170D01*
Y3484D01*
X1174D01*
Y3189D02*
Y3185D01*
X1182D01*
Y3189D01*
X1186D01*
Y3197D01*
X1182D01*
Y3201D01*
X1174D01*
Y3197D01*
X1170D01*
Y3189D01*
X1174D01*
Y2894D02*
Y2890D01*
X1182D01*
Y2894D01*
X1186D01*
Y2902D01*
X1182D01*
Y2906D01*
X1174D01*
Y2902D01*
X1170D01*
Y2894D01*
X1174D01*
Y2500D02*
Y2496D01*
X1182D01*
Y2500D01*
X1186D01*
Y2508D01*
X1182D01*
Y2512D01*
X1174D01*
Y2508D01*
X1170D01*
Y2500D01*
X1174D01*
X1272Y4338D02*
Y4354D01*
X1288D01*
Y4338D01*
X1272D01*
X1468D02*
Y4354D01*
X1484D01*
Y4338D01*
X1468D01*
X353D02*
X357D01*
X361Y4342D01*
X365Y4338D01*
X369D01*
Y4342D01*
X365Y4346D01*
X369Y4350D01*
Y4354D01*
X365D01*
X361Y4350D01*
X357Y4354D01*
X353D01*
Y4350D01*
X357Y4346D01*
X353Y4342D01*
Y4338D01*
X812D02*
X816D01*
X820Y4342D01*
X824Y4338D01*
X828D01*
Y4342D01*
X824Y4346D01*
X828Y4350D01*
Y4354D01*
X824D01*
X820Y4350D01*
X816Y4354D01*
X812D01*
Y4350D01*
X816Y4346D01*
X812Y4342D01*
Y4338D01*
X3643Y4356D02*
Y4372D01*
X3659D01*
Y4356D01*
X3643D01*
X4036D02*
Y4372D01*
X4052D01*
Y4356D01*
X4036D01*
X3839D02*
Y4372D01*
X3855D01*
Y4356D01*
X3839D01*
X2949D02*
Y4372D01*
X2965D01*
Y4356D01*
X2949D01*
X3343D02*
Y4372D01*
X3359D01*
Y4356D01*
X3343D01*
X3146D02*
Y4372D01*
X3162D01*
Y4356D01*
X3146D01*
X2256D02*
Y4372D01*
X2272D01*
Y4356D01*
X2256D01*
X2649D02*
Y4372D01*
X2665D01*
Y4356D01*
X2649D01*
X2453D02*
Y4372D01*
X2469D01*
Y4356D01*
X2453D01*
X6102Y2351D02*
X6106Y2355D01*
X6110D01*
X6106Y2359D01*
X6110Y2363D01*
X6106D01*
X6102Y2367D01*
X6098Y2363D01*
X6094D01*
X6098Y2359D01*
X6094Y2355D01*
X6098D01*
X6102Y2351D01*
Y2451D02*
X6106Y2455D01*
X6110D01*
X6106Y2459D01*
X6110Y2463D01*
X6106D01*
X6102Y2467D01*
X6098Y2463D01*
X6094D01*
X6098Y2459D01*
X6094Y2455D01*
X6098D01*
X6102Y2451D01*
Y2551D02*
X6106Y2555D01*
X6110D01*
X6106Y2559D01*
X6110Y2563D01*
X6106D01*
X6102Y2567D01*
X6098Y2563D01*
X6094D01*
X6098Y2559D01*
X6094Y2555D01*
X6098D01*
X6102Y2551D01*
X5118Y2660D02*
X5110Y2676D01*
X5126D01*
X5118Y2660D01*
Y2960D02*
X5110Y2976D01*
X5126D01*
X5118Y2960D01*
X6094Y4126D02*
Y4142D01*
X6110D01*
Y4126D01*
X6094D01*
Y3929D02*
Y3945D01*
X6110D01*
Y3929D01*
X6094D01*
X5413Y2665D02*
X5417Y2669D01*
X5421D01*
X5417Y2673D01*
X5421Y2677D01*
X5417D01*
X5413Y2681D01*
X5409Y2677D01*
X5405D01*
X5409Y2673D01*
X5405Y2669D01*
X5409D01*
X5413Y2665D01*
X5492D02*
X5496Y2669D01*
X5500D01*
X5496Y2673D01*
X5500Y2677D01*
X5496D01*
X5492Y2681D01*
X5488Y2677D01*
X5484D01*
X5488Y2673D01*
X5484Y2669D01*
X5488D01*
X5492Y2665D01*
D60*
X4536Y394D02*
G03*
X4536Y394I-8J0D01*
G01*
X-3436Y7530D02*
G03*
X-3436Y7530I-8J0D01*
G01*
X599Y3937D02*
G03*
X599Y3937I-8J0D01*
G01*
X5618Y3740D02*
G03*
X5618Y3740I-8J0D01*
G01*
X4207Y3743D02*
G03*
X4207Y3743I-8J0D01*
G01*
Y3643D02*
G03*
X4207Y3643I-8J0D01*
G01*
Y3543D02*
G03*
X4207Y3543I-8J0D01*
G01*
X3289Y3743D02*
G03*
X3289Y3743I-8J0D01*
G01*
Y3643D02*
G03*
X3289Y3643I-8J0D01*
G01*
Y3543D02*
G03*
X3289Y3543I-8J0D01*
G01*
X2370Y3743D02*
G03*
X2370Y3743I-8J0D01*
G01*
Y3643D02*
G03*
X2370Y3643I-8J0D01*
G01*
Y3543D02*
G03*
X2370Y3543I-8J0D01*
G01*
X5126Y3742D02*
G03*
X5126Y3742I-8J0D01*
G01*
Y3642D02*
G03*
X5126Y3642I-8J0D01*
G01*
Y3542D02*
G03*
X5126Y3542I-8J0D01*
G01*
D61*
X4532Y394D02*
G03*
X4532Y394I-4J0D01*
G01*
X-3440Y7530D02*
G03*
X-3440Y7530I-4J0D01*
G01*
X595Y3937D02*
G03*
X595Y3937I-4J0D01*
G01*
X5614Y3740D02*
G03*
X5614Y3740I-4J0D01*
G01*
M02*
