G04*
G04 #@! TF.GenerationSoftware,Altium Limited,Altium Designer,22.8.2 (66)*
G04*
G04 Layer_Physical_Order=2*
G04 Layer_Color=16711680*
%FSLAX23Y23*%
%MOIN*%
G70*
G04*
G04 #@! TF.SameCoordinates,4376FDD3-A04D-437B-B91A-D6F269DAD45D*
G04*
G04*
G04 #@! TF.FilePolarity,Positive*
G04*
G01*
G75*
%ADD38C,0.157*%
%ADD39C,0.123*%
%ADD40O,0.099X0.097*%
%ADD41O,0.099X0.099*%
%ADD42C,0.055*%
%ADD43C,0.063*%
%ADD44R,0.063X0.063*%
%ADD45C,0.071*%
%ADD46R,0.071X0.071*%
%ADD47C,0.047*%
%ADD48R,0.077X0.077*%
%ADD49C,0.077*%
%ADD50R,0.077X0.077*%
%ADD51C,0.059*%
%ADD52R,0.059X0.059*%
%ADD53C,0.089*%
%ADD54R,0.089X0.089*%
%ADD55R,0.059X0.059*%
%ADD56R,0.047X0.047*%
%ADD57R,0.041X0.041*%
%ADD58C,0.041*%
G36*
X6299Y4602D02*
Y16D01*
X27D01*
Y4622D01*
X30Y4626D01*
X6299Y4602D01*
D02*
G37*
%LPC*%
G36*
X3855Y4418D02*
Y4372D01*
X3901D01*
X3898Y4385D01*
X3891Y4397D01*
X3881Y4407D01*
X3868Y4414D01*
X3855Y4418D01*
D02*
G37*
G36*
X3162D02*
Y4372D01*
X3208D01*
X3204Y4385D01*
X3197Y4397D01*
X3187Y4407D01*
X3175Y4414D01*
X3162Y4418D01*
D02*
G37*
G36*
X2469D02*
Y4372D01*
X2515D01*
X2511Y4385D01*
X2504Y4397D01*
X2494Y4407D01*
X2482Y4414D01*
X2469Y4418D01*
D02*
G37*
G36*
X3840D02*
X3827Y4414D01*
X3814Y4407D01*
X3804Y4397D01*
X3797Y4385D01*
X3794Y4372D01*
X3840D01*
Y4418D01*
D02*
G37*
G36*
X3146D02*
X3133Y4414D01*
X3121Y4407D01*
X3111Y4397D01*
X3104Y4385D01*
X3100Y4372D01*
X3146D01*
Y4418D01*
D02*
G37*
G36*
X2453D02*
X2440Y4414D01*
X2427Y4407D01*
X2417Y4397D01*
X2410Y4385D01*
X2407Y4372D01*
X2453D01*
Y4418D01*
D02*
G37*
G36*
X5224Y4400D02*
Y4354D01*
X5270D01*
X5267Y4367D01*
X5260Y4379D01*
X5250Y4390D01*
X5237Y4397D01*
X5224Y4400D01*
D02*
G37*
G36*
X4634D02*
Y4354D01*
X4680D01*
X4676Y4367D01*
X4669Y4379D01*
X4659Y4390D01*
X4647Y4397D01*
X4634Y4400D01*
D02*
G37*
G36*
X5209D02*
X5196Y4397D01*
X5183Y4390D01*
X5173Y4379D01*
X5166Y4367D01*
X5163Y4354D01*
X5209D01*
Y4400D01*
D02*
G37*
G36*
X4618D02*
X4605Y4397D01*
X4593Y4390D01*
X4583Y4379D01*
X4576Y4367D01*
X4572Y4354D01*
X4618D01*
Y4400D01*
D02*
G37*
G36*
X3208Y4356D02*
X3162D01*
Y4310D01*
X3175Y4314D01*
X3187Y4321D01*
X3197Y4331D01*
X3204Y4343D01*
X3208Y4356D01*
D02*
G37*
G36*
X2515D02*
X2469D01*
Y4310D01*
X2482Y4314D01*
X2494Y4321D01*
X2504Y4331D01*
X2511Y4343D01*
X2515Y4356D01*
D02*
G37*
G36*
X3901D02*
X3855D01*
Y4310D01*
X3868Y4314D01*
X3881Y4321D01*
X3891Y4331D01*
X3898Y4343D01*
X3901Y4356D01*
D02*
G37*
G36*
X3840D02*
X3794D01*
X3797Y4343D01*
X3804Y4331D01*
X3814Y4321D01*
X3827Y4314D01*
X3840Y4310D01*
Y4356D01*
D02*
G37*
G36*
X3146D02*
X3100D01*
X3104Y4343D01*
X3111Y4331D01*
X3121Y4321D01*
X3133Y4314D01*
X3146Y4310D01*
Y4356D01*
D02*
G37*
G36*
X2453D02*
X2407D01*
X2410Y4343D01*
X2417Y4331D01*
X2427Y4321D01*
X2440Y4314D01*
X2453Y4310D01*
Y4356D01*
D02*
G37*
G36*
X4098Y4418D02*
X3990D01*
Y4310D01*
X4098D01*
Y4418D01*
D02*
G37*
G36*
X3658D02*
X3644D01*
X3630Y4414D01*
X3617Y4407D01*
X3607Y4397D01*
X3600Y4385D01*
X3596Y4371D01*
Y4357D01*
X3600Y4343D01*
X3607Y4331D01*
X3617Y4321D01*
X3630Y4314D01*
X3644Y4310D01*
X3658D01*
X3672Y4314D01*
X3684Y4321D01*
X3694Y4331D01*
X3701Y4343D01*
X3705Y4357D01*
Y4371D01*
X3701Y4385D01*
X3694Y4397D01*
X3684Y4407D01*
X3672Y4414D01*
X3658Y4418D01*
D02*
G37*
G36*
X3405D02*
X3297D01*
Y4310D01*
X3405D01*
Y4418D01*
D02*
G37*
G36*
X2964D02*
X2950D01*
X2936Y4414D01*
X2924Y4407D01*
X2914Y4397D01*
X2907Y4385D01*
X2903Y4371D01*
Y4357D01*
X2907Y4343D01*
X2914Y4331D01*
X2924Y4321D01*
X2936Y4314D01*
X2950Y4310D01*
X2964D01*
X2978Y4314D01*
X2990Y4321D01*
X3001Y4331D01*
X3008Y4343D01*
X3011Y4357D01*
Y4371D01*
X3008Y4385D01*
X3001Y4397D01*
X2990Y4407D01*
X2978Y4414D01*
X2964Y4418D01*
D02*
G37*
G36*
X2712D02*
X2603D01*
Y4310D01*
X2712D01*
Y4418D01*
D02*
G37*
G36*
X2271D02*
X2257D01*
X2243Y4414D01*
X2231Y4407D01*
X2220Y4397D01*
X2213Y4385D01*
X2210Y4371D01*
Y4357D01*
X2213Y4343D01*
X2220Y4331D01*
X2231Y4321D01*
X2243Y4314D01*
X2257Y4310D01*
X2271D01*
X2285Y4314D01*
X2297Y4321D01*
X2307Y4331D01*
X2314Y4343D01*
X2318Y4357D01*
Y4371D01*
X2314Y4385D01*
X2307Y4397D01*
X2297Y4407D01*
X2285Y4414D01*
X2271Y4418D01*
D02*
G37*
G36*
X865Y4392D02*
X775D01*
Y4301D01*
X865D01*
Y4392D01*
D02*
G37*
G36*
X367D02*
X355D01*
X344Y4388D01*
X333Y4382D01*
X325Y4374D01*
X319Y4364D01*
X316Y4352D01*
Y4340D01*
X319Y4329D01*
X325Y4318D01*
X333Y4310D01*
X344Y4304D01*
X355Y4301D01*
X367D01*
X379Y4304D01*
X389Y4310D01*
X397Y4318D01*
X403Y4329D01*
X406Y4340D01*
Y4352D01*
X403Y4364D01*
X397Y4374D01*
X389Y4382D01*
X379Y4388D01*
X367Y4392D01*
D02*
G37*
G36*
X5270Y4338D02*
X5224D01*
Y4292D01*
X5237Y4296D01*
X5250Y4303D01*
X5260Y4313D01*
X5267Y4325D01*
X5270Y4338D01*
D02*
G37*
G36*
X4680D02*
X4634D01*
Y4292D01*
X4647Y4296D01*
X4659Y4303D01*
X4669Y4313D01*
X4676Y4325D01*
X4680Y4338D01*
D02*
G37*
G36*
X5209D02*
X5163D01*
X5166Y4325D01*
X5173Y4313D01*
X5183Y4303D01*
X5196Y4296D01*
X5209Y4292D01*
Y4338D01*
D02*
G37*
G36*
X4618D02*
X4572D01*
X4576Y4325D01*
X4583Y4313D01*
X4593Y4303D01*
X4605Y4296D01*
X4618Y4292D01*
Y4338D01*
D02*
G37*
G36*
X5468Y4400D02*
X5359D01*
Y4292D01*
X5468D01*
Y4400D01*
D02*
G37*
G36*
X4877D02*
X4769D01*
Y4292D01*
X4877D01*
Y4400D01*
D02*
G37*
G36*
X1531D02*
X1422D01*
Y4292D01*
X1531D01*
Y4400D01*
D02*
G37*
G36*
X1287D02*
X1272D01*
X1259Y4397D01*
X1246Y4390D01*
X1236Y4379D01*
X1229Y4367D01*
X1225Y4353D01*
Y4339D01*
X1229Y4325D01*
X1236Y4313D01*
X1246Y4303D01*
X1259Y4296D01*
X1272Y4292D01*
X1287D01*
X1300Y4296D01*
X1313Y4303D01*
X1323Y4313D01*
X1330Y4325D01*
X1334Y4339D01*
Y4353D01*
X1330Y4367D01*
X1323Y4379D01*
X1313Y4390D01*
X1300Y4397D01*
X1287Y4400D01*
D02*
G37*
G36*
X6110Y4188D02*
Y4142D01*
X6156D01*
X6153Y4155D01*
X6146Y4167D01*
X6136Y4177D01*
X6123Y4184D01*
X6110Y4188D01*
D02*
G37*
G36*
X6094Y4188D02*
X6081Y4184D01*
X6069Y4177D01*
X6059Y4167D01*
X6052Y4155D01*
X6048Y4142D01*
X6094D01*
Y4188D01*
D02*
G37*
G36*
X6156Y4126D02*
X6110D01*
Y4080D01*
X6123Y4083D01*
X6136Y4091D01*
X6146Y4101D01*
X6153Y4113D01*
X6156Y4126D01*
D02*
G37*
G36*
X6094D02*
X6048D01*
X6052Y4113D01*
X6059Y4101D01*
X6069Y4091D01*
X6081Y4083D01*
X6094Y4080D01*
Y4126D01*
D02*
G37*
G36*
X6156Y3991D02*
X6048D01*
Y3883D01*
X6156D01*
Y3991D01*
D02*
G37*
G36*
X597Y4002D02*
X584D01*
X572Y4000D01*
X560Y3995D01*
X549Y3987D01*
X545Y3983D01*
X544Y3983D01*
X544Y3982D01*
X540Y3978D01*
X537Y3974D01*
X536Y3973D01*
X535Y3971D01*
X533Y3968D01*
X531Y3964D01*
X530Y3962D01*
X529Y3959D01*
X528Y3956D01*
X527Y3952D01*
X526Y3950D01*
X526Y3947D01*
X526Y3943D01*
Y3940D01*
X525Y3937D01*
X526Y3934D01*
Y3931D01*
X526Y3927D01*
X526Y3924D01*
X527Y3922D01*
X528Y3918D01*
X529Y3915D01*
X530Y3912D01*
X531Y3910D01*
X533Y3906D01*
X535Y3903D01*
X536Y3901D01*
X537Y3900D01*
X540Y3896D01*
X544Y3892D01*
X544Y3891D01*
X545Y3891D01*
X549Y3887D01*
X560Y3879D01*
X572Y3875D01*
X584Y3872D01*
X597D01*
X610Y3875D01*
X621Y3879D01*
X632Y3887D01*
X636Y3891D01*
X637Y3891D01*
X637Y3892D01*
X641Y3896D01*
X644Y3900D01*
X645Y3901D01*
X646Y3903D01*
X648Y3906D01*
X650Y3910D01*
X651Y3912D01*
X652Y3915D01*
X653Y3918D01*
X654Y3922D01*
X655Y3924D01*
X655Y3927D01*
X656Y3931D01*
Y3934D01*
X656Y3937D01*
X656Y3940D01*
Y3943D01*
X655Y3947D01*
X655Y3950D01*
X654Y3952D01*
X653Y3956D01*
X652Y3959D01*
X651Y3962D01*
X650Y3964D01*
X648Y3968D01*
X646Y3971D01*
X645Y3973D01*
X644Y3974D01*
X641Y3978D01*
X637Y3982D01*
X637Y3983D01*
X636Y3983D01*
X632Y3987D01*
X621Y3995D01*
X610Y4000D01*
X597Y4002D01*
D02*
G37*
G36*
X4206Y3791D02*
X4193D01*
X4181Y3787D01*
X4170Y3781D01*
X4162Y3772D01*
X4155Y3762D01*
X4152Y3750D01*
Y3737D01*
X4155Y3725D01*
X4162Y3714D01*
X4170Y3706D01*
X4181Y3699D01*
X4193Y3696D01*
X4206D01*
X4218Y3699D01*
X4228Y3706D01*
X4237Y3714D01*
X4244Y3725D01*
X4247Y3737D01*
Y3750D01*
X4244Y3762D01*
X4237Y3772D01*
X4228Y3781D01*
X4218Y3787D01*
X4206Y3791D01*
D02*
G37*
G36*
X3287D02*
X3275D01*
X3263Y3787D01*
X3252Y3781D01*
X3243Y3772D01*
X3237Y3762D01*
X3234Y3750D01*
Y3737D01*
X3237Y3725D01*
X3243Y3714D01*
X3252Y3706D01*
X3263Y3699D01*
X3275Y3696D01*
X3287D01*
X3299Y3699D01*
X3310Y3706D01*
X3319Y3714D01*
X3325Y3725D01*
X3328Y3737D01*
Y3750D01*
X3325Y3762D01*
X3319Y3772D01*
X3310Y3781D01*
X3299Y3787D01*
X3287Y3791D01*
D02*
G37*
G36*
X2368D02*
X2356D01*
X2344Y3787D01*
X2333Y3781D01*
X2324Y3772D01*
X2318Y3762D01*
X2315Y3750D01*
Y3737D01*
X2318Y3725D01*
X2324Y3714D01*
X2333Y3706D01*
X2344Y3699D01*
X2356Y3696D01*
X2368D01*
X2380Y3699D01*
X2391Y3706D01*
X2400Y3714D01*
X2406Y3725D01*
X2409Y3737D01*
Y3750D01*
X2406Y3762D01*
X2400Y3772D01*
X2391Y3781D01*
X2380Y3787D01*
X2368Y3791D01*
D02*
G37*
G36*
X5124Y3789D02*
X5112D01*
X5100Y3786D01*
X5089Y3780D01*
X5080Y3771D01*
X5074Y3760D01*
X5071Y3748D01*
Y3736D01*
X5074Y3723D01*
X5080Y3713D01*
X5089Y3704D01*
X5100Y3698D01*
X5112Y3694D01*
X5124D01*
X5136Y3698D01*
X5147Y3704D01*
X5156Y3713D01*
X5162Y3723D01*
X5165Y3736D01*
Y3748D01*
X5162Y3760D01*
X5156Y3771D01*
X5147Y3780D01*
X5136Y3786D01*
X5124Y3789D01*
D02*
G37*
G36*
X5610Y3805D02*
X5607Y3805D01*
X5604D01*
X5601Y3805D01*
X5597Y3804D01*
X5594Y3803D01*
X5591Y3803D01*
X5588Y3801D01*
X5585Y3800D01*
X5582Y3799D01*
X5579Y3798D01*
X5577Y3796D01*
X5574Y3794D01*
X5571Y3792D01*
X5569Y3791D01*
X5567Y3788D01*
X5564Y3786D01*
X5562Y3784D01*
X5560Y3782D01*
X5558Y3779D01*
X5556Y3776D01*
X5554Y3774D01*
X5553Y3771D01*
X5551Y3768D01*
X5550Y3765D01*
X5549Y3762D01*
X5548Y3759D01*
X5547Y3756D01*
X5546Y3753D01*
X5546Y3750D01*
X5545Y3747D01*
Y3743D01*
X5545Y3740D01*
Y3740D01*
X5545Y3737D01*
Y3734D01*
X5546Y3731D01*
X5546Y3727D01*
X5547Y3724D01*
X5548Y3721D01*
X5549Y3718D01*
X5550Y3715D01*
X5551Y3712D01*
X5553Y3709D01*
X5554Y3707D01*
X5556Y3704D01*
X5558Y3701D01*
X5560Y3699D01*
X5562Y3696D01*
X5564Y3694D01*
X5567Y3692D01*
X5569Y3690D01*
X5571Y3688D01*
X5574Y3686D01*
X5577Y3684D01*
X5579Y3683D01*
X5582Y3681D01*
X5585Y3680D01*
X5588Y3679D01*
X5591Y3678D01*
X5594Y3677D01*
X5597Y3676D01*
X5601Y3676D01*
X5604Y3675D01*
X5607D01*
X5610Y3675D01*
X5613Y3675D01*
X5617D01*
X5620Y3676D01*
X5623Y3676D01*
X5626Y3677D01*
X5629Y3678D01*
X5632Y3679D01*
X5635Y3680D01*
X5638Y3681D01*
X5641Y3683D01*
X5644Y3684D01*
X5647Y3686D01*
X5649Y3688D01*
X5652Y3690D01*
X5654Y3692D01*
X5656Y3694D01*
X5658Y3696D01*
X5661Y3699D01*
X5662Y3701D01*
X5665Y3704D01*
X5666Y3707D01*
X5668Y3709D01*
X5669Y3712D01*
X5671Y3715D01*
X5672Y3718D01*
X5673Y3721D01*
X5673Y3724D01*
X5674Y3727D01*
X5675Y3731D01*
X5675Y3734D01*
Y3737D01*
X5676Y3740D01*
Y3740D01*
X5675Y3743D01*
Y3747D01*
X5675Y3750D01*
X5674Y3753D01*
X5673Y3756D01*
X5673Y3759D01*
X5672Y3762D01*
X5671Y3765D01*
X5669Y3768D01*
X5668Y3771D01*
X5666Y3774D01*
X5665Y3776D01*
X5662Y3779D01*
X5661Y3782D01*
X5658Y3784D01*
X5656Y3786D01*
X5654Y3788D01*
X5652Y3791D01*
X5649Y3792D01*
X5647Y3794D01*
X5644Y3796D01*
X5641Y3798D01*
X5638Y3799D01*
X5635Y3800D01*
X5632Y3801D01*
X5629Y3803D01*
X5626Y3803D01*
X5623Y3804D01*
X5620Y3805D01*
X5617Y3805D01*
X5613D01*
X5610Y3805D01*
D02*
G37*
G36*
X4206Y3691D02*
X4193D01*
X4181Y3687D01*
X4170Y3681D01*
X4162Y3672D01*
X4155Y3662D01*
X4152Y3650D01*
Y3637D01*
X4155Y3625D01*
X4162Y3614D01*
X4170Y3606D01*
X4181Y3599D01*
X4193Y3596D01*
X4206D01*
X4218Y3599D01*
X4228Y3606D01*
X4237Y3614D01*
X4244Y3625D01*
X4247Y3637D01*
Y3650D01*
X4244Y3662D01*
X4237Y3672D01*
X4228Y3681D01*
X4218Y3687D01*
X4206Y3691D01*
D02*
G37*
G36*
X3287D02*
X3275D01*
X3263Y3687D01*
X3252Y3681D01*
X3243Y3672D01*
X3237Y3662D01*
X3234Y3650D01*
Y3637D01*
X3237Y3625D01*
X3243Y3614D01*
X3252Y3606D01*
X3263Y3599D01*
X3275Y3596D01*
X3287D01*
X3299Y3599D01*
X3310Y3606D01*
X3319Y3614D01*
X3325Y3625D01*
X3328Y3637D01*
Y3650D01*
X3325Y3662D01*
X3319Y3672D01*
X3310Y3681D01*
X3299Y3687D01*
X3287Y3691D01*
D02*
G37*
G36*
X2368D02*
X2356D01*
X2344Y3687D01*
X2333Y3681D01*
X2324Y3672D01*
X2318Y3662D01*
X2315Y3650D01*
Y3637D01*
X2318Y3625D01*
X2324Y3614D01*
X2333Y3606D01*
X2344Y3599D01*
X2356Y3596D01*
X2368D01*
X2380Y3599D01*
X2391Y3606D01*
X2400Y3614D01*
X2406Y3625D01*
X2409Y3637D01*
Y3650D01*
X2406Y3662D01*
X2400Y3672D01*
X2391Y3681D01*
X2380Y3687D01*
X2368Y3691D01*
D02*
G37*
G36*
X5124Y3689D02*
X5112D01*
X5100Y3686D01*
X5089Y3680D01*
X5080Y3671D01*
X5074Y3660D01*
X5071Y3648D01*
Y3636D01*
X5074Y3623D01*
X5080Y3613D01*
X5089Y3604D01*
X5100Y3598D01*
X5112Y3594D01*
X5124D01*
X5136Y3598D01*
X5147Y3604D01*
X5156Y3613D01*
X5162Y3623D01*
X5165Y3636D01*
Y3648D01*
X5162Y3660D01*
X5156Y3671D01*
X5147Y3680D01*
X5136Y3686D01*
X5124Y3689D01*
D02*
G37*
G36*
X4247Y3591D02*
X4207D01*
Y3551D01*
X4247D01*
Y3591D01*
D02*
G37*
G36*
X4192D02*
X4152D01*
Y3551D01*
X4192D01*
Y3591D01*
D02*
G37*
G36*
X3328D02*
X3289D01*
Y3551D01*
X3328D01*
Y3591D01*
D02*
G37*
G36*
X3273D02*
X3234D01*
Y3551D01*
X3273D01*
Y3591D01*
D02*
G37*
G36*
X2409D02*
X2370D01*
Y3551D01*
X2409D01*
Y3591D01*
D02*
G37*
G36*
X2354D02*
X2315D01*
Y3551D01*
X2354D01*
Y3591D01*
D02*
G37*
G36*
X1186Y3548D02*
Y3496D01*
X1238D01*
X1236Y3506D01*
X1232Y3517D01*
X1225Y3527D01*
X1217Y3535D01*
X1207Y3542D01*
X1196Y3546D01*
X1186Y3548D01*
D02*
G37*
G36*
X1170D02*
X1160Y3546D01*
X1149Y3542D01*
X1139Y3535D01*
X1131Y3527D01*
X1124Y3517D01*
X1120Y3506D01*
X1118Y3496D01*
X1170D01*
Y3548D01*
D02*
G37*
G36*
X4247Y3535D02*
X4207D01*
Y3496D01*
X4247D01*
Y3535D01*
D02*
G37*
G36*
X4192D02*
X4152D01*
Y3496D01*
X4192D01*
Y3535D01*
D02*
G37*
G36*
X3328Y3535D02*
X3289D01*
Y3496D01*
X3328D01*
Y3535D01*
D02*
G37*
G36*
X3273D02*
X3234D01*
Y3496D01*
X3273D01*
Y3535D01*
D02*
G37*
G36*
X2409Y3535D02*
X2370D01*
Y3496D01*
X2409D01*
Y3535D01*
D02*
G37*
G36*
X2354D02*
X2315D01*
Y3496D01*
X2354D01*
Y3535D01*
D02*
G37*
G36*
X5165Y3589D02*
X5071D01*
Y3494D01*
X5165D01*
Y3589D01*
D02*
G37*
G36*
X1238Y3480D02*
X1186D01*
Y3428D01*
X1196Y3430D01*
X1207Y3435D01*
X1217Y3441D01*
X1225Y3450D01*
X1232Y3460D01*
X1236Y3471D01*
X1238Y3480D01*
D02*
G37*
G36*
X1170D02*
X1118D01*
X1120Y3471D01*
X1124Y3460D01*
X1131Y3450D01*
X1139Y3441D01*
X1149Y3435D01*
X1160Y3430D01*
X1170Y3428D01*
Y3480D01*
D02*
G37*
G36*
X349Y3531D02*
X241D01*
Y3422D01*
X349D01*
Y3531D01*
D02*
G37*
G36*
X6109Y3401D02*
X6095D01*
X6081Y3397D01*
X6069Y3390D01*
X6059Y3380D01*
X6052Y3367D01*
X6048Y3354D01*
Y3339D01*
X6052Y3326D01*
X6059Y3313D01*
X6069Y3303D01*
X6081Y3296D01*
X6095Y3292D01*
X6109D01*
X6123Y3296D01*
X6136Y3303D01*
X6146Y3313D01*
X6153Y3326D01*
X6156Y3339D01*
Y3354D01*
X6153Y3367D01*
X6146Y3380D01*
X6136Y3390D01*
X6123Y3397D01*
X6109Y3401D01*
D02*
G37*
G36*
X1744Y3318D02*
X1732D01*
X1721Y3315D01*
X1710Y3309D01*
X1702Y3300D01*
X1696Y3290D01*
X1693Y3278D01*
Y3266D01*
X1696Y3255D01*
X1702Y3245D01*
X1710Y3236D01*
X1721Y3230D01*
X1732Y3227D01*
X1744D01*
X1755Y3230D01*
X1766Y3236D01*
X1774Y3245D01*
X1780Y3255D01*
X1783Y3266D01*
Y3278D01*
X1780Y3290D01*
X1774Y3300D01*
X1766Y3309D01*
X1755Y3315D01*
X1744Y3318D01*
D02*
G37*
G36*
X302Y3334D02*
X288D01*
X274Y3330D01*
X262Y3323D01*
X252Y3313D01*
X245Y3300D01*
X241Y3287D01*
Y3272D01*
X245Y3259D01*
X252Y3246D01*
X262Y3236D01*
X274Y3229D01*
X288Y3225D01*
X302D01*
X316Y3229D01*
X329Y3236D01*
X339Y3246D01*
X346Y3259D01*
X349Y3272D01*
Y3287D01*
X346Y3300D01*
X339Y3313D01*
X329Y3323D01*
X316Y3330D01*
X302Y3334D01*
D02*
G37*
G36*
X1184Y3253D02*
X1172D01*
X1160Y3251D01*
X1149Y3247D01*
X1139Y3240D01*
X1131Y3232D01*
X1124Y3222D01*
X1120Y3211D01*
X1118Y3199D01*
Y3187D01*
X1120Y3175D01*
X1124Y3164D01*
X1131Y3154D01*
X1139Y3146D01*
X1149Y3139D01*
X1160Y3135D01*
X1172Y3133D01*
X1184D01*
X1196Y3135D01*
X1207Y3139D01*
X1217Y3146D01*
X1225Y3154D01*
X1232Y3164D01*
X1236Y3175D01*
X1238Y3187D01*
Y3199D01*
X1236Y3211D01*
X1232Y3222D01*
X1225Y3232D01*
X1217Y3240D01*
X1207Y3247D01*
X1196Y3251D01*
X1184Y3253D01*
D02*
G37*
G36*
X6156Y3204D02*
X6048D01*
Y3095D01*
X6156D01*
Y3204D01*
D02*
G37*
G36*
X5124Y3012D02*
X5112D01*
X5101Y3009D01*
X5092Y3003D01*
X5083Y2995D01*
X5078Y2985D01*
X5075Y2974D01*
Y2963D01*
X5078Y2952D01*
X5083Y2942D01*
X5092Y2934D01*
X5101Y2928D01*
X5112Y2925D01*
X5124D01*
X5135Y2928D01*
X5145Y2934D01*
X5153Y2942D01*
X5158Y2952D01*
X5161Y2963D01*
Y2974D01*
X5158Y2985D01*
X5153Y2995D01*
X5145Y3003D01*
X5135Y3009D01*
X5124Y3012D01*
D02*
G37*
G36*
X1184Y2958D02*
X1172D01*
X1160Y2956D01*
X1149Y2951D01*
X1139Y2945D01*
X1131Y2936D01*
X1124Y2926D01*
X1120Y2915D01*
X1118Y2904D01*
Y2892D01*
X1120Y2880D01*
X1124Y2869D01*
X1131Y2859D01*
X1139Y2851D01*
X1149Y2844D01*
X1160Y2840D01*
X1172Y2837D01*
X1184D01*
X1196Y2840D01*
X1207Y2844D01*
X1217Y2851D01*
X1225Y2859D01*
X1232Y2869D01*
X1236Y2880D01*
X1238Y2892D01*
Y2904D01*
X1236Y2915D01*
X1232Y2926D01*
X1225Y2936D01*
X1217Y2945D01*
X1207Y2951D01*
X1196Y2956D01*
X1184Y2958D01*
D02*
G37*
G36*
X4297Y2868D02*
X4287D01*
X4277Y2865D01*
X4268Y2860D01*
X4261Y2852D01*
X4256Y2844D01*
X4253Y2833D01*
Y2823D01*
X4256Y2813D01*
X4261Y2804D01*
X4268Y2797D01*
X4277Y2792D01*
X4287Y2789D01*
X4297D01*
X4307Y2792D01*
X4316Y2797D01*
X4324Y2804D01*
X4329Y2813D01*
X4332Y2823D01*
Y2833D01*
X4329Y2844D01*
X4324Y2852D01*
X4316Y2860D01*
X4307Y2865D01*
X4297Y2868D01*
D02*
G37*
G36*
X3327D02*
X3317D01*
X3307Y2865D01*
X3298Y2860D01*
X3291Y2852D01*
X3286Y2844D01*
X3283Y2833D01*
Y2823D01*
X3286Y2813D01*
X3291Y2804D01*
X3298Y2797D01*
X3307Y2792D01*
X3317Y2789D01*
X3327D01*
X3337Y2792D01*
X3346Y2797D01*
X3354Y2804D01*
X3359Y2813D01*
X3362Y2823D01*
Y2833D01*
X3359Y2844D01*
X3354Y2852D01*
X3346Y2860D01*
X3337Y2865D01*
X3327Y2868D01*
D02*
G37*
G36*
X2357D02*
X2347D01*
X2337Y2865D01*
X2328Y2860D01*
X2321Y2852D01*
X2316Y2844D01*
X2313Y2833D01*
Y2823D01*
X2316Y2813D01*
X2321Y2804D01*
X2328Y2797D01*
X2337Y2792D01*
X2347Y2789D01*
X2357D01*
X2367Y2792D01*
X2376Y2797D01*
X2384Y2804D01*
X2389Y2813D01*
X2392Y2823D01*
Y2833D01*
X2389Y2844D01*
X2384Y2852D01*
X2376Y2860D01*
X2367Y2865D01*
X2357Y2868D01*
D02*
G37*
G36*
X4608Y2867D02*
X4597D01*
X4585Y2864D01*
X4576Y2858D01*
X4568Y2850D01*
X4562Y2840D01*
X4559Y2829D01*
Y2818D01*
X4562Y2807D01*
X4568Y2797D01*
X4576Y2789D01*
X4585Y2783D01*
X4597Y2780D01*
X4608D01*
X4619Y2783D01*
X4629Y2789D01*
X4637Y2797D01*
X4643Y2807D01*
X4646Y2818D01*
Y2829D01*
X4643Y2840D01*
X4637Y2850D01*
X4629Y2858D01*
X4619Y2864D01*
X4608Y2867D01*
D02*
G37*
G36*
X3640D02*
X3629D01*
X3618Y2864D01*
X3608Y2858D01*
X3600Y2850D01*
X3594Y2840D01*
X3591Y2829D01*
Y2818D01*
X3594Y2807D01*
X3600Y2797D01*
X3608Y2789D01*
X3618Y2783D01*
X3629Y2780D01*
X3640D01*
X3651Y2783D01*
X3661Y2789D01*
X3669Y2797D01*
X3675Y2807D01*
X3678Y2818D01*
Y2829D01*
X3675Y2840D01*
X3669Y2850D01*
X3661Y2858D01*
X3651Y2864D01*
X3640Y2867D01*
D02*
G37*
G36*
X2673D02*
X2662D01*
X2650Y2864D01*
X2641Y2858D01*
X2633Y2850D01*
X2627Y2840D01*
X2624Y2829D01*
Y2818D01*
X2627Y2807D01*
X2633Y2797D01*
X2641Y2789D01*
X2650Y2783D01*
X2662Y2780D01*
X2673D01*
X2684Y2783D01*
X2694Y2789D01*
X2702Y2797D01*
X2708Y2807D01*
X2711Y2818D01*
Y2829D01*
X2708Y2840D01*
X2702Y2850D01*
X2694Y2858D01*
X2684Y2864D01*
X2673Y2867D01*
D02*
G37*
G36*
X1783Y2859D02*
X1693D01*
Y2768D01*
X1783D01*
Y2859D01*
D02*
G37*
G36*
X349Y2826D02*
X241D01*
Y2717D01*
X349D01*
Y2826D01*
D02*
G37*
G36*
X5500Y2709D02*
Y2681D01*
X5528D01*
X5526Y2687D01*
X5521Y2695D01*
X5514Y2702D01*
X5506Y2707D01*
X5500Y2709D01*
D02*
G37*
G36*
X5484D02*
X5478Y2707D01*
X5470Y2702D01*
X5463Y2695D01*
X5458Y2687D01*
X5457Y2681D01*
X5484D01*
Y2709D01*
D02*
G37*
G36*
X5528Y2665D02*
X5500D01*
Y2637D01*
X5506Y2639D01*
X5514Y2644D01*
X5521Y2651D01*
X5526Y2659D01*
X5528Y2665D01*
D02*
G37*
G36*
X5484D02*
X5457D01*
X5458Y2659D01*
X5463Y2651D01*
X5470Y2644D01*
X5478Y2639D01*
X5484Y2637D01*
Y2665D01*
D02*
G37*
G36*
X5450Y2709D02*
X5377D01*
Y2637D01*
X5450D01*
Y2709D01*
D02*
G37*
G36*
X5124Y2712D02*
X5112D01*
X5101Y2709D01*
X5092Y2703D01*
X5083Y2695D01*
X5078Y2685D01*
X5075Y2674D01*
Y2663D01*
X5078Y2652D01*
X5083Y2642D01*
X5092Y2634D01*
X5101Y2628D01*
X5112Y2625D01*
X5124D01*
X5135Y2628D01*
X5145Y2634D01*
X5153Y2642D01*
X5158Y2652D01*
X5161Y2663D01*
Y2674D01*
X5158Y2685D01*
X5153Y2695D01*
X5145Y2703D01*
X5135Y2709D01*
X5124Y2712D01*
D02*
G37*
G36*
X6110Y2598D02*
Y2567D01*
X6141D01*
X6139Y2574D01*
X6134Y2583D01*
X6127Y2591D01*
X6118Y2596D01*
X6110Y2598D01*
D02*
G37*
G36*
X6094Y2598D02*
X6087Y2596D01*
X6078Y2591D01*
X6071Y2583D01*
X6066Y2574D01*
X6064Y2567D01*
X6094D01*
Y2598D01*
D02*
G37*
G36*
X4300Y2567D02*
Y2536D01*
X4331D01*
X4329Y2544D01*
X4324Y2552D01*
X4316Y2560D01*
X4307Y2565D01*
X4300Y2567D01*
D02*
G37*
G36*
X3330D02*
Y2536D01*
X3361D01*
X3359Y2544D01*
X3354Y2552D01*
X3346Y2560D01*
X3337Y2565D01*
X3330Y2567D01*
D02*
G37*
G36*
X2360D02*
Y2536D01*
X2391D01*
X2389Y2544D01*
X2384Y2552D01*
X2376Y2560D01*
X2367Y2565D01*
X2360Y2567D01*
D02*
G37*
G36*
X4284Y2567D02*
X4277Y2565D01*
X4268Y2560D01*
X4261Y2552D01*
X4256Y2544D01*
X4254Y2536D01*
X4284D01*
Y2567D01*
D02*
G37*
G36*
X3314D02*
X3307Y2565D01*
X3298Y2560D01*
X3291Y2552D01*
X3286Y2544D01*
X3284Y2536D01*
X3314D01*
Y2567D01*
D02*
G37*
G36*
X2344D02*
X2337Y2565D01*
X2328Y2560D01*
X2321Y2552D01*
X2316Y2544D01*
X2314Y2536D01*
X2344D01*
Y2567D01*
D02*
G37*
G36*
X302Y2629D02*
X288D01*
X274Y2625D01*
X262Y2618D01*
X252Y2608D01*
X245Y2595D01*
X241Y2582D01*
Y2567D01*
X245Y2554D01*
X252Y2541D01*
X262Y2531D01*
X274Y2524D01*
X288Y2520D01*
X302D01*
X316Y2524D01*
X329Y2531D01*
X339Y2541D01*
X346Y2554D01*
X349Y2567D01*
Y2582D01*
X346Y2595D01*
X339Y2608D01*
X329Y2618D01*
X316Y2625D01*
X302Y2629D01*
D02*
G37*
G36*
X6141Y2551D02*
X6110D01*
Y2520D01*
X6118Y2522D01*
X6127Y2528D01*
X6134Y2535D01*
X6139Y2544D01*
X6141Y2551D01*
D02*
G37*
G36*
X6094D02*
X6064D01*
X6066Y2544D01*
X6071Y2535D01*
X6078Y2528D01*
X6087Y2522D01*
X6094Y2520D01*
Y2551D01*
D02*
G37*
G36*
X2946Y2528D02*
X2903D01*
Y2505D01*
X2898Y2504D01*
X2896Y2508D01*
X2886Y2517D01*
X2874Y2524D01*
X2861Y2528D01*
X2848D01*
X2834Y2524D01*
X2823Y2517D01*
X2813Y2508D01*
X2806Y2496D01*
X2803Y2483D01*
Y2469D01*
X2806Y2456D01*
X2813Y2445D01*
X2823Y2435D01*
X2834Y2428D01*
X2848Y2425D01*
X2861D01*
X2874Y2428D01*
X2886Y2435D01*
X2896Y2445D01*
X2898Y2449D01*
X2903Y2447D01*
Y2425D01*
X2946D01*
Y2476D01*
Y2528D01*
D02*
G37*
G36*
X4331Y2520D02*
X4300D01*
Y2490D01*
X4307Y2492D01*
X4316Y2497D01*
X4324Y2504D01*
X4329Y2513D01*
X4331Y2520D01*
D02*
G37*
G36*
X3361D02*
X3330D01*
Y2490D01*
X3337Y2492D01*
X3346Y2497D01*
X3354Y2504D01*
X3359Y2513D01*
X3361Y2520D01*
D02*
G37*
G36*
X2391D02*
X2360D01*
Y2490D01*
X2367Y2492D01*
X2376Y2497D01*
X2384Y2504D01*
X2389Y2513D01*
X2391Y2520D01*
D02*
G37*
G36*
X4284D02*
X4254D01*
X4256Y2513D01*
X4261Y2504D01*
X4268Y2497D01*
X4277Y2492D01*
X4284Y2490D01*
Y2520D01*
D02*
G37*
G36*
X3314D02*
X3284D01*
X3286Y2513D01*
X3291Y2504D01*
X3298Y2497D01*
X3307Y2492D01*
X3314Y2490D01*
Y2520D01*
D02*
G37*
G36*
X2344D02*
X2314D01*
X2316Y2513D01*
X2321Y2504D01*
X2328Y2497D01*
X2337Y2492D01*
X2344Y2490D01*
Y2520D01*
D02*
G37*
G36*
X3006Y2528D02*
X2962D01*
Y2484D01*
X3006D01*
Y2528D01*
D02*
G37*
G36*
X4608Y2567D02*
X4597D01*
X4585Y2564D01*
X4576Y2558D01*
X4568Y2550D01*
X4562Y2540D01*
X4559Y2529D01*
Y2518D01*
X4562Y2507D01*
X4568Y2497D01*
X4576Y2489D01*
X4585Y2483D01*
X4597Y2480D01*
X4608D01*
X4619Y2483D01*
X4629Y2489D01*
X4637Y2497D01*
X4643Y2507D01*
X4646Y2518D01*
Y2529D01*
X4643Y2540D01*
X4637Y2550D01*
X4629Y2558D01*
X4619Y2564D01*
X4608Y2567D01*
D02*
G37*
G36*
X3640D02*
X3629D01*
X3618Y2564D01*
X3608Y2558D01*
X3600Y2550D01*
X3594Y2540D01*
X3591Y2529D01*
Y2518D01*
X3594Y2507D01*
X3600Y2497D01*
X3608Y2489D01*
X3618Y2483D01*
X3629Y2480D01*
X3640D01*
X3651Y2483D01*
X3661Y2489D01*
X3669Y2497D01*
X3675Y2507D01*
X3678Y2518D01*
Y2529D01*
X3675Y2540D01*
X3669Y2550D01*
X3661Y2558D01*
X3651Y2564D01*
X3640Y2567D01*
D02*
G37*
G36*
X2673D02*
X2662D01*
X2650Y2564D01*
X2641Y2558D01*
X2633Y2550D01*
X2627Y2540D01*
X2624Y2529D01*
Y2518D01*
X2627Y2507D01*
X2633Y2497D01*
X2641Y2489D01*
X2650Y2483D01*
X2662Y2480D01*
X2673D01*
X2684Y2483D01*
X2694Y2489D01*
X2702Y2497D01*
X2708Y2507D01*
X2711Y2518D01*
Y2529D01*
X2708Y2540D01*
X2702Y2550D01*
X2694Y2558D01*
X2684Y2564D01*
X2673Y2567D01*
D02*
G37*
G36*
X1238Y2564D02*
X1118D01*
Y2444D01*
X1238D01*
Y2564D01*
D02*
G37*
G36*
X3006Y2468D02*
X2962D01*
Y2425D01*
X3006D01*
Y2468D01*
D02*
G37*
G36*
X6108Y2498D02*
X6097D01*
X6087Y2496D01*
X6078Y2491D01*
X6071Y2483D01*
X6066Y2474D01*
X6063Y2464D01*
Y2454D01*
X6066Y2444D01*
X6071Y2435D01*
X6078Y2428D01*
X6087Y2422D01*
X6097Y2420D01*
X6108D01*
X6118Y2422D01*
X6127Y2428D01*
X6134Y2435D01*
X6139Y2444D01*
X6142Y2454D01*
Y2464D01*
X6139Y2474D01*
X6134Y2483D01*
X6127Y2491D01*
X6118Y2496D01*
X6108Y2498D01*
D02*
G37*
G36*
X6142Y2398D02*
X6063D01*
Y2320D01*
X6142D01*
Y2398D01*
D02*
G37*
G36*
X4666Y2160D02*
X4653D01*
X4640Y2156D01*
X4628Y2149D01*
X4618Y2140D01*
X4616Y2136D01*
X4611Y2137D01*
Y2160D01*
X4567D01*
Y2108D01*
Y2057D01*
X4611D01*
Y2079D01*
X4616Y2081D01*
X4618Y2077D01*
X4628Y2067D01*
X4640Y2060D01*
X4653Y2057D01*
X4666D01*
X4679Y2060D01*
X4691Y2067D01*
X4701Y2077D01*
X4708Y2088D01*
X4711Y2102D01*
Y2115D01*
X4708Y2128D01*
X4701Y2140D01*
X4691Y2149D01*
X4679Y2156D01*
X4666Y2160D01*
D02*
G37*
G36*
X3699D02*
X3685D01*
X3672Y2156D01*
X3660Y2149D01*
X3651Y2140D01*
X3649Y2136D01*
X3644Y2137D01*
Y2160D01*
X3600D01*
Y2108D01*
Y2057D01*
X3644D01*
Y2079D01*
X3649Y2081D01*
X3651Y2077D01*
X3660Y2067D01*
X3672Y2060D01*
X3685Y2057D01*
X3699D01*
X3712Y2060D01*
X3724Y2067D01*
X3733Y2077D01*
X3740Y2088D01*
X3744Y2102D01*
Y2115D01*
X3740Y2128D01*
X3733Y2140D01*
X3724Y2149D01*
X3712Y2156D01*
X3699Y2160D01*
D02*
G37*
G36*
X4552D02*
X4508D01*
Y2116D01*
X4552D01*
Y2160D01*
D02*
G37*
G36*
X3584D02*
X3541D01*
Y2116D01*
X3584D01*
Y2160D01*
D02*
G37*
G36*
X4552Y2100D02*
X4508D01*
Y2057D01*
X4552D01*
Y2100D01*
D02*
G37*
G36*
X3584D02*
X3541D01*
Y2057D01*
X3584D01*
Y2100D01*
D02*
G37*
G36*
X6110Y1727D02*
Y1681D01*
X6156D01*
X6153Y1694D01*
X6146Y1706D01*
X6136Y1717D01*
X6123Y1724D01*
X6110Y1727D01*
D02*
G37*
G36*
X6094Y1727D02*
X6081Y1724D01*
X6069Y1717D01*
X6059Y1706D01*
X6052Y1694D01*
X6048Y1681D01*
X6094D01*
Y1727D01*
D02*
G37*
G36*
X6156Y1665D02*
X6110D01*
Y1619D01*
X6123Y1623D01*
X6136Y1630D01*
X6146Y1640D01*
X6153Y1652D01*
X6156Y1665D01*
D02*
G37*
G36*
X6094D02*
X6048D01*
X6052Y1652D01*
X6059Y1640D01*
X6069Y1630D01*
X6081Y1623D01*
X6094Y1619D01*
Y1665D01*
D02*
G37*
G36*
X6156Y1531D02*
X6048D01*
Y1422D01*
X6156D01*
Y1531D01*
D02*
G37*
G36*
X5224Y1357D02*
X5209D01*
X5194Y1354D01*
X5180Y1348D01*
X5167Y1339D01*
X5157Y1329D01*
X5148Y1316D01*
X5142Y1302D01*
X5139Y1287D01*
Y1272D01*
X5142Y1257D01*
X5148Y1243D01*
X5157Y1230D01*
X5167Y1220D01*
X5180Y1211D01*
X5194Y1205D01*
X5209Y1202D01*
X5224D01*
X5239Y1205D01*
X5253Y1211D01*
X5266Y1220D01*
X5276Y1230D01*
X5285Y1243D01*
X5291Y1257D01*
X5294Y1272D01*
Y1287D01*
X5291Y1302D01*
X5285Y1316D01*
X5276Y1329D01*
X5266Y1339D01*
X5253Y1348D01*
X5239Y1354D01*
X5224Y1357D01*
D02*
G37*
G36*
X3748D02*
X3733D01*
X3718Y1354D01*
X3704Y1348D01*
X3691Y1339D01*
X3680Y1329D01*
X3672Y1316D01*
X3666Y1302D01*
X3663Y1287D01*
Y1272D01*
X3666Y1257D01*
X3672Y1243D01*
X3680Y1230D01*
X3691Y1220D01*
X3704Y1211D01*
X3718Y1205D01*
X3733Y1202D01*
X3748D01*
X3763Y1205D01*
X3777Y1211D01*
X3789Y1220D01*
X3800Y1230D01*
X3808Y1243D01*
X3814Y1257D01*
X3817Y1272D01*
Y1287D01*
X3814Y1302D01*
X3808Y1316D01*
X3800Y1329D01*
X3789Y1339D01*
X3777Y1348D01*
X3763Y1354D01*
X3748Y1357D01*
D02*
G37*
G36*
X2824Y1335D02*
X2806D01*
X2787Y1331D01*
X2770Y1324D01*
X2755Y1314D01*
X2742Y1300D01*
X2731Y1285D01*
X2724Y1268D01*
X2721Y1249D01*
Y1231D01*
X2724Y1213D01*
X2731Y1195D01*
X2742Y1180D01*
X2755Y1167D01*
X2770Y1156D01*
X2787Y1149D01*
X2806Y1146D01*
X2824D01*
X2843Y1149D01*
X2860Y1156D01*
X2875Y1167D01*
X2888Y1180D01*
X2899Y1195D01*
X2906Y1213D01*
X2909Y1231D01*
Y1249D01*
X2906Y1268D01*
X2899Y1285D01*
X2888Y1300D01*
X2875Y1314D01*
X2860Y1324D01*
X2843Y1331D01*
X2824Y1335D01*
D02*
G37*
G36*
X344Y1335D02*
X325D01*
X307Y1331D01*
X290Y1324D01*
X274Y1314D01*
X261Y1300D01*
X251Y1285D01*
X244Y1268D01*
X240Y1249D01*
Y1231D01*
X244Y1213D01*
X251Y1195D01*
X261Y1180D01*
X274Y1167D01*
X290Y1156D01*
X307Y1149D01*
X325Y1146D01*
X344D01*
X362Y1149D01*
X379Y1156D01*
X395Y1167D01*
X408Y1180D01*
X418Y1195D01*
X425Y1213D01*
X429Y1231D01*
Y1249D01*
X425Y1268D01*
X418Y1285D01*
X408Y1300D01*
X395Y1314D01*
X379Y1324D01*
X362Y1331D01*
X344Y1335D01*
D02*
G37*
G36*
X5224Y963D02*
Y894D01*
X5294D01*
X5291Y908D01*
X5285Y922D01*
X5276Y935D01*
X5266Y946D01*
X5253Y954D01*
X5239Y960D01*
X5224Y963D01*
D02*
G37*
G36*
X5209D02*
X5194Y960D01*
X5180Y954D01*
X5167Y946D01*
X5157Y935D01*
X5148Y922D01*
X5142Y908D01*
X5140Y894D01*
X5209D01*
Y963D01*
D02*
G37*
G36*
X3748D02*
Y894D01*
X3817D01*
X3814Y908D01*
X3808Y922D01*
X3800Y935D01*
X3789Y946D01*
X3777Y954D01*
X3763Y960D01*
X3748Y963D01*
D02*
G37*
G36*
X3732D02*
X3718Y960D01*
X3704Y954D01*
X3691Y946D01*
X3680Y935D01*
X3672Y922D01*
X3666Y908D01*
X3663Y894D01*
X3732D01*
Y963D01*
D02*
G37*
G36*
Y878D02*
X3663D01*
X3666Y863D01*
X3672Y849D01*
X3680Y837D01*
X3691Y826D01*
X3704Y818D01*
X3718Y812D01*
X3732Y809D01*
Y878D01*
D02*
G37*
G36*
X5294Y878D02*
X5224D01*
Y809D01*
X5239Y812D01*
X5253Y818D01*
X5266Y826D01*
X5276Y837D01*
X5285Y849D01*
X5291Y863D01*
X5294Y878D01*
D02*
G37*
G36*
X5209D02*
X5140D01*
X5142Y863D01*
X5148Y849D01*
X5157Y837D01*
X5167Y826D01*
X5180Y818D01*
X5194Y812D01*
X5209Y809D01*
Y878D01*
D02*
G37*
G36*
X3817Y878D02*
X3748D01*
Y809D01*
X3763Y812D01*
X3777Y818D01*
X3789Y826D01*
X3800Y837D01*
X3808Y849D01*
X3814Y863D01*
X3817Y878D01*
D02*
G37*
G36*
X6110Y743D02*
Y697D01*
X6156D01*
X6153Y710D01*
X6146Y722D01*
X6136Y732D01*
X6123Y739D01*
X6110Y743D01*
D02*
G37*
G36*
X6094Y743D02*
X6081Y739D01*
X6069Y732D01*
X6059Y722D01*
X6052Y710D01*
X6048Y697D01*
X6094D01*
Y743D01*
D02*
G37*
G36*
X6156Y681D02*
X6110D01*
Y635D01*
X6123Y639D01*
X6136Y646D01*
X6146Y656D01*
X6153Y668D01*
X6156Y681D01*
D02*
G37*
G36*
X6094D02*
X6048D01*
X6052Y668D01*
X6059Y656D01*
X6069Y646D01*
X6081Y639D01*
X6094Y635D01*
Y681D01*
D02*
G37*
G36*
X6156Y546D02*
X6048D01*
Y438D01*
X6156D01*
Y546D01*
D02*
G37*
G36*
X4534Y459D02*
X4521D01*
X4509Y456D01*
X4497Y451D01*
X4486Y444D01*
X4482Y440D01*
X4481Y439D01*
X4481Y439D01*
X4477Y435D01*
X4474Y431D01*
X4473Y430D01*
X4472Y428D01*
X4470Y424D01*
X4468Y421D01*
X4467Y418D01*
X4466Y416D01*
X4465Y413D01*
X4464Y409D01*
X4463Y406D01*
X4463Y403D01*
X4463Y400D01*
Y397D01*
X4462Y394D01*
X4463Y391D01*
Y387D01*
X4463Y384D01*
X4463Y381D01*
X4464Y378D01*
X4465Y375D01*
X4466Y371D01*
X4467Y369D01*
X4468Y367D01*
X4470Y363D01*
X4472Y359D01*
X4473Y358D01*
X4474Y357D01*
X4477Y352D01*
X4481Y349D01*
X4481Y348D01*
X4482Y348D01*
X4486Y343D01*
X4497Y336D01*
X4509Y331D01*
X4521Y329D01*
X4534D01*
X4547Y331D01*
X4558Y336D01*
X4569Y343D01*
X4573Y348D01*
X4574Y348D01*
X4574Y349D01*
X4578Y352D01*
X4581Y357D01*
X4582Y358D01*
X4583Y359D01*
X4585Y363D01*
X4587Y367D01*
X4588Y369D01*
X4589Y371D01*
X4590Y375D01*
X4591Y378D01*
X4592Y381D01*
X4592Y384D01*
X4593Y387D01*
Y391D01*
X4593Y394D01*
X4593Y397D01*
Y400D01*
X4592Y403D01*
X4592Y406D01*
X4591Y409D01*
X4590Y413D01*
X4589Y416D01*
X4588Y418D01*
X4587Y421D01*
X4585Y424D01*
X4583Y428D01*
X4582Y430D01*
X4581Y431D01*
X4578Y435D01*
X4574Y439D01*
X4574Y439D01*
X4573Y440D01*
X4569Y444D01*
X4558Y451D01*
X4547Y456D01*
X4534Y459D01*
D02*
G37*
%LPD*%
D38*
X2815Y1240D02*
D03*
X335D02*
D03*
D39*
X3740Y1280D02*
D03*
Y886D02*
D03*
X5217Y1280D02*
D03*
Y886D02*
D03*
D40*
X4528Y394D02*
D03*
X-3444Y7530D02*
D03*
X591Y3937D02*
D03*
D41*
X5610Y3740D02*
D03*
D42*
X3635Y2523D02*
D03*
Y2823D02*
D03*
X2667Y2523D02*
D03*
Y2823D02*
D03*
X4602Y2523D02*
D03*
Y2823D02*
D03*
X5118Y2668D02*
D03*
Y2968D02*
D03*
D43*
X4199Y3743D02*
D03*
Y3643D02*
D03*
X3281Y3743D02*
D03*
Y3643D02*
D03*
X2362Y3743D02*
D03*
Y3643D02*
D03*
X5118Y3742D02*
D03*
Y3642D02*
D03*
D44*
X4199Y3543D02*
D03*
X3281D02*
D03*
X2362D02*
D03*
X5118Y3542D02*
D03*
D45*
X3692Y2108D02*
D03*
X4660D02*
D03*
X2854Y2476D02*
D03*
D46*
X3592Y2108D02*
D03*
X4560D02*
D03*
X2954Y2476D02*
D03*
D47*
X4292Y2528D02*
D03*
Y2828D02*
D03*
X3322Y2528D02*
D03*
Y2828D02*
D03*
X2352Y2528D02*
D03*
Y2828D02*
D03*
X6102Y2459D02*
D03*
Y2559D02*
D03*
D48*
X5413Y4346D02*
D03*
X4823D02*
D03*
X1476D02*
D03*
X4044Y4364D02*
D03*
X3351D02*
D03*
X2657D02*
D03*
D49*
X5217Y4346D02*
D03*
X4626D02*
D03*
X6102Y1673D02*
D03*
Y689D02*
D03*
Y3346D02*
D03*
X295Y2575D02*
D03*
Y3280D02*
D03*
X1280Y4346D02*
D03*
X3651Y4364D02*
D03*
X3847D02*
D03*
X2957D02*
D03*
X3154D02*
D03*
X2264D02*
D03*
X2461D02*
D03*
X6102Y4134D02*
D03*
D50*
Y1476D02*
D03*
Y492D02*
D03*
Y3150D02*
D03*
X295Y2771D02*
D03*
Y3476D02*
D03*
X6102Y3937D02*
D03*
D51*
X1738Y3272D02*
D03*
X361Y4346D02*
D03*
D52*
X1738Y2814D02*
D03*
D53*
X1178Y3488D02*
D03*
Y3193D02*
D03*
Y2898D02*
D03*
D54*
Y2504D02*
D03*
D55*
X820Y4346D02*
D03*
D56*
X6102Y2359D02*
D03*
D57*
X5413Y2673D02*
D03*
D58*
X5492D02*
D03*
M02*
