G04*
G04 #@! TF.GenerationSoftware,Altium Limited,Altium Designer,22.8.2 (66)*
G04*
G04 Layer_Physical_Order=2*
G04 Layer_Color=16711680*
%FSLAX23Y23*%
%MOIN*%
G70*
G04*
G04 #@! TF.SameCoordinates,F145B31D-5F06-4ADD-9487-259E193C171D*
G04*
G04*
G04 #@! TF.FilePolarity,Positive*
G04*
G01*
G75*
%ADD35C,0.055*%
%ADD36C,0.063*%
%ADD37R,0.063X0.063*%
%ADD38C,0.071*%
%ADD39R,0.071X0.071*%
%ADD40C,0.047*%
%ADD41R,0.077X0.077*%
%ADD42C,0.077*%
%ADD43R,0.077X0.077*%
%ADD44C,0.123*%
%ADD45C,0.059*%
%ADD46R,0.059X0.059*%
%ADD47C,0.089*%
%ADD48R,0.089X0.089*%
%ADD49R,0.059X0.059*%
%ADD50R,0.047X0.047*%
%ADD51R,0.041X0.041*%
%ADD52C,0.041*%
G36*
X6299Y4638D02*
Y16D01*
X27D01*
Y4652D01*
X37Y4662D01*
X6299Y4638D01*
D02*
G37*
%LPC*%
G36*
X3854Y4412D02*
X3852D01*
Y4369D01*
X3896D01*
Y4370D01*
X3893Y4383D01*
X3886Y4394D01*
X3877Y4403D01*
X3866Y4409D01*
X3854Y4412D01*
D02*
G37*
G36*
X3160D02*
X3159D01*
Y4369D01*
X3202D01*
Y4370D01*
X3199Y4383D01*
X3193Y4394D01*
X3184Y4403D01*
X3173Y4409D01*
X3160Y4412D01*
D02*
G37*
G36*
X2467D02*
X2466D01*
Y4369D01*
X2509D01*
Y4370D01*
X2506Y4383D01*
X2499Y4394D01*
X2490Y4403D01*
X2479Y4409D01*
X2467Y4412D01*
D02*
G37*
G36*
X3842D02*
X3841D01*
X3829Y4409D01*
X3818Y4403D01*
X3809Y4394D01*
X3802Y4383D01*
X3799Y4370D01*
Y4369D01*
X3842D01*
Y4412D01*
D02*
G37*
G36*
X3149D02*
X3148D01*
X3135Y4409D01*
X3124Y4403D01*
X3115Y4394D01*
X3109Y4383D01*
X3106Y4370D01*
Y4369D01*
X3149D01*
Y4412D01*
D02*
G37*
G36*
X2456D02*
X2454D01*
X2442Y4409D01*
X2431Y4403D01*
X2422Y4394D01*
X2416Y4383D01*
X2412Y4370D01*
Y4369D01*
X2456D01*
Y4412D01*
D02*
G37*
G36*
X5223Y4395D02*
X5222D01*
Y4351D01*
X5265D01*
Y4353D01*
X5262Y4365D01*
X5255Y4376D01*
X5246Y4385D01*
X5235Y4391D01*
X5223Y4395D01*
D02*
G37*
G36*
X4632D02*
X4631D01*
Y4351D01*
X4674D01*
Y4353D01*
X4671Y4365D01*
X4665Y4376D01*
X4656Y4385D01*
X4645Y4391D01*
X4632Y4395D01*
D02*
G37*
G36*
X5212D02*
X5210D01*
X5198Y4391D01*
X5187Y4385D01*
X5178Y4376D01*
X5171Y4365D01*
X5168Y4353D01*
Y4351D01*
X5212D01*
Y4395D01*
D02*
G37*
G36*
X4621D02*
X4620D01*
X4607Y4391D01*
X4596Y4385D01*
X4587Y4376D01*
X4581Y4365D01*
X4578Y4353D01*
Y4351D01*
X4621D01*
Y4395D01*
D02*
G37*
G36*
X3896Y4359D02*
X3852D01*
Y4316D01*
X3854D01*
X3866Y4319D01*
X3877Y4325D01*
X3886Y4334D01*
X3893Y4345D01*
X3896Y4358D01*
Y4359D01*
D02*
G37*
G36*
X3842D02*
X3799D01*
Y4358D01*
X3802Y4345D01*
X3809Y4334D01*
X3818Y4325D01*
X3829Y4319D01*
X3841Y4316D01*
X3842D01*
Y4359D01*
D02*
G37*
G36*
X3202D02*
X3159D01*
Y4316D01*
X3160D01*
X3173Y4319D01*
X3184Y4325D01*
X3193Y4334D01*
X3199Y4345D01*
X3202Y4358D01*
Y4359D01*
D02*
G37*
G36*
X3149D02*
X3106D01*
Y4358D01*
X3109Y4345D01*
X3115Y4334D01*
X3124Y4325D01*
X3135Y4319D01*
X3148Y4316D01*
X3149D01*
Y4359D01*
D02*
G37*
G36*
X2509D02*
X2466D01*
Y4316D01*
X2467D01*
X2479Y4319D01*
X2490Y4325D01*
X2499Y4334D01*
X2506Y4345D01*
X2509Y4358D01*
Y4359D01*
D02*
G37*
G36*
X2456D02*
X2412D01*
Y4358D01*
X2416Y4345D01*
X2422Y4334D01*
X2431Y4325D01*
X2442Y4319D01*
X2454Y4316D01*
X2456D01*
Y4359D01*
D02*
G37*
G36*
X4098Y4418D02*
X3990D01*
Y4310D01*
X4098D01*
Y4418D01*
D02*
G37*
G36*
X3658D02*
X3644D01*
X3630Y4414D01*
X3617Y4407D01*
X3607Y4397D01*
X3600Y4385D01*
X3596Y4371D01*
Y4357D01*
X3600Y4343D01*
X3607Y4331D01*
X3617Y4321D01*
X3630Y4314D01*
X3644Y4310D01*
X3658D01*
X3672Y4314D01*
X3684Y4321D01*
X3694Y4331D01*
X3701Y4343D01*
X3705Y4357D01*
Y4371D01*
X3701Y4385D01*
X3694Y4397D01*
X3684Y4407D01*
X3672Y4414D01*
X3658Y4418D01*
D02*
G37*
G36*
X3405D02*
X3297D01*
Y4310D01*
X3405D01*
Y4418D01*
D02*
G37*
G36*
X2964D02*
X2950D01*
X2936Y4414D01*
X2924Y4407D01*
X2914Y4397D01*
X2907Y4385D01*
X2903Y4371D01*
Y4357D01*
X2907Y4343D01*
X2914Y4331D01*
X2924Y4321D01*
X2936Y4314D01*
X2950Y4310D01*
X2964D01*
X2978Y4314D01*
X2990Y4321D01*
X3001Y4331D01*
X3008Y4343D01*
X3011Y4357D01*
Y4371D01*
X3008Y4385D01*
X3001Y4397D01*
X2990Y4407D01*
X2978Y4414D01*
X2964Y4418D01*
D02*
G37*
G36*
X2712D02*
X2603D01*
Y4310D01*
X2712D01*
Y4418D01*
D02*
G37*
G36*
X2271D02*
X2257D01*
X2243Y4414D01*
X2231Y4407D01*
X2220Y4397D01*
X2213Y4385D01*
X2210Y4371D01*
Y4357D01*
X2213Y4343D01*
X2220Y4331D01*
X2231Y4321D01*
X2243Y4314D01*
X2257Y4310D01*
X2271D01*
X2285Y4314D01*
X2297Y4321D01*
X2307Y4331D01*
X2314Y4343D01*
X2318Y4357D01*
Y4371D01*
X2314Y4385D01*
X2307Y4397D01*
X2297Y4407D01*
X2285Y4414D01*
X2271Y4418D01*
D02*
G37*
G36*
X865Y4392D02*
X775D01*
Y4301D01*
X865D01*
Y4392D01*
D02*
G37*
G36*
X367D02*
X355D01*
X344Y4388D01*
X333Y4382D01*
X325Y4374D01*
X319Y4364D01*
X316Y4352D01*
Y4340D01*
X319Y4329D01*
X325Y4318D01*
X333Y4310D01*
X344Y4304D01*
X355Y4301D01*
X367D01*
X379Y4304D01*
X389Y4310D01*
X397Y4318D01*
X403Y4329D01*
X406Y4340D01*
Y4352D01*
X403Y4364D01*
X397Y4374D01*
X389Y4382D01*
X379Y4388D01*
X367Y4392D01*
D02*
G37*
G36*
X5265Y4341D02*
X5222D01*
Y4298D01*
X5223D01*
X5235Y4301D01*
X5246Y4308D01*
X5255Y4317D01*
X5262Y4328D01*
X5265Y4340D01*
Y4341D01*
D02*
G37*
G36*
X5212D02*
X5168D01*
Y4340D01*
X5171Y4328D01*
X5178Y4317D01*
X5187Y4308D01*
X5198Y4301D01*
X5210Y4298D01*
X5212D01*
Y4341D01*
D02*
G37*
G36*
X4674D02*
X4631D01*
Y4298D01*
X4632D01*
X4645Y4301D01*
X4656Y4308D01*
X4665Y4317D01*
X4671Y4328D01*
X4674Y4340D01*
Y4341D01*
D02*
G37*
G36*
X4621D02*
X4578D01*
Y4340D01*
X4581Y4328D01*
X4587Y4317D01*
X4596Y4308D01*
X4607Y4301D01*
X4620Y4298D01*
X4621D01*
Y4341D01*
D02*
G37*
G36*
X5468Y4400D02*
X5359D01*
Y4292D01*
X5468D01*
Y4400D01*
D02*
G37*
G36*
X4877D02*
X4769D01*
Y4292D01*
X4877D01*
Y4400D01*
D02*
G37*
G36*
X1531D02*
X1422D01*
Y4292D01*
X1531D01*
Y4400D01*
D02*
G37*
G36*
X1287D02*
X1272D01*
X1259Y4397D01*
X1246Y4390D01*
X1236Y4379D01*
X1229Y4367D01*
X1225Y4353D01*
Y4339D01*
X1229Y4325D01*
X1236Y4313D01*
X1246Y4303D01*
X1259Y4296D01*
X1272Y4292D01*
X1287D01*
X1300Y4296D01*
X1313Y4303D01*
X1323Y4313D01*
X1330Y4325D01*
X1334Y4339D01*
Y4353D01*
X1330Y4367D01*
X1323Y4379D01*
X1313Y4390D01*
X1300Y4397D01*
X1287Y4400D01*
D02*
G37*
G36*
X6109Y4182D02*
X6107D01*
Y4139D01*
X6151D01*
Y4140D01*
X6147Y4153D01*
X6141Y4164D01*
X6132Y4173D01*
X6121Y4179D01*
X6109Y4182D01*
D02*
G37*
G36*
X6097D02*
X6096D01*
X6084Y4179D01*
X6073Y4173D01*
X6064Y4164D01*
X6057Y4153D01*
X6054Y4140D01*
Y4139D01*
X6097D01*
Y4182D01*
D02*
G37*
G36*
X6151Y4129D02*
X6107D01*
Y4085D01*
X6109D01*
X6121Y4089D01*
X6132Y4095D01*
X6141Y4104D01*
X6147Y4115D01*
X6151Y4127D01*
Y4129D01*
D02*
G37*
G36*
X6097D02*
X6054D01*
Y4127D01*
X6057Y4115D01*
X6064Y4104D01*
X6073Y4095D01*
X6084Y4089D01*
X6096Y4085D01*
X6097D01*
Y4129D01*
D02*
G37*
G36*
X6156Y3991D02*
X6048D01*
Y3883D01*
X6156D01*
Y3991D01*
D02*
G37*
G36*
X4206Y3791D02*
X4193D01*
X4181Y3787D01*
X4170Y3781D01*
X4162Y3772D01*
X4155Y3762D01*
X4152Y3750D01*
Y3737D01*
X4155Y3725D01*
X4162Y3714D01*
X4170Y3706D01*
X4181Y3699D01*
X4193Y3696D01*
X4206D01*
X4218Y3699D01*
X4228Y3706D01*
X4237Y3714D01*
X4244Y3725D01*
X4247Y3737D01*
Y3750D01*
X4244Y3762D01*
X4237Y3772D01*
X4228Y3781D01*
X4218Y3787D01*
X4206Y3791D01*
D02*
G37*
G36*
X3287D02*
X3275D01*
X3263Y3787D01*
X3252Y3781D01*
X3243Y3772D01*
X3237Y3762D01*
X3234Y3750D01*
Y3737D01*
X3237Y3725D01*
X3243Y3714D01*
X3252Y3706D01*
X3263Y3699D01*
X3275Y3696D01*
X3287D01*
X3299Y3699D01*
X3310Y3706D01*
X3319Y3714D01*
X3325Y3725D01*
X3328Y3737D01*
Y3750D01*
X3325Y3762D01*
X3319Y3772D01*
X3310Y3781D01*
X3299Y3787D01*
X3287Y3791D01*
D02*
G37*
G36*
X2368D02*
X2356D01*
X2344Y3787D01*
X2333Y3781D01*
X2324Y3772D01*
X2318Y3762D01*
X2315Y3750D01*
Y3737D01*
X2318Y3725D01*
X2324Y3714D01*
X2333Y3706D01*
X2344Y3699D01*
X2356Y3696D01*
X2368D01*
X2380Y3699D01*
X2391Y3706D01*
X2400Y3714D01*
X2406Y3725D01*
X2409Y3737D01*
Y3750D01*
X2406Y3762D01*
X2400Y3772D01*
X2391Y3781D01*
X2380Y3787D01*
X2368Y3791D01*
D02*
G37*
G36*
X5124Y3789D02*
X5112D01*
X5100Y3786D01*
X5089Y3780D01*
X5080Y3771D01*
X5074Y3760D01*
X5071Y3748D01*
Y3736D01*
X5074Y3723D01*
X5080Y3713D01*
X5089Y3704D01*
X5100Y3698D01*
X5112Y3694D01*
X5124D01*
X5136Y3698D01*
X5147Y3704D01*
X5156Y3713D01*
X5162Y3723D01*
X5165Y3736D01*
Y3748D01*
X5162Y3760D01*
X5156Y3771D01*
X5147Y3780D01*
X5136Y3786D01*
X5124Y3789D01*
D02*
G37*
G36*
X4206Y3691D02*
X4193D01*
X4181Y3687D01*
X4170Y3681D01*
X4162Y3672D01*
X4155Y3662D01*
X4152Y3650D01*
Y3637D01*
X4155Y3625D01*
X4162Y3614D01*
X4170Y3606D01*
X4181Y3599D01*
X4193Y3596D01*
X4206D01*
X4218Y3599D01*
X4228Y3606D01*
X4237Y3614D01*
X4244Y3625D01*
X4247Y3637D01*
Y3650D01*
X4244Y3662D01*
X4237Y3672D01*
X4228Y3681D01*
X4218Y3687D01*
X4206Y3691D01*
D02*
G37*
G36*
X3287D02*
X3275D01*
X3263Y3687D01*
X3252Y3681D01*
X3243Y3672D01*
X3237Y3662D01*
X3234Y3650D01*
Y3637D01*
X3237Y3625D01*
X3243Y3614D01*
X3252Y3606D01*
X3263Y3599D01*
X3275Y3596D01*
X3287D01*
X3299Y3599D01*
X3310Y3606D01*
X3319Y3614D01*
X3325Y3625D01*
X3328Y3637D01*
Y3650D01*
X3325Y3662D01*
X3319Y3672D01*
X3310Y3681D01*
X3299Y3687D01*
X3287Y3691D01*
D02*
G37*
G36*
X2368D02*
X2356D01*
X2344Y3687D01*
X2333Y3681D01*
X2324Y3672D01*
X2318Y3662D01*
X2315Y3650D01*
Y3637D01*
X2318Y3625D01*
X2324Y3614D01*
X2333Y3606D01*
X2344Y3599D01*
X2356Y3596D01*
X2368D01*
X2380Y3599D01*
X2391Y3606D01*
X2400Y3614D01*
X2406Y3625D01*
X2409Y3637D01*
Y3650D01*
X2406Y3662D01*
X2400Y3672D01*
X2391Y3681D01*
X2380Y3687D01*
X2368Y3691D01*
D02*
G37*
G36*
X5124Y3689D02*
X5112D01*
X5100Y3686D01*
X5089Y3680D01*
X5080Y3671D01*
X5074Y3660D01*
X5071Y3648D01*
Y3636D01*
X5074Y3623D01*
X5080Y3613D01*
X5089Y3604D01*
X5100Y3598D01*
X5112Y3594D01*
X5124D01*
X5136Y3598D01*
X5147Y3604D01*
X5156Y3613D01*
X5162Y3623D01*
X5165Y3636D01*
Y3648D01*
X5162Y3660D01*
X5156Y3671D01*
X5147Y3680D01*
X5136Y3686D01*
X5124Y3689D01*
D02*
G37*
G36*
X4241Y3585D02*
X4204D01*
Y3548D01*
X4241D01*
Y3585D01*
D02*
G37*
G36*
X4194D02*
X4158D01*
Y3548D01*
X4194D01*
Y3585D01*
D02*
G37*
G36*
X3322D02*
X3286D01*
Y3548D01*
X3322D01*
Y3585D01*
D02*
G37*
G36*
X3276D02*
X3239D01*
Y3548D01*
X3276D01*
Y3585D01*
D02*
G37*
G36*
X2404D02*
X2367D01*
Y3548D01*
X2404D01*
Y3585D01*
D02*
G37*
G36*
X2357D02*
X2321D01*
Y3548D01*
X2357D01*
Y3585D01*
D02*
G37*
G36*
X4241Y3538D02*
X4204D01*
Y3502D01*
X4241D01*
Y3538D01*
D02*
G37*
G36*
X4194D02*
X4158D01*
Y3502D01*
X4194D01*
Y3538D01*
D02*
G37*
G36*
X3322Y3538D02*
X3286D01*
Y3502D01*
X3322D01*
Y3538D01*
D02*
G37*
G36*
X3276D02*
X3239D01*
Y3502D01*
X3276D01*
Y3538D01*
D02*
G37*
G36*
X2404Y3538D02*
X2367D01*
Y3502D01*
X2404D01*
Y3538D01*
D02*
G37*
G36*
X2357D02*
X2321D01*
Y3502D01*
X2357D01*
Y3538D01*
D02*
G37*
G36*
X5165Y3589D02*
X5071D01*
Y3494D01*
X5165D01*
Y3589D01*
D02*
G37*
G36*
X1185Y3543D02*
X1183D01*
Y3493D01*
X1233D01*
Y3495D01*
X1229Y3509D01*
X1222Y3522D01*
X1212Y3532D01*
X1199Y3539D01*
X1185Y3543D01*
D02*
G37*
G36*
X1173D02*
X1171D01*
X1157Y3539D01*
X1144Y3532D01*
X1134Y3522D01*
X1127Y3509D01*
X1123Y3495D01*
Y3493D01*
X1173D01*
Y3543D01*
D02*
G37*
G36*
X1233Y3483D02*
X1183D01*
Y3434D01*
X1185D01*
X1199Y3437D01*
X1212Y3445D01*
X1222Y3455D01*
X1229Y3467D01*
X1233Y3481D01*
Y3483D01*
D02*
G37*
G36*
X1173D02*
X1123D01*
Y3481D01*
X1127Y3467D01*
X1134Y3455D01*
X1144Y3445D01*
X1157Y3437D01*
X1171Y3434D01*
X1173D01*
Y3483D01*
D02*
G37*
G36*
X349Y3531D02*
X241D01*
Y3422D01*
X349D01*
Y3531D01*
D02*
G37*
G36*
X6109Y3401D02*
X6095D01*
X6081Y3397D01*
X6069Y3390D01*
X6059Y3380D01*
X6052Y3367D01*
X6048Y3354D01*
Y3339D01*
X6052Y3326D01*
X6059Y3313D01*
X6069Y3303D01*
X6081Y3296D01*
X6095Y3292D01*
X6109D01*
X6123Y3296D01*
X6136Y3303D01*
X6146Y3313D01*
X6153Y3326D01*
X6156Y3339D01*
Y3354D01*
X6153Y3367D01*
X6146Y3380D01*
X6136Y3390D01*
X6123Y3397D01*
X6109Y3401D01*
D02*
G37*
G36*
X1744Y3318D02*
X1732D01*
X1721Y3315D01*
X1710Y3309D01*
X1702Y3300D01*
X1696Y3290D01*
X1693Y3278D01*
Y3266D01*
X1696Y3255D01*
X1702Y3245D01*
X1710Y3236D01*
X1721Y3230D01*
X1732Y3227D01*
X1744D01*
X1755Y3230D01*
X1766Y3236D01*
X1774Y3245D01*
X1780Y3255D01*
X1783Y3266D01*
Y3278D01*
X1780Y3290D01*
X1774Y3300D01*
X1766Y3309D01*
X1755Y3315D01*
X1744Y3318D01*
D02*
G37*
G36*
X302Y3334D02*
X288D01*
X274Y3330D01*
X262Y3323D01*
X252Y3313D01*
X245Y3300D01*
X241Y3287D01*
Y3272D01*
X245Y3259D01*
X252Y3246D01*
X262Y3236D01*
X274Y3229D01*
X288Y3225D01*
X302D01*
X316Y3229D01*
X329Y3236D01*
X339Y3246D01*
X346Y3259D01*
X349Y3272D01*
Y3287D01*
X346Y3300D01*
X339Y3313D01*
X329Y3323D01*
X316Y3330D01*
X302Y3334D01*
D02*
G37*
G36*
X1184Y3253D02*
X1172D01*
X1160Y3251D01*
X1149Y3247D01*
X1139Y3240D01*
X1131Y3232D01*
X1124Y3222D01*
X1120Y3211D01*
X1118Y3199D01*
Y3187D01*
X1120Y3175D01*
X1124Y3164D01*
X1131Y3154D01*
X1139Y3146D01*
X1149Y3139D01*
X1160Y3135D01*
X1172Y3133D01*
X1184D01*
X1196Y3135D01*
X1207Y3139D01*
X1217Y3146D01*
X1225Y3154D01*
X1232Y3164D01*
X1236Y3175D01*
X1238Y3187D01*
Y3199D01*
X1236Y3211D01*
X1232Y3222D01*
X1225Y3232D01*
X1217Y3240D01*
X1207Y3247D01*
X1196Y3251D01*
X1184Y3253D01*
D02*
G37*
G36*
X6156Y3204D02*
X6048D01*
Y3095D01*
X6156D01*
Y3204D01*
D02*
G37*
G36*
X5124Y3012D02*
X5112D01*
X5101Y3009D01*
X5092Y3003D01*
X5083Y2995D01*
X5078Y2985D01*
X5075Y2974D01*
Y2963D01*
X5078Y2952D01*
X5083Y2942D01*
X5092Y2934D01*
X5101Y2928D01*
X5112Y2925D01*
X5124D01*
X5135Y2928D01*
X5145Y2934D01*
X5153Y2942D01*
X5158Y2952D01*
X5161Y2963D01*
Y2974D01*
X5158Y2985D01*
X5153Y2995D01*
X5145Y3003D01*
X5135Y3009D01*
X5124Y3012D01*
D02*
G37*
G36*
X1184Y2958D02*
X1172D01*
X1160Y2956D01*
X1149Y2951D01*
X1139Y2945D01*
X1131Y2936D01*
X1124Y2926D01*
X1120Y2915D01*
X1118Y2904D01*
Y2892D01*
X1120Y2880D01*
X1124Y2869D01*
X1131Y2859D01*
X1139Y2851D01*
X1149Y2844D01*
X1160Y2840D01*
X1172Y2837D01*
X1184D01*
X1196Y2840D01*
X1207Y2844D01*
X1217Y2851D01*
X1225Y2859D01*
X1232Y2869D01*
X1236Y2880D01*
X1238Y2892D01*
Y2904D01*
X1236Y2915D01*
X1232Y2926D01*
X1225Y2936D01*
X1217Y2945D01*
X1207Y2951D01*
X1196Y2956D01*
X1184Y2958D01*
D02*
G37*
G36*
X4297Y2868D02*
X4287D01*
X4277Y2865D01*
X4268Y2860D01*
X4261Y2852D01*
X4256Y2844D01*
X4253Y2833D01*
Y2823D01*
X4256Y2813D01*
X4261Y2804D01*
X4268Y2797D01*
X4277Y2792D01*
X4287Y2789D01*
X4297D01*
X4307Y2792D01*
X4316Y2797D01*
X4324Y2804D01*
X4329Y2813D01*
X4332Y2823D01*
Y2833D01*
X4329Y2844D01*
X4324Y2852D01*
X4316Y2860D01*
X4307Y2865D01*
X4297Y2868D01*
D02*
G37*
G36*
X3327D02*
X3317D01*
X3307Y2865D01*
X3298Y2860D01*
X3291Y2852D01*
X3286Y2844D01*
X3283Y2833D01*
Y2823D01*
X3286Y2813D01*
X3291Y2804D01*
X3298Y2797D01*
X3307Y2792D01*
X3317Y2789D01*
X3327D01*
X3337Y2792D01*
X3346Y2797D01*
X3354Y2804D01*
X3359Y2813D01*
X3362Y2823D01*
Y2833D01*
X3359Y2844D01*
X3354Y2852D01*
X3346Y2860D01*
X3337Y2865D01*
X3327Y2868D01*
D02*
G37*
G36*
X2357D02*
X2347D01*
X2337Y2865D01*
X2328Y2860D01*
X2321Y2852D01*
X2316Y2844D01*
X2313Y2833D01*
Y2823D01*
X2316Y2813D01*
X2321Y2804D01*
X2328Y2797D01*
X2337Y2792D01*
X2347Y2789D01*
X2357D01*
X2367Y2792D01*
X2376Y2797D01*
X2384Y2804D01*
X2389Y2813D01*
X2392Y2823D01*
Y2833D01*
X2389Y2844D01*
X2384Y2852D01*
X2376Y2860D01*
X2367Y2865D01*
X2357Y2868D01*
D02*
G37*
G36*
X4608Y2867D02*
X4597D01*
X4585Y2864D01*
X4576Y2858D01*
X4568Y2850D01*
X4562Y2840D01*
X4559Y2829D01*
Y2818D01*
X4562Y2807D01*
X4568Y2797D01*
X4576Y2789D01*
X4585Y2783D01*
X4597Y2780D01*
X4608D01*
X4619Y2783D01*
X4629Y2789D01*
X4637Y2797D01*
X4643Y2807D01*
X4646Y2818D01*
Y2829D01*
X4643Y2840D01*
X4637Y2850D01*
X4629Y2858D01*
X4619Y2864D01*
X4608Y2867D01*
D02*
G37*
G36*
X3640D02*
X3629D01*
X3618Y2864D01*
X3608Y2858D01*
X3600Y2850D01*
X3594Y2840D01*
X3591Y2829D01*
Y2818D01*
X3594Y2807D01*
X3600Y2797D01*
X3608Y2789D01*
X3618Y2783D01*
X3629Y2780D01*
X3640D01*
X3651Y2783D01*
X3661Y2789D01*
X3669Y2797D01*
X3675Y2807D01*
X3678Y2818D01*
Y2829D01*
X3675Y2840D01*
X3669Y2850D01*
X3661Y2858D01*
X3651Y2864D01*
X3640Y2867D01*
D02*
G37*
G36*
X2673D02*
X2662D01*
X2650Y2864D01*
X2641Y2858D01*
X2633Y2850D01*
X2627Y2840D01*
X2624Y2829D01*
Y2818D01*
X2627Y2807D01*
X2633Y2797D01*
X2641Y2789D01*
X2650Y2783D01*
X2662Y2780D01*
X2673D01*
X2684Y2783D01*
X2694Y2789D01*
X2702Y2797D01*
X2708Y2807D01*
X2711Y2818D01*
Y2829D01*
X2708Y2840D01*
X2702Y2850D01*
X2694Y2858D01*
X2684Y2864D01*
X2673Y2867D01*
D02*
G37*
G36*
X1783Y2859D02*
X1693D01*
Y2768D01*
X1783D01*
Y2859D01*
D02*
G37*
G36*
X349Y2826D02*
X241D01*
Y2717D01*
X349D01*
Y2826D01*
D02*
G37*
G36*
X5497Y2703D02*
Y2678D01*
X5523D01*
X5521Y2685D01*
X5517Y2692D01*
X5511Y2698D01*
X5504Y2702D01*
X5497Y2703D01*
D02*
G37*
G36*
X5487D02*
X5480Y2702D01*
X5473Y2698D01*
X5468Y2692D01*
X5464Y2685D01*
X5462Y2678D01*
X5487D01*
Y2703D01*
D02*
G37*
G36*
X5523Y2668D02*
X5497D01*
Y2643D01*
X5504Y2644D01*
X5511Y2648D01*
X5517Y2654D01*
X5521Y2661D01*
X5523Y2668D01*
D02*
G37*
G36*
X5487D02*
X5462D01*
X5464Y2661D01*
X5468Y2654D01*
X5473Y2648D01*
X5480Y2644D01*
X5487Y2643D01*
Y2668D01*
D02*
G37*
G36*
X5450Y2709D02*
X5377D01*
Y2637D01*
X5450D01*
Y2709D01*
D02*
G37*
G36*
X5124Y2712D02*
X5112D01*
X5101Y2709D01*
X5092Y2703D01*
X5083Y2695D01*
X5078Y2685D01*
X5075Y2674D01*
Y2663D01*
X5078Y2652D01*
X5083Y2642D01*
X5092Y2634D01*
X5101Y2628D01*
X5112Y2625D01*
X5124D01*
X5135Y2628D01*
X5145Y2634D01*
X5153Y2642D01*
X5158Y2652D01*
X5161Y2663D01*
Y2674D01*
X5158Y2685D01*
X5153Y2695D01*
X5145Y2703D01*
X5135Y2709D01*
X5124Y2712D01*
D02*
G37*
G36*
X6107Y2593D02*
Y2564D01*
X6136D01*
X6134Y2572D01*
X6129Y2580D01*
X6123Y2586D01*
X6115Y2590D01*
X6107Y2593D01*
D02*
G37*
G36*
X6097Y2593D02*
X6089Y2590D01*
X6082Y2586D01*
X6075Y2580D01*
X6071Y2572D01*
X6069Y2564D01*
X6097D01*
Y2593D01*
D02*
G37*
G36*
X4297Y2562D02*
Y2533D01*
X4326D01*
X4324Y2541D01*
X4319Y2549D01*
X4313Y2555D01*
X4305Y2560D01*
X4297Y2562D01*
D02*
G37*
G36*
X3327D02*
Y2533D01*
X3356D01*
X3354Y2541D01*
X3349Y2549D01*
X3343Y2555D01*
X3335Y2560D01*
X3327Y2562D01*
D02*
G37*
G36*
X2357D02*
Y2533D01*
X2386D01*
X2384Y2541D01*
X2379Y2549D01*
X2373Y2555D01*
X2365Y2560D01*
X2357Y2562D01*
D02*
G37*
G36*
X4287Y2562D02*
X4279Y2560D01*
X4272Y2555D01*
X4265Y2549D01*
X4261Y2541D01*
X4259Y2533D01*
X4287D01*
Y2562D01*
D02*
G37*
G36*
X3317D02*
X3309Y2560D01*
X3302Y2555D01*
X3295Y2549D01*
X3291Y2541D01*
X3289Y2533D01*
X3317D01*
Y2562D01*
D02*
G37*
G36*
X2347D02*
X2339Y2560D01*
X2332Y2555D01*
X2325Y2549D01*
X2321Y2541D01*
X2319Y2533D01*
X2347D01*
Y2562D01*
D02*
G37*
G36*
X6136Y2554D02*
X6107D01*
Y2526D01*
X6115Y2528D01*
X6123Y2532D01*
X6129Y2538D01*
X6134Y2546D01*
X6136Y2554D01*
D02*
G37*
G36*
X6097D02*
X6069D01*
X6071Y2546D01*
X6075Y2538D01*
X6082Y2532D01*
X6089Y2528D01*
X6097Y2526D01*
Y2554D01*
D02*
G37*
G36*
X302Y2629D02*
X288D01*
X274Y2625D01*
X262Y2618D01*
X252Y2608D01*
X245Y2595D01*
X241Y2582D01*
Y2567D01*
X245Y2554D01*
X252Y2541D01*
X262Y2531D01*
X274Y2524D01*
X288Y2520D01*
X302D01*
X316Y2524D01*
X329Y2531D01*
X339Y2541D01*
X346Y2554D01*
X349Y2567D01*
Y2582D01*
X346Y2595D01*
X339Y2608D01*
X329Y2618D01*
X316Y2625D01*
X302Y2629D01*
D02*
G37*
G36*
X2386Y2523D02*
X2357D01*
Y2495D01*
X2365Y2497D01*
X2373Y2501D01*
X2379Y2508D01*
X2384Y2515D01*
X2386Y2523D01*
D02*
G37*
G36*
X3356D02*
X3327D01*
Y2495D01*
X3335Y2497D01*
X3343Y2501D01*
X3349Y2508D01*
X3354Y2515D01*
X3356Y2523D01*
D02*
G37*
G36*
X4326D02*
X4297D01*
Y2495D01*
X4305Y2497D01*
X4313Y2501D01*
X4319Y2508D01*
X4324Y2515D01*
X4326Y2523D01*
D02*
G37*
G36*
X4287D02*
X4259D01*
X4261Y2515D01*
X4265Y2508D01*
X4272Y2501D01*
X4279Y2497D01*
X4287Y2495D01*
Y2523D01*
D02*
G37*
G36*
X3317D02*
X3289D01*
X3291Y2515D01*
X3295Y2508D01*
X3302Y2501D01*
X3309Y2497D01*
X3317Y2495D01*
Y2523D01*
D02*
G37*
G36*
X2347D02*
X2319D01*
X2321Y2515D01*
X2325Y2508D01*
X2332Y2501D01*
X2339Y2497D01*
X2347Y2495D01*
Y2523D01*
D02*
G37*
G36*
X3000Y2522D02*
X2959D01*
Y2481D01*
X3000D01*
Y2522D01*
D02*
G37*
G36*
X4608Y2567D02*
X4597D01*
X4585Y2564D01*
X4576Y2558D01*
X4568Y2550D01*
X4562Y2540D01*
X4559Y2529D01*
Y2518D01*
X4562Y2507D01*
X4568Y2497D01*
X4576Y2489D01*
X4585Y2483D01*
X4597Y2480D01*
X4608D01*
X4619Y2483D01*
X4629Y2489D01*
X4637Y2497D01*
X4643Y2507D01*
X4646Y2518D01*
Y2529D01*
X4643Y2540D01*
X4637Y2550D01*
X4629Y2558D01*
X4619Y2564D01*
X4608Y2567D01*
D02*
G37*
G36*
X3640D02*
X3629D01*
X3618Y2564D01*
X3608Y2558D01*
X3600Y2550D01*
X3594Y2540D01*
X3591Y2529D01*
Y2518D01*
X3594Y2507D01*
X3600Y2497D01*
X3608Y2489D01*
X3618Y2483D01*
X3629Y2480D01*
X3640D01*
X3651Y2483D01*
X3661Y2489D01*
X3669Y2497D01*
X3675Y2507D01*
X3678Y2518D01*
Y2529D01*
X3675Y2540D01*
X3669Y2550D01*
X3661Y2558D01*
X3651Y2564D01*
X3640Y2567D01*
D02*
G37*
G36*
X2673D02*
X2662D01*
X2650Y2564D01*
X2641Y2558D01*
X2633Y2550D01*
X2627Y2540D01*
X2624Y2529D01*
Y2518D01*
X2627Y2507D01*
X2633Y2497D01*
X2641Y2489D01*
X2650Y2483D01*
X2662Y2480D01*
X2673D01*
X2684Y2483D01*
X2694Y2489D01*
X2702Y2497D01*
X2708Y2507D01*
X2711Y2518D01*
Y2529D01*
X2708Y2540D01*
X2702Y2550D01*
X2694Y2558D01*
X2684Y2564D01*
X2673Y2567D01*
D02*
G37*
G36*
X1238Y2564D02*
X1118D01*
Y2444D01*
X1238D01*
Y2564D01*
D02*
G37*
G36*
X3000Y2471D02*
X2959D01*
Y2430D01*
X3000D01*
Y2471D01*
D02*
G37*
G36*
X2861Y2528D02*
X2848D01*
X2834Y2524D01*
X2823Y2517D01*
X2813Y2508D01*
X2806Y2496D01*
X2803Y2483D01*
Y2469D01*
X2806Y2456D01*
X2813Y2445D01*
X2823Y2435D01*
X2834Y2428D01*
X2848Y2425D01*
X2861D01*
X2874Y2428D01*
X2886Y2435D01*
X2896Y2445D01*
X2902Y2456D01*
X2904Y2461D01*
X2909Y2461D01*
Y2430D01*
X2949D01*
Y2476D01*
Y2522D01*
X2909D01*
Y2492D01*
X2904Y2491D01*
X2902Y2496D01*
X2896Y2508D01*
X2886Y2517D01*
X2874Y2524D01*
X2861Y2528D01*
D02*
G37*
G36*
X6108Y2498D02*
X6097D01*
X6087Y2496D01*
X6078Y2491D01*
X6071Y2483D01*
X6066Y2474D01*
X6063Y2464D01*
Y2454D01*
X6066Y2444D01*
X6071Y2435D01*
X6078Y2428D01*
X6087Y2422D01*
X6097Y2420D01*
X6108D01*
X6118Y2422D01*
X6127Y2428D01*
X6134Y2435D01*
X6139Y2444D01*
X6142Y2454D01*
Y2464D01*
X6139Y2474D01*
X6134Y2483D01*
X6127Y2491D01*
X6118Y2496D01*
X6108Y2498D01*
D02*
G37*
G36*
X6142Y2398D02*
X6063D01*
Y2320D01*
X6142D01*
Y2398D01*
D02*
G37*
G36*
X4666Y2160D02*
X4653D01*
X4640Y2156D01*
X4628Y2149D01*
X4618Y2140D01*
X4612Y2128D01*
X4610Y2123D01*
X4605Y2124D01*
Y2154D01*
X4565D01*
Y2108D01*
Y2063D01*
X4605D01*
Y2093D01*
X4610Y2093D01*
X4612Y2088D01*
X4618Y2077D01*
X4628Y2067D01*
X4640Y2060D01*
X4653Y2057D01*
X4666D01*
X4679Y2060D01*
X4691Y2067D01*
X4701Y2077D01*
X4708Y2088D01*
X4711Y2102D01*
Y2115D01*
X4708Y2128D01*
X4701Y2140D01*
X4691Y2149D01*
X4679Y2156D01*
X4666Y2160D01*
D02*
G37*
G36*
X3699D02*
X3685D01*
X3672Y2156D01*
X3660Y2149D01*
X3651Y2140D01*
X3644Y2128D01*
X3643Y2123D01*
X3638Y2124D01*
Y2154D01*
X3597D01*
Y2108D01*
Y2063D01*
X3638D01*
Y2093D01*
X3643Y2093D01*
X3644Y2088D01*
X3651Y2077D01*
X3660Y2067D01*
X3672Y2060D01*
X3685Y2057D01*
X3699D01*
X3712Y2060D01*
X3724Y2067D01*
X3733Y2077D01*
X3740Y2088D01*
X3744Y2102D01*
Y2115D01*
X3740Y2128D01*
X3733Y2140D01*
X3724Y2149D01*
X3712Y2156D01*
X3699Y2160D01*
D02*
G37*
G36*
X4555Y2154D02*
X4514D01*
Y2113D01*
X4555D01*
Y2154D01*
D02*
G37*
G36*
X3587D02*
X3546D01*
Y2113D01*
X3587D01*
Y2154D01*
D02*
G37*
G36*
X4555Y2103D02*
X4514D01*
Y2063D01*
X4555D01*
Y2103D01*
D02*
G37*
G36*
X3587D02*
X3546D01*
Y2063D01*
X3587D01*
Y2103D01*
D02*
G37*
G36*
X6109Y1722D02*
X6107D01*
Y1678D01*
X6151D01*
Y1680D01*
X6147Y1692D01*
X6141Y1703D01*
X6132Y1712D01*
X6121Y1718D01*
X6109Y1722D01*
D02*
G37*
G36*
X6097D02*
X6096D01*
X6084Y1718D01*
X6073Y1712D01*
X6064Y1703D01*
X6057Y1692D01*
X6054Y1680D01*
Y1678D01*
X6097D01*
Y1722D01*
D02*
G37*
G36*
X6151Y1668D02*
X6107D01*
Y1625D01*
X6109D01*
X6121Y1628D01*
X6132Y1635D01*
X6141Y1644D01*
X6147Y1655D01*
X6151Y1667D01*
Y1668D01*
D02*
G37*
G36*
X6097D02*
X6054D01*
Y1667D01*
X6057Y1655D01*
X6064Y1644D01*
X6073Y1635D01*
X6084Y1628D01*
X6096Y1625D01*
X6097D01*
Y1668D01*
D02*
G37*
G36*
X6156Y1531D02*
X6048D01*
Y1422D01*
X6156D01*
Y1531D01*
D02*
G37*
G36*
X5224Y1357D02*
X5209D01*
X5194Y1354D01*
X5180Y1348D01*
X5167Y1339D01*
X5157Y1329D01*
X5148Y1316D01*
X5142Y1302D01*
X5139Y1287D01*
Y1272D01*
X5142Y1257D01*
X5148Y1243D01*
X5157Y1230D01*
X5167Y1220D01*
X5180Y1211D01*
X5194Y1205D01*
X5209Y1202D01*
X5224D01*
X5239Y1205D01*
X5253Y1211D01*
X5266Y1220D01*
X5276Y1230D01*
X5285Y1243D01*
X5291Y1257D01*
X5294Y1272D01*
Y1287D01*
X5291Y1302D01*
X5285Y1316D01*
X5276Y1329D01*
X5266Y1339D01*
X5253Y1348D01*
X5239Y1354D01*
X5224Y1357D01*
D02*
G37*
G36*
X3748D02*
X3733D01*
X3718Y1354D01*
X3704Y1348D01*
X3691Y1339D01*
X3680Y1329D01*
X3672Y1316D01*
X3666Y1302D01*
X3663Y1287D01*
Y1272D01*
X3666Y1257D01*
X3672Y1243D01*
X3680Y1230D01*
X3691Y1220D01*
X3704Y1211D01*
X3718Y1205D01*
X3733Y1202D01*
X3748D01*
X3763Y1205D01*
X3777Y1211D01*
X3789Y1220D01*
X3800Y1230D01*
X3808Y1243D01*
X3814Y1257D01*
X3817Y1272D01*
Y1287D01*
X3814Y1302D01*
X3808Y1316D01*
X3800Y1329D01*
X3789Y1339D01*
X3777Y1348D01*
X3763Y1354D01*
X3748Y1357D01*
D02*
G37*
G36*
X5224Y957D02*
X5222D01*
Y891D01*
X5288D01*
Y893D01*
X5285Y907D01*
X5280Y920D01*
X5272Y931D01*
X5262Y941D01*
X5250Y949D01*
X5237Y954D01*
X5224Y957D01*
D02*
G37*
G36*
X5212D02*
X5210D01*
X5196Y954D01*
X5183Y949D01*
X5171Y941D01*
X5161Y931D01*
X5153Y920D01*
X5148Y907D01*
X5145Y893D01*
Y891D01*
X5212D01*
Y957D01*
D02*
G37*
G36*
X3747D02*
X3745D01*
Y891D01*
X3811D01*
Y893D01*
X3809Y907D01*
X3803Y920D01*
X3796Y931D01*
X3786Y941D01*
X3774Y949D01*
X3761Y954D01*
X3747Y957D01*
D02*
G37*
G36*
X3735D02*
X3733D01*
X3719Y954D01*
X3706Y949D01*
X3695Y941D01*
X3685Y931D01*
X3677Y920D01*
X3672Y907D01*
X3669Y893D01*
Y891D01*
X3735D01*
Y957D01*
D02*
G37*
G36*
X5288Y881D02*
X5222D01*
Y814D01*
X5224D01*
X5237Y817D01*
X5250Y823D01*
X5262Y830D01*
X5272Y840D01*
X5280Y852D01*
X5285Y865D01*
X5288Y879D01*
Y881D01*
D02*
G37*
G36*
X5212D02*
X5145D01*
Y879D01*
X5148Y865D01*
X5153Y852D01*
X5161Y840D01*
X5171Y830D01*
X5183Y823D01*
X5196Y817D01*
X5210Y814D01*
X5212D01*
Y881D01*
D02*
G37*
G36*
X3811Y881D02*
X3745D01*
Y814D01*
X3747D01*
X3761Y817D01*
X3774Y823D01*
X3786Y830D01*
X3796Y840D01*
X3803Y852D01*
X3809Y865D01*
X3811Y879D01*
Y881D01*
D02*
G37*
G36*
X3735D02*
X3669D01*
Y879D01*
X3672Y865D01*
X3677Y852D01*
X3685Y840D01*
X3695Y830D01*
X3706Y823D01*
X3719Y817D01*
X3733Y814D01*
X3735D01*
Y881D01*
D02*
G37*
G36*
X6109Y737D02*
X6107D01*
Y694D01*
X6151D01*
Y695D01*
X6147Y708D01*
X6141Y719D01*
X6132Y728D01*
X6121Y734D01*
X6109Y737D01*
D02*
G37*
G36*
X6097D02*
X6096D01*
X6084Y734D01*
X6073Y728D01*
X6064Y719D01*
X6057Y708D01*
X6054Y695D01*
Y694D01*
X6097D01*
Y737D01*
D02*
G37*
G36*
X6151Y684D02*
X6107D01*
Y641D01*
X6109D01*
X6121Y644D01*
X6132Y650D01*
X6141Y659D01*
X6147Y670D01*
X6151Y683D01*
Y684D01*
D02*
G37*
G36*
X6097D02*
X6054D01*
Y683D01*
X6057Y670D01*
X6064Y659D01*
X6073Y650D01*
X6084Y644D01*
X6096Y641D01*
X6097D01*
Y684D01*
D02*
G37*
G36*
X6156Y546D02*
X6048D01*
Y438D01*
X6156D01*
Y546D01*
D02*
G37*
%LPD*%
D35*
X3635Y2523D02*
D03*
Y2823D02*
D03*
X2667Y2523D02*
D03*
Y2823D02*
D03*
X4602Y2523D02*
D03*
Y2823D02*
D03*
X5118Y2668D02*
D03*
Y2968D02*
D03*
D36*
X4199Y3743D02*
D03*
Y3643D02*
D03*
X3281Y3743D02*
D03*
Y3643D02*
D03*
X2362Y3743D02*
D03*
Y3643D02*
D03*
X5118Y3742D02*
D03*
Y3642D02*
D03*
D37*
X4199Y3543D02*
D03*
X3281D02*
D03*
X2362D02*
D03*
X5118Y3542D02*
D03*
D38*
X3692Y2108D02*
D03*
X4660D02*
D03*
X2854Y2476D02*
D03*
D39*
X3592Y2108D02*
D03*
X4560D02*
D03*
X2954Y2476D02*
D03*
D40*
X4292Y2528D02*
D03*
Y2828D02*
D03*
X3322Y2528D02*
D03*
Y2828D02*
D03*
X2352Y2528D02*
D03*
Y2828D02*
D03*
X6102Y2459D02*
D03*
Y2559D02*
D03*
D41*
X5413Y4346D02*
D03*
X4823D02*
D03*
X1476D02*
D03*
X4044Y4364D02*
D03*
X3351D02*
D03*
X2657D02*
D03*
D42*
X5217Y4346D02*
D03*
X4626D02*
D03*
X6102Y1673D02*
D03*
Y689D02*
D03*
Y3346D02*
D03*
X295Y2575D02*
D03*
Y3280D02*
D03*
X1280Y4346D02*
D03*
X3651Y4364D02*
D03*
X3847D02*
D03*
X2957D02*
D03*
X3154D02*
D03*
X2264D02*
D03*
X2461D02*
D03*
X6102Y4134D02*
D03*
D43*
Y1476D02*
D03*
Y492D02*
D03*
Y3150D02*
D03*
X295Y2771D02*
D03*
Y3476D02*
D03*
X6102Y3937D02*
D03*
D44*
X3740Y886D02*
D03*
Y1280D02*
D03*
X5217D02*
D03*
Y886D02*
D03*
D45*
X1738Y3272D02*
D03*
X361Y4346D02*
D03*
D46*
X1738Y2814D02*
D03*
D47*
X1178Y3488D02*
D03*
Y3193D02*
D03*
Y2898D02*
D03*
D48*
Y2504D02*
D03*
D49*
X820Y4346D02*
D03*
D50*
X6102Y2359D02*
D03*
D51*
X5413Y2673D02*
D03*
D52*
X5492D02*
D03*
M02*
