G04*
G04 #@! TF.GenerationSoftware,Altium Limited,Altium Designer,22.8.2 (66)*
G04*
G04 Layer_Physical_Order=1*
G04 Layer_Color=255*
%FSLAX23Y23*%
%MOIN*%
G70*
G04*
G04 #@! TF.SameCoordinates,F145B31D-5F06-4ADD-9487-259E193C171D*
G04*
G04*
G04 #@! TF.FilePolarity,Positive*
G04*
G01*
G75*
%ADD13C,0.028*%
%ADD33C,0.039*%
%ADD34C,0.079*%
%ADD35C,0.055*%
%ADD36C,0.063*%
%ADD37R,0.063X0.063*%
%ADD38C,0.071*%
%ADD39R,0.071X0.071*%
%ADD40C,0.047*%
%ADD41R,0.077X0.077*%
%ADD42C,0.077*%
%ADD43R,0.077X0.077*%
%ADD44C,0.123*%
%ADD45C,0.059*%
%ADD46R,0.059X0.059*%
%ADD47C,0.089*%
%ADD48R,0.089X0.089*%
%ADD49R,0.059X0.059*%
%ADD50R,0.047X0.047*%
%ADD51R,0.041X0.041*%
%ADD52C,0.041*%
D13*
X3276Y3643D02*
X3281D01*
X3150Y3517D02*
X3276Y3643D01*
X3150Y3001D02*
Y3517D01*
X3291Y3643D02*
X3296D01*
X4138Y3587D02*
X4195Y3643D01*
X4199D01*
X4035Y3455D02*
X4138Y3558D01*
Y3587D01*
X4035Y3085D02*
Y3455D01*
X5118Y2668D02*
X5120Y2671D01*
X4035Y3085D02*
X4292Y2828D01*
X5120Y2671D02*
X5411D01*
X5413Y2673D01*
X3635Y2347D02*
Y2523D01*
Y2347D02*
X3692Y2289D01*
Y2108D02*
Y2289D01*
X3325Y2826D02*
X3632D01*
X3322Y2828D02*
X3325Y2826D01*
X3632D02*
X3635Y2823D01*
X2795Y2523D02*
X2842Y2476D01*
X2667Y2523D02*
X2795D01*
X2842Y2476D02*
X2854D01*
X2355Y2826D02*
X2665D01*
X2352Y2828D02*
X2355Y2826D01*
X2665D02*
X2667Y2823D01*
X3150Y3001D02*
X3322Y2828D01*
X2165Y3015D02*
X2352Y2828D01*
X2165Y3451D02*
X2357Y3643D01*
X2362D01*
X2165Y3015D02*
Y3451D01*
X820Y4346D02*
X838Y4364D01*
X341Y4351D02*
X343Y4349D01*
D33*
X4602Y2347D02*
X4660Y2289D01*
X4602Y2347D02*
Y2523D01*
X4660Y2108D02*
Y2289D01*
X5118Y2968D02*
Y3542D01*
X5118Y2968D02*
X5118Y2968D01*
Y3542D02*
X5118Y3542D01*
Y3642D02*
X5315D01*
X5663Y3294D01*
Y2923D02*
Y3294D01*
Y2923D02*
X5889Y3150D01*
X5436Y2696D02*
X5663Y2923D01*
X5217Y3740D02*
Y3839D01*
X5118Y3642D02*
X5217Y3740D01*
X4823Y4232D02*
Y4346D01*
Y4232D02*
X5217Y3839D01*
X4332Y4528D02*
X5118Y3742D01*
X6201Y1280D02*
Y3352D01*
X6004Y1083D02*
X6201Y1280D01*
X5906Y1083D02*
X6004D01*
X5217Y1772D02*
X5906Y1083D01*
X5512Y886D02*
Y1280D01*
Y886D02*
X5906Y492D01*
X5217Y1575D02*
X5512Y1280D01*
X6102Y3451D02*
X6201Y3352D01*
X6102Y3451D02*
Y3937D01*
X5512Y1772D02*
X5807Y1476D01*
X5512Y1772D02*
Y1914D01*
X5807Y1476D02*
X6102D01*
X4429Y1772D02*
X5217D01*
X4134Y2067D02*
X4429Y1772D01*
X4134Y2067D02*
Y2324D01*
X3635Y2823D02*
X4134Y2324D01*
X5823Y3937D02*
X6102D01*
X5413Y4346D02*
X5823Y3937D01*
X4602Y2823D02*
X5512Y1914D01*
X4921Y2681D02*
X5080Y2522D01*
X5940D01*
X6102Y2359D01*
X4921Y2681D02*
Y2771D01*
X5118Y2968D01*
X5436Y2696D02*
Y2696D01*
X5413Y2673D02*
X5436Y2696D01*
X5889Y3150D02*
X6102D01*
X3543Y1575D02*
X5217D01*
X5906Y492D02*
X6102D01*
X4593Y2828D02*
X4598Y2823D01*
X4292Y2828D02*
X4593D01*
X4598Y2823D02*
X4602D01*
X3445Y1673D02*
Y2165D01*
X2787Y2823D02*
X3445Y2165D01*
Y1673D02*
X3543Y1575D01*
X2667Y2823D02*
X2787D01*
X1911Y2814D02*
X3445Y1280D01*
X3740D01*
X1738Y2814D02*
X1911D01*
X3740Y1280D02*
X5217D01*
X3814Y4528D02*
X4332D01*
X3651Y4364D02*
X3814Y4528D01*
X3121D02*
X3487D01*
X3651Y4364D01*
X2957D02*
X3121Y4528D01*
X2427D02*
X2794D01*
X2957Y4364D01*
X2264D02*
X2427Y4528D01*
X4044Y4364D02*
X4229Y4179D01*
Y3743D02*
Y4179D01*
X3296Y4309D02*
X3351Y4364D01*
X3296Y3743D02*
Y4309D01*
X2657Y4039D02*
Y4364D01*
X2362Y3743D02*
X2657Y4039D01*
X1738Y3838D02*
X2264Y4364D01*
X1738Y3272D02*
Y3838D01*
X1428Y2504D02*
X1738Y2814D01*
X1178Y2504D02*
X1428D01*
X855Y2575D02*
X1178Y2898D01*
X295Y2575D02*
X855D01*
X756Y2771D02*
X1178Y3193D01*
X295Y2771D02*
X756D01*
D34*
X820Y4346D02*
X1280D01*
X410Y3280D02*
X1476Y4346D01*
X295Y3280D02*
X410D01*
X295Y3476D02*
Y4280D01*
X361Y4346D01*
D35*
X3635Y2523D02*
D03*
Y2823D02*
D03*
X2667Y2523D02*
D03*
Y2823D02*
D03*
X4602Y2523D02*
D03*
Y2823D02*
D03*
X5118Y2668D02*
D03*
Y2968D02*
D03*
D36*
X4199Y3743D02*
D03*
Y3643D02*
D03*
X3281Y3743D02*
D03*
Y3643D02*
D03*
X2362Y3743D02*
D03*
Y3643D02*
D03*
X5118Y3742D02*
D03*
Y3642D02*
D03*
D37*
X4199Y3543D02*
D03*
X3281D02*
D03*
X2362D02*
D03*
X5118Y3542D02*
D03*
D38*
X3692Y2108D02*
D03*
X4660D02*
D03*
X2854Y2476D02*
D03*
D39*
X3592Y2108D02*
D03*
X4560D02*
D03*
X2954Y2476D02*
D03*
D40*
X4292Y2528D02*
D03*
Y2828D02*
D03*
X3322Y2528D02*
D03*
Y2828D02*
D03*
X2352Y2528D02*
D03*
Y2828D02*
D03*
X6102Y2459D02*
D03*
Y2559D02*
D03*
D41*
X5413Y4346D02*
D03*
X4823D02*
D03*
X1476D02*
D03*
X4044Y4364D02*
D03*
X3351D02*
D03*
X2657D02*
D03*
D42*
X5217Y4346D02*
D03*
X4626D02*
D03*
X6102Y1673D02*
D03*
Y689D02*
D03*
Y3346D02*
D03*
X295Y2575D02*
D03*
Y3280D02*
D03*
X1280Y4346D02*
D03*
X3651Y4364D02*
D03*
X3847D02*
D03*
X2957D02*
D03*
X3154D02*
D03*
X2264D02*
D03*
X2461D02*
D03*
X6102Y4134D02*
D03*
D43*
Y1476D02*
D03*
Y492D02*
D03*
Y3150D02*
D03*
X295Y2771D02*
D03*
Y3476D02*
D03*
X6102Y3937D02*
D03*
D44*
X3740Y886D02*
D03*
Y1280D02*
D03*
X5217D02*
D03*
Y886D02*
D03*
D45*
X1738Y3272D02*
D03*
X361Y4346D02*
D03*
D46*
X1738Y2814D02*
D03*
D47*
X1178Y3488D02*
D03*
Y3193D02*
D03*
Y2898D02*
D03*
D48*
Y2504D02*
D03*
D49*
X820Y4346D02*
D03*
D50*
X6102Y2359D02*
D03*
D51*
X5413Y2673D02*
D03*
D52*
X5492D02*
D03*
M02*
