G04*
G04 #@! TF.GenerationSoftware,Altium Limited,Altium Designer,22.8.2 (66)*
G04*
G04 Layer_Physical_Order=1*
G04 Layer_Color=255*
%FSLAX23Y23*%
%MOIN*%
G70*
G04*
G04 #@! TF.SameCoordinates,084F0471-7D3E-4A55-8F91-789F4BEE5E10*
G04*
G04*
G04 #@! TF.FilePolarity,Positive*
G04*
G01*
G75*
%ADD14C,0.010*%
%ADD15C,0.006*%
%ADD39C,0.079*%
%ADD40C,0.047*%
%ADD41R,0.047X0.047*%
%ADD42C,0.077*%
%ADD43R,0.077X0.077*%
%ADD44C,0.063*%
%ADD45R,0.063X0.063*%
%ADD46C,0.157*%
%ADD47C,0.123*%
%ADD48O,0.099X0.097*%
%ADD49O,0.099X0.099*%
%ADD50C,0.055*%
%ADD51C,0.063*%
%ADD52R,0.063X0.063*%
%ADD53C,0.071*%
%ADD54R,0.071X0.071*%
%ADD55R,0.077X0.077*%
%ADD56C,0.059*%
%ADD57R,0.059X0.059*%
%ADD58C,0.089*%
%ADD59R,0.089X0.089*%
%ADD60R,0.059X0.059*%
%ADD61R,0.041X0.041*%
%ADD62C,0.041*%
%ADD63C,0.047*%
G36*
X3150Y1083D02*
X5217D01*
X5512Y787D01*
Y197D01*
X98D01*
Y2264D01*
X394Y2559D01*
X1076D01*
X1077Y2554D01*
X1073Y2551D01*
X1064Y2543D01*
X1058Y2533D01*
X1053Y2522D01*
X1051Y2512D01*
X1111D01*
X1171D01*
X1169Y2522D01*
X1165Y2533D01*
X1158Y2543D01*
X1150Y2551D01*
X1145Y2554D01*
X1147Y2559D01*
X1870D01*
X3150Y1083D01*
D02*
G37*
%LPC*%
G36*
X1171Y2496D02*
X1119D01*
Y2444D01*
X1129Y2446D01*
X1140Y2450D01*
X1150Y2457D01*
X1158Y2466D01*
X1165Y2475D01*
X1169Y2486D01*
X1171Y2496D01*
D02*
G37*
G36*
X1103D02*
X1051D01*
X1053Y2486D01*
X1058Y2475D01*
X1064Y2466D01*
X1073Y2457D01*
X1082Y2450D01*
X1093Y2446D01*
X1103Y2444D01*
Y2496D01*
D02*
G37*
G36*
X2308Y1595D02*
X969D01*
Y1461D01*
X2308D01*
Y1595D01*
D02*
G37*
G36*
X1478Y1375D02*
X969D01*
Y1264D01*
X1478D01*
Y1375D01*
D02*
G37*
G36*
X2824Y1335D02*
X2806D01*
X2787Y1331D01*
X2770Y1324D01*
X2755Y1314D01*
X2742Y1300D01*
X2731Y1285D01*
X2724Y1268D01*
X2721Y1249D01*
Y1231D01*
X2724Y1213D01*
X2731Y1195D01*
X2742Y1180D01*
X2755Y1167D01*
X2770Y1156D01*
X2787Y1149D01*
X2806Y1146D01*
X2824D01*
X2843Y1149D01*
X2860Y1156D01*
X2875Y1167D01*
X2888Y1180D01*
X2899Y1195D01*
X2906Y1213D01*
X2909Y1231D01*
Y1249D01*
X2906Y1268D01*
X2899Y1285D01*
X2888Y1300D01*
X2875Y1314D01*
X2860Y1324D01*
X2843Y1331D01*
X2824Y1335D01*
D02*
G37*
G36*
X344Y1335D02*
X325D01*
X307Y1331D01*
X290Y1324D01*
X274Y1314D01*
X261Y1300D01*
X251Y1285D01*
X244Y1268D01*
X240Y1249D01*
Y1231D01*
X244Y1213D01*
X251Y1195D01*
X261Y1180D01*
X274Y1167D01*
X290Y1156D01*
X307Y1149D01*
X325Y1146D01*
X344D01*
X362Y1149D01*
X379Y1156D01*
X395Y1167D01*
X408Y1180D01*
X418Y1195D01*
X425Y1213D01*
X429Y1231D01*
Y1249D01*
X425Y1268D01*
X418Y1285D01*
X408Y1300D01*
X395Y1314D01*
X379Y1324D01*
X362Y1331D01*
X344Y1335D01*
D02*
G37*
G36*
X5224Y963D02*
Y894D01*
X5294D01*
X5291Y908D01*
X5285Y922D01*
X5276Y935D01*
X5266Y946D01*
X5253Y954D01*
X5239Y960D01*
X5224Y963D01*
D02*
G37*
G36*
X5209D02*
X5194Y960D01*
X5180Y954D01*
X5167Y946D01*
X5157Y935D01*
X5148Y922D01*
X5142Y908D01*
X5140Y894D01*
X5209D01*
Y963D01*
D02*
G37*
G36*
X3748D02*
Y894D01*
X3817D01*
X3814Y908D01*
X3808Y922D01*
X3800Y935D01*
X3789Y946D01*
X3777Y954D01*
X3763Y960D01*
X3748Y963D01*
D02*
G37*
G36*
X3732D02*
X3718Y960D01*
X3704Y954D01*
X3691Y946D01*
X3680Y935D01*
X3672Y922D01*
X3666Y908D01*
X3663Y894D01*
X3732D01*
Y963D01*
D02*
G37*
G36*
Y878D02*
X3663D01*
X3666Y863D01*
X3672Y849D01*
X3680Y837D01*
X3691Y826D01*
X3704Y818D01*
X3718Y812D01*
X3732Y809D01*
Y878D01*
D02*
G37*
G36*
X5294Y878D02*
X5224D01*
Y809D01*
X5239Y812D01*
X5253Y818D01*
X5266Y826D01*
X5276Y837D01*
X5285Y849D01*
X5291Y863D01*
X5294Y878D01*
D02*
G37*
G36*
X5209D02*
X5140D01*
X5142Y863D01*
X5148Y849D01*
X5157Y837D01*
X5167Y826D01*
X5180Y818D01*
X5194Y812D01*
X5209Y809D01*
Y878D01*
D02*
G37*
G36*
X3817Y878D02*
X3748D01*
Y809D01*
X3763Y812D01*
X3777Y818D01*
X3789Y826D01*
X3800Y837D01*
X3808Y849D01*
X3814Y863D01*
X3817Y878D01*
D02*
G37*
G36*
X4534Y459D02*
X4521D01*
X4509Y456D01*
X4497Y451D01*
X4486Y444D01*
X4482Y440D01*
X4481Y439D01*
X4481Y439D01*
X4477Y435D01*
X4474Y431D01*
X4473Y430D01*
X4472Y428D01*
X4470Y424D01*
X4468Y421D01*
X4467Y418D01*
X4466Y416D01*
X4465Y413D01*
X4464Y409D01*
X4463Y406D01*
X4463Y403D01*
X4463Y400D01*
Y397D01*
X4462Y394D01*
X4463Y391D01*
Y387D01*
X4463Y384D01*
X4463Y381D01*
X4464Y378D01*
X4465Y375D01*
X4466Y371D01*
X4467Y369D01*
X4468Y367D01*
X4470Y363D01*
X4472Y359D01*
X4473Y358D01*
X4474Y357D01*
X4477Y352D01*
X4481Y349D01*
X4481Y348D01*
X4482Y348D01*
X4486Y343D01*
X4497Y336D01*
X4509Y331D01*
X4521Y329D01*
X4534D01*
X4547Y331D01*
X4558Y336D01*
X4569Y343D01*
X4573Y348D01*
X4574Y348D01*
X4574Y349D01*
X4578Y352D01*
X4581Y357D01*
X4582Y358D01*
X4583Y359D01*
X4585Y363D01*
X4587Y367D01*
X4588Y369D01*
X4589Y371D01*
X4590Y375D01*
X4591Y378D01*
X4592Y381D01*
X4592Y384D01*
X4593Y387D01*
Y391D01*
X4593Y394D01*
X4593Y397D01*
Y400D01*
X4592Y403D01*
X4592Y406D01*
X4591Y409D01*
X4590Y413D01*
X4589Y416D01*
X4588Y418D01*
X4587Y421D01*
X4585Y424D01*
X4583Y428D01*
X4582Y430D01*
X4581Y431D01*
X4578Y435D01*
X4574Y439D01*
X4574Y439D01*
X4573Y440D01*
X4569Y444D01*
X4558Y451D01*
X4547Y456D01*
X4534Y459D01*
D02*
G37*
%LPD*%
D14*
X997Y1335D02*
Y1338D01*
X1000Y1344D01*
X1003Y1347D01*
X1009Y1350D01*
X1020D01*
X1026Y1347D01*
X1029Y1344D01*
X1031Y1338D01*
Y1332D01*
X1029Y1327D01*
X1023Y1318D01*
X994Y1290D01*
X1034D01*
X1065Y1350D02*
X1056Y1347D01*
X1051Y1338D01*
X1048Y1324D01*
Y1315D01*
X1051Y1301D01*
X1056Y1292D01*
X1065Y1290D01*
X1071D01*
X1079Y1292D01*
X1085Y1301D01*
X1088Y1315D01*
Y1324D01*
X1085Y1338D01*
X1079Y1347D01*
X1071Y1350D01*
X1065D01*
X1104Y1335D02*
Y1338D01*
X1107Y1344D01*
X1110Y1347D01*
X1115Y1350D01*
X1127D01*
X1133Y1347D01*
X1135Y1344D01*
X1138Y1338D01*
Y1332D01*
X1135Y1327D01*
X1130Y1318D01*
X1101Y1290D01*
X1141D01*
X1172Y1350D02*
X1163Y1347D01*
X1157Y1338D01*
X1155Y1324D01*
Y1315D01*
X1157Y1301D01*
X1163Y1292D01*
X1172Y1290D01*
X1177D01*
X1186Y1292D01*
X1192Y1301D01*
X1194Y1315D01*
Y1324D01*
X1192Y1338D01*
X1186Y1347D01*
X1177Y1350D01*
X1172D01*
X1211Y1335D02*
Y1338D01*
X1214Y1344D01*
X1216Y1347D01*
X1222Y1350D01*
X1234D01*
X1239Y1347D01*
X1242Y1344D01*
X1245Y1338D01*
Y1332D01*
X1242Y1327D01*
X1236Y1318D01*
X1208Y1290D01*
X1248D01*
X1261Y1338D02*
X1267Y1341D01*
X1276Y1350D01*
Y1290D01*
X1345Y1350D02*
X1317Y1290D01*
X1305Y1350D02*
X1345D01*
X1376D02*
X1367Y1347D01*
X1362Y1338D01*
X1359Y1324D01*
Y1315D01*
X1362Y1301D01*
X1367Y1292D01*
X1376Y1290D01*
X1382D01*
X1390Y1292D01*
X1396Y1301D01*
X1399Y1315D01*
Y1324D01*
X1396Y1338D01*
X1390Y1347D01*
X1382Y1350D01*
X1376D01*
X1418D02*
X1449D01*
X1432Y1327D01*
X1441D01*
X1446Y1324D01*
X1449Y1321D01*
X1452Y1312D01*
Y1307D01*
X1449Y1298D01*
X1444Y1292D01*
X1435Y1290D01*
X1426D01*
X1418Y1292D01*
X1415Y1295D01*
X1412Y1301D01*
X1023Y1566D02*
Y1521D01*
X1020Y1512D01*
X1017Y1509D01*
X1011Y1506D01*
X1006D01*
X1000Y1509D01*
X997Y1512D01*
X994Y1521D01*
Y1526D01*
X1038Y1546D02*
Y1518D01*
X1041Y1509D01*
X1047Y1506D01*
X1055D01*
X1061Y1509D01*
X1070Y1518D01*
Y1546D02*
Y1506D01*
X1120Y1546D02*
Y1506D01*
Y1538D02*
X1114Y1544D01*
X1108Y1546D01*
X1100D01*
X1094Y1544D01*
X1088Y1538D01*
X1085Y1529D01*
Y1524D01*
X1088Y1515D01*
X1094Y1509D01*
X1100Y1506D01*
X1108D01*
X1114Y1509D01*
X1120Y1515D01*
X1136Y1546D02*
Y1506D01*
Y1535D02*
X1144Y1544D01*
X1150Y1546D01*
X1159D01*
X1164Y1544D01*
X1167Y1535D01*
Y1506D01*
X1270Y1558D02*
X1264Y1564D01*
X1256Y1566D01*
X1244D01*
X1236Y1564D01*
X1230Y1558D01*
Y1552D01*
X1233Y1546D01*
X1236Y1544D01*
X1241Y1541D01*
X1258Y1535D01*
X1264Y1532D01*
X1267Y1529D01*
X1270Y1524D01*
Y1515D01*
X1264Y1509D01*
X1256Y1506D01*
X1244D01*
X1236Y1509D01*
X1230Y1515D01*
X1283Y1529D02*
X1318D01*
Y1535D01*
X1315Y1541D01*
X1312Y1544D01*
X1306Y1546D01*
X1298D01*
X1292Y1544D01*
X1286Y1538D01*
X1283Y1529D01*
Y1524D01*
X1286Y1515D01*
X1292Y1509D01*
X1298Y1506D01*
X1306D01*
X1312Y1509D01*
X1318Y1515D01*
X1330Y1566D02*
Y1506D01*
Y1538D02*
X1336Y1544D01*
X1342Y1546D01*
X1350D01*
X1356Y1544D01*
X1362Y1538D01*
X1365Y1529D01*
Y1524D01*
X1362Y1515D01*
X1356Y1509D01*
X1350Y1506D01*
X1342D01*
X1336Y1509D01*
X1330Y1515D01*
X1412Y1546D02*
Y1506D01*
Y1538D02*
X1406Y1544D01*
X1400Y1546D01*
X1392D01*
X1386Y1544D01*
X1380Y1538D01*
X1378Y1529D01*
Y1524D01*
X1380Y1515D01*
X1386Y1509D01*
X1392Y1506D01*
X1400D01*
X1406Y1509D01*
X1412Y1515D01*
X1459Y1538D02*
X1456Y1544D01*
X1448Y1546D01*
X1439D01*
X1431Y1544D01*
X1428Y1538D01*
X1431Y1532D01*
X1436Y1529D01*
X1451Y1526D01*
X1456Y1524D01*
X1459Y1518D01*
Y1515D01*
X1456Y1509D01*
X1448Y1506D01*
X1439D01*
X1431Y1509D01*
X1428Y1515D01*
X1480Y1566D02*
Y1518D01*
X1483Y1509D01*
X1489Y1506D01*
X1495D01*
X1472Y1546D02*
X1492D01*
X1509Y1566D02*
X1512Y1564D01*
X1515Y1566D01*
X1512Y1569D01*
X1509Y1566D01*
X1512Y1546D02*
Y1506D01*
X1560Y1546D02*
Y1506D01*
Y1538D02*
X1554Y1544D01*
X1548Y1546D01*
X1540D01*
X1534Y1544D01*
X1528Y1538D01*
X1525Y1529D01*
Y1524D01*
X1528Y1515D01*
X1534Y1509D01*
X1540Y1506D01*
X1548D01*
X1554Y1509D01*
X1560Y1515D01*
X1576Y1546D02*
Y1506D01*
Y1535D02*
X1584Y1544D01*
X1590Y1546D01*
X1598D01*
X1604Y1544D01*
X1607Y1535D01*
Y1506D01*
X1687Y1566D02*
X1681Y1564D01*
X1676Y1558D01*
X1673Y1552D01*
X1670Y1544D01*
Y1529D01*
X1673Y1521D01*
X1676Y1515D01*
X1681Y1509D01*
X1687Y1506D01*
X1698D01*
X1704Y1509D01*
X1710Y1515D01*
X1713Y1521D01*
X1716Y1529D01*
Y1544D01*
X1713Y1552D01*
X1710Y1558D01*
X1704Y1564D01*
X1698Y1566D01*
X1687D01*
X1730Y1546D02*
Y1506D01*
Y1529D02*
X1732Y1538D01*
X1738Y1544D01*
X1744Y1546D01*
X1752D01*
X1766Y1566D02*
Y1518D01*
X1769Y1509D01*
X1775Y1506D01*
X1781D01*
X1758Y1546D02*
X1778D01*
X1789Y1529D02*
X1824D01*
Y1535D01*
X1821Y1541D01*
X1818Y1544D01*
X1812Y1546D01*
X1804D01*
X1798Y1544D01*
X1792Y1538D01*
X1789Y1529D01*
Y1524D01*
X1792Y1515D01*
X1798Y1509D01*
X1804Y1506D01*
X1812D01*
X1818Y1509D01*
X1824Y1515D01*
X1871Y1546D02*
Y1501D01*
X1868Y1492D01*
X1865Y1489D01*
X1859Y1486D01*
X1851D01*
X1845Y1489D01*
X1871Y1538D02*
X1865Y1544D01*
X1859Y1546D01*
X1851D01*
X1845Y1544D01*
X1839Y1538D01*
X1836Y1529D01*
Y1524D01*
X1839Y1515D01*
X1845Y1509D01*
X1851Y1506D01*
X1859D01*
X1865Y1509D01*
X1871Y1515D01*
X1921Y1546D02*
Y1506D01*
Y1538D02*
X1915Y1544D01*
X1909Y1546D01*
X1901D01*
X1895Y1544D01*
X1889Y1538D01*
X1887Y1529D01*
Y1524D01*
X1889Y1515D01*
X1895Y1509D01*
X1901Y1506D01*
X1909D01*
X1915Y1509D01*
X1921Y1515D01*
X1984Y1566D02*
Y1506D01*
Y1566D02*
X2010D01*
X2018Y1564D01*
X2021Y1561D01*
X2024Y1555D01*
Y1549D01*
X2021Y1544D01*
X2018Y1541D01*
X2010Y1538D01*
X1984D01*
X2004D02*
X2024Y1506D01*
X2052Y1546D02*
X2046Y1544D01*
X2040Y1538D01*
X2037Y1529D01*
Y1524D01*
X2040Y1515D01*
X2046Y1509D01*
X2052Y1506D01*
X2060D01*
X2066Y1509D01*
X2072Y1515D01*
X2075Y1524D01*
Y1529D01*
X2072Y1538D01*
X2066Y1544D01*
X2060Y1546D01*
X2052D01*
X2088D02*
Y1506D01*
Y1535D02*
X2096Y1544D01*
X2102Y1546D01*
X2111D01*
X2116Y1544D01*
X2119Y1535D01*
Y1506D01*
Y1535D02*
X2128Y1544D01*
X2133Y1546D01*
X2142D01*
X2148Y1544D01*
X2151Y1535D01*
Y1506D01*
X2169Y1529D02*
X2204D01*
Y1535D01*
X2201Y1541D01*
X2198Y1544D01*
X2192Y1546D01*
X2184D01*
X2178Y1544D01*
X2172Y1538D01*
X2169Y1529D01*
Y1524D01*
X2172Y1515D01*
X2178Y1509D01*
X2184Y1506D01*
X2192D01*
X2198Y1509D01*
X2204Y1515D01*
X2217Y1546D02*
Y1506D01*
Y1529D02*
X2219Y1538D01*
X2225Y1544D01*
X2231Y1546D01*
X2239D01*
X2259D02*
X2253Y1544D01*
X2248Y1538D01*
X2245Y1529D01*
Y1524D01*
X2248Y1515D01*
X2253Y1509D01*
X2259Y1506D01*
X2268D01*
X2273Y1509D01*
X2279Y1515D01*
X2282Y1524D01*
Y1529D01*
X2279Y1538D01*
X2273Y1544D01*
X2268Y1546D01*
X2259D01*
X6299Y4626D02*
X6299Y4626D01*
X98Y4626D02*
X98Y4626D01*
D15*
X2382Y3583D02*
X2342D01*
Y3603D01*
X2349Y3610D01*
X2362D01*
X2369Y3603D01*
Y3583D01*
Y3597D02*
X2382Y3610D01*
Y3643D02*
Y3630D01*
X2376Y3623D01*
X2362D01*
X2356Y3630D01*
Y3643D01*
X2362Y3650D01*
X2369D01*
Y3623D01*
X2396Y3677D02*
Y3683D01*
X2389Y3690D01*
X2356D01*
Y3670D01*
X2362Y3663D01*
X2376D01*
X2382Y3670D01*
Y3690D01*
X2349Y3703D02*
X2342Y3710D01*
Y3723D01*
X2349Y3730D01*
X2356D01*
X2362Y3723D01*
Y3717D01*
Y3723D01*
X2369Y3730D01*
X2376D01*
X2382Y3723D01*
Y3710D01*
X2376Y3703D01*
X2342Y3743D02*
X2369D01*
X2382Y3757D01*
X2369Y3770D01*
X2342D01*
X5138Y3582D02*
X5098D01*
Y3602D01*
X5105Y3608D01*
X5118D01*
X5125Y3602D01*
Y3582D01*
Y3595D02*
X5138Y3608D01*
Y3642D02*
Y3628D01*
X5131Y3622D01*
X5118D01*
X5111Y3628D01*
Y3642D01*
X5118Y3648D01*
X5125D01*
Y3622D01*
X5151Y3675D02*
Y3682D01*
X5145Y3688D01*
X5111D01*
Y3668D01*
X5118Y3662D01*
X5131D01*
X5138Y3668D01*
Y3688D01*
Y3702D02*
X5111D01*
X5098Y3715D01*
X5111Y3728D01*
X5138D01*
X5118D01*
Y3702D01*
X5098Y3768D02*
X5138D01*
Y3748D01*
X5131Y3742D01*
X5118D01*
X5111Y3748D01*
Y3768D01*
X5151Y3782D02*
Y3788D01*
X5145Y3795D01*
X5111D01*
X5098Y3822D02*
X5125D01*
X5138Y3835D01*
X5125Y3848D01*
X5098D01*
D39*
X6004Y492D02*
X6201Y689D01*
X6022Y1378D02*
X6201Y1199D01*
Y689D02*
Y1199D01*
X5315Y4528D02*
X5413Y4429D01*
X4333Y4328D02*
X4532Y4528D01*
X5315D01*
X6022Y1378D02*
Y1781D01*
X1111Y2292D02*
Y2504D01*
X6168Y263D02*
Y328D01*
X6004Y98D02*
X6168Y263D01*
X6004Y492D02*
X6168Y328D01*
X5807Y98D02*
X6004D01*
X5610Y295D02*
X5807Y98D01*
X5413Y295D02*
X5610D01*
X5709Y492D02*
X5906Y295D01*
X5709Y492D02*
Y689D01*
X5906Y295D02*
X6004D01*
X5512Y886D02*
Y1280D01*
X5217Y1575D02*
X5512Y1280D01*
Y886D02*
X5709Y689D01*
X3543Y1575D02*
X5217D01*
X6201Y1960D02*
Y2362D01*
X6022Y1781D02*
X6201Y1960D01*
X6101Y3348D02*
X6201Y3248D01*
X6004Y3348D02*
X6101D01*
X6201Y2362D02*
Y3248D01*
X6004Y2165D02*
X6201Y2362D01*
X5431Y1772D02*
X6022Y1181D01*
X4602Y2823D02*
X5457Y1969D01*
X6004D01*
X5663Y3392D02*
Y3578D01*
X6022Y3937D01*
X5315Y3740D02*
X5663Y3392D01*
X5217Y3642D02*
X5315Y3740D01*
X5118Y3642D02*
X5217D01*
X4823Y4232D02*
X5315Y3740D01*
X5413Y2673D02*
X5416Y2676D01*
Y2704D01*
X5746Y2522D02*
Y2890D01*
X6004Y3148D01*
X4333Y4328D02*
X4920Y3742D01*
X4134Y4528D02*
X4333Y4328D01*
X5413Y4346D02*
Y4429D01*
X5663Y3213D02*
Y3392D01*
X5232Y2782D02*
X5663Y3213D01*
X1427Y3124D02*
Y3172D01*
Y3124D02*
X1738Y2814D01*
X1111Y3488D02*
X1427Y3172D01*
X295Y2771D02*
X409Y2657D01*
X969D01*
X1111Y2799D01*
X98Y2771D02*
X295Y2575D01*
X98Y2771D02*
Y2854D01*
X339Y3095D01*
X1111D01*
X3487Y4528D02*
X4134D01*
X4920Y3742D02*
X5118D01*
X5118Y2668D02*
X5232Y2782D01*
X5341Y2673D02*
X5413D01*
X5232Y2782D02*
X5341Y2673D01*
X5080Y2522D02*
X5746D01*
X2362Y3743D02*
X2657Y4039D01*
Y4364D01*
X4044Y3898D02*
X4199Y3743D01*
X4044Y3898D02*
Y4364D01*
X4035Y3085D02*
Y3379D01*
X4199Y3543D01*
X3248Y3740D02*
X3351Y3843D01*
Y4364D01*
X3051Y3343D02*
X3248Y3540D01*
X3051Y3099D02*
Y3343D01*
Y3099D02*
X3322Y2828D01*
X2165Y3627D02*
X2181Y3643D01*
X2362D01*
X2165Y3015D02*
Y3627D01*
X3487Y4528D02*
X3651Y4364D01*
X2794Y4528D02*
X3487D01*
X2794D02*
X2957Y4364D01*
X2427Y4528D02*
X2794D01*
X2264Y4364D02*
X2427Y4528D01*
X4602Y2347D02*
X4660Y2289D01*
X4602Y2347D02*
Y2523D01*
X4660Y2108D02*
Y2289D01*
X5118Y2968D02*
Y3542D01*
X5118Y2968D02*
X5118Y2968D01*
Y3542D02*
X5118Y3542D01*
X4823Y4232D02*
Y4346D01*
X4429Y1772D02*
X5431D01*
X4134Y2067D02*
X4429Y1772D01*
X4134Y2067D02*
Y2324D01*
X3635Y2823D02*
X4134Y2324D01*
X4921Y2681D02*
X5080Y2522D01*
X4921Y2681D02*
Y2771D01*
X5118Y2968D01*
X4593Y2828D02*
X4598Y2823D01*
X4292Y2828D02*
X4593D01*
X4598Y2823D02*
X4602D01*
X3445Y1673D02*
Y2165D01*
X2787Y2823D02*
X3445Y2165D01*
Y1673D02*
X3543Y1575D01*
X2667Y2823D02*
X2787D01*
X4035Y3085D02*
X4292Y2828D01*
X1911Y2814D02*
X3445Y1280D01*
X3740D01*
X1738Y2814D02*
X1911D01*
X3635Y2347D02*
Y2523D01*
Y2347D02*
X3692Y2289D01*
Y2108D02*
Y2289D01*
X3325Y2826D02*
X3632D01*
X3322Y2828D02*
X3325Y2826D01*
X3632D02*
X3635Y2823D01*
X2795Y2523D02*
X2842Y2476D01*
X2667Y2523D02*
X2795D01*
X2842Y2476D02*
X2854D01*
X2355Y2826D02*
X2665D01*
X2352Y2828D02*
X2355Y2826D01*
X2665D02*
X2667Y2823D01*
X2165Y3015D02*
X2352Y2828D01*
X3740Y1280D02*
X5217D01*
X1738Y3838D02*
X2264Y4364D01*
X1738Y3272D02*
Y3838D01*
X820Y4346D02*
X1280D01*
X410Y3280D02*
X1476Y4346D01*
X295Y3280D02*
X410D01*
X295Y3476D02*
Y4280D01*
X361Y4346D01*
D40*
X6004Y3348D02*
D03*
Y3248D02*
D03*
X4292Y2528D02*
D03*
Y2828D02*
D03*
X3322Y2528D02*
D03*
Y2828D02*
D03*
X2352Y2528D02*
D03*
Y2828D02*
D03*
D41*
X6004Y3148D02*
D03*
D42*
X6022Y4134D02*
D03*
X6004Y2165D02*
D03*
X6022Y1378D02*
D03*
X5217Y4346D02*
D03*
X4626D02*
D03*
X6004Y492D02*
D03*
X295Y2575D02*
D03*
Y3280D02*
D03*
X1280Y4346D02*
D03*
X3651Y4364D02*
D03*
X3847D02*
D03*
X2957D02*
D03*
X3154D02*
D03*
X2264D02*
D03*
X2461D02*
D03*
D43*
X6022Y3937D02*
D03*
X6004Y1969D02*
D03*
X6022Y1181D02*
D03*
X6004Y295D02*
D03*
X295Y2771D02*
D03*
Y3476D02*
D03*
D44*
X4199Y3543D02*
D03*
Y3643D02*
D03*
X3248Y3540D02*
D03*
Y3640D02*
D03*
D45*
X4199Y3743D02*
D03*
X3248Y3740D02*
D03*
D46*
X2815Y1240D02*
D03*
X335D02*
D03*
D47*
X3740Y1280D02*
D03*
Y886D02*
D03*
X5217Y1280D02*
D03*
Y886D02*
D03*
D48*
X4528Y394D02*
D03*
X591Y3937D02*
D03*
D49*
X5610Y3740D02*
D03*
D50*
X3635Y2523D02*
D03*
Y2823D02*
D03*
X2667Y2523D02*
D03*
Y2823D02*
D03*
X4602Y2523D02*
D03*
Y2823D02*
D03*
X5118Y2668D02*
D03*
Y2968D02*
D03*
D51*
X2362Y3743D02*
D03*
Y3643D02*
D03*
X5118Y3742D02*
D03*
Y3642D02*
D03*
D52*
X2362Y3543D02*
D03*
X5118Y3542D02*
D03*
D53*
X3692Y2108D02*
D03*
X4660D02*
D03*
X2854Y2476D02*
D03*
D54*
X3592Y2108D02*
D03*
X4560D02*
D03*
X2954Y2476D02*
D03*
D55*
X5413Y4346D02*
D03*
X4823D02*
D03*
X1476D02*
D03*
X4044Y4364D02*
D03*
X3351D02*
D03*
X2657D02*
D03*
D56*
X1738Y3272D02*
D03*
X361Y4346D02*
D03*
D57*
X1738Y2814D02*
D03*
D58*
X1111Y2504D02*
D03*
Y2799D02*
D03*
Y3095D02*
D03*
D59*
Y3488D02*
D03*
D60*
X820Y4346D02*
D03*
D61*
X5413Y2673D02*
D03*
D62*
X5492D02*
D03*
D63*
X0Y0D02*
Y4626D01*
X0D02*
X6299D01*
X6299Y0D02*
Y4626D01*
X0Y0D02*
X6299D01*
M02*
