G04*
G04 #@! TF.GenerationSoftware,Altium Limited,Altium Designer,22.8.2 (66)*
G04*
G04 Layer_Color=128*
%FSLAX23Y23*%
%MOIN*%
G70*
G04*
G04 #@! TF.SameCoordinates,7F7B814F-A0D2-46ED-8E63-A2F04860B9E3*
G04*
G04*
G04 #@! TF.FilePolarity,Positive*
G04*
G01*
G75*
%ADD15C,0.047*%
%ADD16C,0.006*%
%ADD17C,0.002*%
D15*
X6299D01*
Y4626D01*
X0Y4626D02*
X6299D01*
X0Y0D02*
Y4626D01*
D16*
X2382Y3583D02*
X2342D01*
Y3603D01*
X2349Y3610D01*
X2362D01*
X2369Y3603D01*
Y3583D01*
Y3597D02*
X2382Y3610D01*
Y3643D02*
Y3630D01*
X2376Y3623D01*
X2362D01*
X2356Y3630D01*
Y3643D01*
X2362Y3650D01*
X2369D01*
Y3623D01*
X2396Y3677D02*
Y3683D01*
X2389Y3690D01*
X2356D01*
Y3670D01*
X2362Y3663D01*
X2376D01*
X2382Y3670D01*
Y3690D01*
X2349Y3703D02*
X2342Y3710D01*
Y3723D01*
X2349Y3730D01*
X2356D01*
X2362Y3723D01*
Y3717D01*
Y3723D01*
X2369Y3730D01*
X2376D01*
X2382Y3723D01*
Y3710D01*
X2376Y3703D01*
X2342Y3743D02*
X2369D01*
X2382Y3757D01*
X2369Y3770D01*
X2342D01*
X5138Y3582D02*
X5098D01*
Y3602D01*
X5105Y3608D01*
X5118D01*
X5125Y3602D01*
Y3582D01*
Y3595D02*
X5138Y3608D01*
Y3642D02*
Y3628D01*
X5131Y3622D01*
X5118D01*
X5111Y3628D01*
Y3642D01*
X5118Y3648D01*
X5125D01*
Y3622D01*
X5151Y3675D02*
Y3682D01*
X5145Y3688D01*
X5111D01*
Y3668D01*
X5118Y3662D01*
X5131D01*
X5138Y3668D01*
Y3688D01*
Y3702D02*
X5111D01*
X5098Y3715D01*
X5111Y3728D01*
X5138D01*
X5118D01*
Y3702D01*
X5098Y3768D02*
X5138D01*
Y3748D01*
X5131Y3742D01*
X5118D01*
X5111Y3748D01*
Y3768D01*
X5151Y3782D02*
Y3788D01*
X5145Y3795D01*
X5111D01*
X5098Y3822D02*
X5125D01*
X5138Y3835D01*
X5125Y3848D01*
X5098D01*
D17*
X5990Y3348D02*
X6018D01*
X6004Y3334D02*
Y3362D01*
X5990Y3248D02*
X6018D01*
X6004Y3234D02*
Y3262D01*
X5990Y3148D02*
X6018D01*
X6004Y3134D02*
Y3162D01*
X5996Y4134D02*
X6047D01*
X6022Y4108D02*
Y4159D01*
X5996Y3937D02*
X6047D01*
X6022Y3911D02*
Y3963D01*
X5978Y2165D02*
X6030D01*
X6004Y2140D02*
Y2191D01*
X5978Y1969D02*
X6030D01*
X6004Y1943D02*
Y1994D01*
X5996Y1181D02*
X6047D01*
X6022Y1156D02*
Y1207D01*
X5996Y1378D02*
X6047D01*
X6022Y1352D02*
Y1404D01*
X4180Y3543D02*
X4219D01*
X4199Y3524D02*
Y3563D01*
X4180Y3643D02*
X4219D01*
X4199Y3624D02*
Y3663D01*
X4180Y3743D02*
X4219D01*
X4199Y3724D02*
Y3763D01*
X3228Y3540D02*
X3268D01*
X3248Y3520D02*
Y3560D01*
X3228Y3640D02*
X3268D01*
X3248Y3620D02*
Y3660D01*
X3228Y3740D02*
X3268D01*
X3248Y3720D02*
Y3760D01*
X2736Y1240D02*
X2894D01*
X2815Y1161D02*
Y1319D01*
X256Y1240D02*
X413D01*
X335Y1161D02*
Y1319D01*
X3699Y1280D02*
X3781D01*
X3740Y1238D02*
Y1321D01*
X3699Y886D02*
X3781D01*
X3740Y844D02*
Y927D01*
X4478Y394D02*
X4577D01*
X4528Y344D02*
Y443D01*
X541Y3937D02*
X640D01*
X591Y3888D02*
Y3986D01*
X5561Y3740D02*
X5659D01*
X5610Y3691D02*
Y3789D01*
X3618Y2523D02*
X3651D01*
X3635Y2507D02*
Y2540D01*
X3618Y2823D02*
X3651D01*
X3635Y2807D02*
Y2840D01*
X2650Y2523D02*
X2684D01*
X2667Y2507D02*
Y2540D01*
X2650Y2823D02*
X2684D01*
X2667Y2807D02*
Y2840D01*
X4585Y2523D02*
X4619D01*
X4602Y2507D02*
Y2540D01*
X4585Y2823D02*
X4619D01*
X4602Y2807D02*
Y2840D01*
X2343Y3743D02*
X2382D01*
X2362Y3724D02*
Y3763D01*
X2343Y3643D02*
X2382D01*
X2362Y3624D02*
Y3663D01*
X2343Y3543D02*
X2382D01*
X2362Y3524D02*
Y3563D01*
X3668Y2108D02*
X3716D01*
X3692Y2084D02*
Y2132D01*
X3568Y2108D02*
X3616D01*
X3592Y2084D02*
Y2132D01*
X4636Y2108D02*
X4683D01*
X4660Y2084D02*
Y2132D01*
X4536Y2108D02*
X4583D01*
X4560Y2084D02*
Y2132D01*
X4278Y2528D02*
X4306D01*
X4292Y2515D02*
Y2542D01*
X4278Y2828D02*
X4306D01*
X4292Y2815D02*
Y2842D01*
X3308Y2528D02*
X3336D01*
X3322Y2515D02*
Y2542D01*
X3308Y2828D02*
X3336D01*
X3322Y2815D02*
Y2842D01*
X2338Y2528D02*
X2366D01*
X2352Y2515D02*
Y2542D01*
X2338Y2828D02*
X2366D01*
X2352Y2815D02*
Y2842D01*
X5388Y4346D02*
X5439D01*
X5413Y4321D02*
Y4372D01*
X5191Y4346D02*
X5242D01*
X5217Y4321D02*
Y4372D01*
X4797Y4346D02*
X4848D01*
X4823Y4321D02*
Y4372D01*
X4600Y4346D02*
X4652D01*
X4626Y4321D02*
Y4372D01*
X5098Y3742D02*
X5138D01*
X5118Y3722D02*
Y3761D01*
X5098Y3642D02*
X5138D01*
X5118Y3622D02*
Y3661D01*
X5098Y3542D02*
X5138D01*
X5118Y3522D02*
Y3561D01*
X5175Y1280D02*
X5258D01*
X5217Y1238D02*
Y1321D01*
X5175Y886D02*
X5258D01*
X5217Y844D02*
Y927D01*
X5978Y295D02*
X6030D01*
X6004Y270D02*
Y321D01*
X5978Y492D02*
X6030D01*
X6004Y467D02*
Y518D01*
X2831Y2476D02*
X2878D01*
X2854Y2452D02*
Y2500D01*
X2931Y2476D02*
X2978D01*
X2954Y2452D02*
Y2500D01*
X270Y2575D02*
X321D01*
X295Y2549D02*
Y2600D01*
X270Y2771D02*
X321D01*
X295Y2746D02*
Y2797D01*
X270Y3280D02*
X321D01*
X295Y3254D02*
Y3305D01*
X270Y3476D02*
X321D01*
X295Y3451D02*
Y3502D01*
X1720Y3272D02*
X1756D01*
X1738Y3255D02*
Y3290D01*
X1720Y2814D02*
X1756D01*
X1738Y2796D02*
Y2831D01*
X1081Y2504D02*
X1141D01*
X1111Y2474D02*
Y2534D01*
X1081Y2799D02*
X1141D01*
X1111Y2770D02*
Y2829D01*
X1081Y3095D02*
X1141D01*
X1111Y3065D02*
Y3124D01*
X1081Y3488D02*
X1141D01*
X1111Y3459D02*
Y3518D01*
X1254Y4346D02*
X1305D01*
X1280Y4321D02*
Y4372D01*
X1451Y4346D02*
X1502D01*
X1476Y4321D02*
Y4372D01*
X344Y4346D02*
X379D01*
X361Y4329D02*
Y4364D01*
X802Y4346D02*
X838D01*
X820Y4329D02*
Y4364D01*
X3625Y4364D02*
X3676D01*
X3651Y4338D02*
Y4390D01*
X4019Y4364D02*
X4070D01*
X4044Y4338D02*
Y4390D01*
X3822Y4364D02*
X3873D01*
X3847Y4338D02*
Y4390D01*
X2932Y4364D02*
X2983D01*
X2957Y4338D02*
Y4390D01*
X3325Y4364D02*
X3376D01*
X3351Y4338D02*
Y4390D01*
X3128Y4364D02*
X3180D01*
X3154Y4338D02*
Y4390D01*
X2238Y4364D02*
X2289D01*
X2264Y4338D02*
Y4390D01*
X2632Y4364D02*
X2683D01*
X2657Y4338D02*
Y4390D01*
X2435Y4364D02*
X2486D01*
X2461Y4338D02*
Y4390D01*
X5101Y2668D02*
X5135D01*
X5118Y2652D02*
Y2685D01*
X5101Y2968D02*
X5135D01*
X5118Y2952D02*
Y2985D01*
X5400Y2673D02*
X5427D01*
X5413Y2659D02*
Y2687D01*
X5478Y2673D02*
X5506D01*
X5492Y2659D02*
Y2687D01*
M02*
