G04*
G04 #@! TF.GenerationSoftware,Altium Limited,Altium Designer,22.8.2 (66)*
G04*
G04 Layer_Color=65535*
%FSLAX23Y23*%
%MOIN*%
G70*
G04*
G04 #@! TF.SameCoordinates,4376FDD3-A04D-437B-B91A-D6F269DAD45D*
G04*
G04*
G04 #@! TF.FilePolarity,Positive*
G04*
G01*
G75*
%ADD10C,0.005*%
%ADD11C,0.010*%
%ADD12C,0.008*%
%ADD13C,0.028*%
%ADD14C,0.010*%
D10*
X4429Y1083D02*
G03*
X4429Y1083I-689J0D01*
G01*
X3544Y2047D02*
G03*
X3544Y2170I99J62D01*
G01*
X4511Y2047D02*
G03*
X4511Y2170I99J62D01*
G01*
X5906Y1083D02*
G03*
X5906Y1083I-689J0D01*
G01*
X3003Y2538D02*
G03*
X3003Y2415I-99J-62D01*
G01*
X5551Y2673D02*
G03*
X5551Y2673I-98J0D01*
G01*
X3740Y308D02*
Y358D01*
Y1808D02*
Y1858D01*
X3715Y1833D02*
X3765D01*
X3544Y2047D02*
Y2170D01*
X4511Y2047D02*
Y2170D01*
X5217Y308D02*
Y358D01*
Y1808D02*
Y1858D01*
X5192Y1833D02*
X5242D01*
X3003Y2415D02*
Y2538D01*
X1050Y2400D02*
Y3593D01*
X1239D01*
Y2400D02*
Y3593D01*
X1050Y2400D02*
X1239D01*
D11*
X4303Y3543D02*
G03*
X4303Y3543I-5J0D01*
G01*
X3384D02*
G03*
X3384Y3543I-5J0D01*
G01*
X2466D02*
G03*
X2466Y3543I-5J0D01*
G01*
X5221Y3542D02*
G03*
X5221Y3542I-5J0D01*
G01*
D12*
X3520Y2108D02*
G03*
X3520Y2108I-4J0D01*
G01*
X4488D02*
G03*
X4488Y2108I-4J0D01*
G01*
X3034Y2476D02*
G03*
X3034Y2476I-4J0D01*
G01*
X1261Y2496D02*
G03*
X1261Y2496I-4J0D01*
G01*
X5329Y2673D02*
G03*
X5329Y2673I-4J0D01*
G01*
X3635Y2773D02*
Y2782D01*
Y2564D02*
Y2573D01*
Y2773D02*
X3665D01*
Y2573D02*
Y2773D01*
X3605Y2573D02*
X3665D01*
X3605D02*
Y2773D01*
X3635D01*
X2667D02*
Y2782D01*
Y2564D02*
Y2573D01*
Y2773D02*
X2697D01*
Y2573D02*
Y2773D01*
X2637Y2573D02*
X2697D01*
X2637D02*
Y2773D01*
X2667D01*
X4602D02*
Y2782D01*
Y2564D02*
Y2573D01*
Y2773D02*
X4632D01*
Y2573D02*
Y2773D01*
X4572Y2573D02*
X4632D01*
X4572D02*
Y2773D01*
X4602D01*
X4087Y3854D02*
X4272D01*
X4087Y3433D02*
X4272D01*
Y3854D01*
X4087Y3433D02*
Y3854D01*
X4107Y3433D02*
Y3854D01*
X3169D02*
X3354D01*
X3169Y3433D02*
X3354D01*
Y3854D01*
X3169Y3433D02*
Y3854D01*
X3188Y3433D02*
Y3854D01*
X2250D02*
X2435D01*
X2250Y3433D02*
X2435D01*
Y3854D01*
X2250Y3433D02*
Y3854D01*
X2270Y3433D02*
Y3854D01*
X4217Y2453D02*
Y2903D01*
Y2453D02*
X4367D01*
Y2903D01*
X4217D02*
X4367D01*
X3247Y2453D02*
Y2903D01*
Y2453D02*
X3397D01*
Y2903D01*
X3247D02*
X3397D01*
X2277Y2453D02*
Y2903D01*
Y2453D02*
X2427D01*
Y2903D01*
X2277D02*
X2427D01*
X5118Y4476D02*
X5512Y4476D01*
X5535Y4379D02*
Y4412D01*
X5512Y4382D02*
X5535Y4379D01*
X5512Y4409D02*
X5535Y4412D01*
X5512Y4409D02*
Y4476D01*
X5118Y4181D02*
X5512D01*
Y4382D01*
X5094Y4216D02*
Y4254D01*
Y4216D02*
X5118Y4218D01*
X5094Y4254D02*
X5118Y4252D01*
Y4181D02*
Y4218D01*
Y4252D02*
Y4476D01*
X4528D02*
X4921Y4476D01*
X4945Y4379D02*
Y4412D01*
X4921Y4382D02*
X4945Y4379D01*
X4921Y4409D02*
X4945Y4412D01*
X4921Y4409D02*
Y4476D01*
X4528Y4181D02*
X4921D01*
Y4382D01*
X4504Y4216D02*
Y4254D01*
Y4216D02*
X4528Y4218D01*
X4504Y4254D02*
X4528Y4252D01*
Y4181D02*
Y4218D01*
Y4252D02*
Y4476D01*
X5006Y3852D02*
X5191D01*
X5006Y3431D02*
X5191D01*
Y3852D01*
X5006Y3431D02*
Y3852D01*
X5026Y3431D02*
Y3852D01*
X6232Y1378D02*
X6232Y1772D01*
X6135Y1354D02*
X6168D01*
X6135D02*
X6138Y1378D01*
X6165D02*
X6168Y1354D01*
X6165Y1378D02*
X6232D01*
X5937D02*
Y1772D01*
Y1378D02*
X6138D01*
X5972Y1795D02*
X6010D01*
X5972D02*
X5974Y1772D01*
X6008D02*
X6010Y1795D01*
X5937Y1772D02*
X5974D01*
X6008D02*
X6232D01*
X6232Y394D02*
X6232Y787D01*
X6135Y370D02*
X6168D01*
X6135D02*
X6138Y394D01*
X6165D02*
X6168Y370D01*
X6165Y394D02*
X6232D01*
X5937D02*
Y787D01*
Y394D02*
X6138D01*
X5972Y811D02*
X6010D01*
X5972D02*
X5974Y787D01*
X6008D02*
X6010Y811D01*
X5937Y787D02*
X5974D01*
X6008D02*
X6232D01*
X6232Y3051D02*
X6232Y3445D01*
X6135Y3028D02*
X6168D01*
X6135D02*
X6138Y3051D01*
X6165D02*
X6168Y3028D01*
X6165Y3051D02*
X6232D01*
X5937D02*
Y3445D01*
Y3051D02*
X6138D01*
X5972Y3469D02*
X6010D01*
X5972D02*
X5974Y3445D01*
X6008D02*
X6010Y3469D01*
X5937Y3445D02*
X5974D01*
X6008D02*
X6232D01*
X165Y2476D02*
X390D01*
X423D02*
X461D01*
X388Y2453D02*
X390Y2476D01*
X423D02*
X425Y2453D01*
X388D02*
X425D01*
X260Y2870D02*
X461D01*
Y2476D02*
Y2870D01*
X165D02*
X232D01*
X229Y2893D02*
X232Y2870D01*
X260D02*
X263Y2893D01*
X229D02*
X263D01*
X165Y2476D02*
Y2870D01*
Y3181D02*
X390D01*
X423D02*
X461D01*
X388Y3158D02*
X390Y3181D01*
X423D02*
X425Y3158D01*
X388D02*
X425D01*
X260Y3575D02*
X461D01*
Y3181D02*
Y3575D01*
X165D02*
X232D01*
X229Y3598D02*
X232Y3575D01*
X260D02*
X263Y3598D01*
X229D02*
X263D01*
X165Y3181D02*
Y3575D01*
X1793Y2939D02*
Y3147D01*
X1683Y2939D02*
Y3147D01*
Y2939D02*
X1793D01*
X1683Y3147D02*
X1793D01*
X1181Y4252D02*
Y4476D01*
Y4181D02*
Y4218D01*
X1157Y4254D02*
X1181Y4252D01*
X1157Y4216D02*
X1181Y4218D01*
X1157Y4216D02*
Y4254D01*
X1575Y4181D02*
Y4382D01*
X1181Y4181D02*
X1575D01*
Y4409D02*
Y4476D01*
Y4409D02*
X1598Y4412D01*
X1575Y4382D02*
X1598Y4379D01*
Y4412D01*
X1181Y4476D02*
X1575Y4476D01*
X486Y4401D02*
X695D01*
X486Y4291D02*
X695D01*
Y4401D01*
X486Y4291D02*
Y4401D01*
X3552Y4269D02*
Y4494D01*
Y4199D02*
Y4236D01*
X3529Y4271D02*
X3552Y4269D01*
X3529Y4234D02*
X3552Y4236D01*
X3529Y4234D02*
Y4271D01*
X3552Y4494D02*
X4143D01*
X4166Y4396D02*
Y4430D01*
X4143Y4399D02*
X4166Y4396D01*
X4143Y4427D02*
X4166Y4430D01*
X4143Y4427D02*
Y4494D01*
X3552Y4199D02*
X4143D01*
Y4399D01*
X2859Y4269D02*
Y4494D01*
Y4199D02*
Y4236D01*
X2835Y4271D02*
X2859Y4269D01*
X2835Y4234D02*
X2859Y4236D01*
X2835Y4234D02*
Y4271D01*
X2859Y4494D02*
X3449D01*
X3473Y4396D02*
Y4430D01*
X3449Y4399D02*
X3473Y4396D01*
X3449Y4427D02*
X3473Y4430D01*
X3449Y4427D02*
Y4494D01*
X2859Y4199D02*
X3449D01*
Y4399D01*
X2165Y4269D02*
Y4494D01*
Y4199D02*
Y4236D01*
X2142Y4271D02*
X2165Y4269D01*
X2142Y4234D02*
X2165Y4236D01*
X2142Y4234D02*
Y4271D01*
X2165Y4494D02*
X2756D01*
X2780Y4396D02*
Y4430D01*
X2756Y4399D02*
X2780Y4396D01*
X2756Y4427D02*
X2780Y4430D01*
X2756Y4427D02*
Y4494D01*
X2165Y4199D02*
X2756D01*
Y4399D01*
X6002Y2259D02*
X6202D01*
Y2709D01*
X6102D02*
X6202D01*
X6102Y2659D02*
Y2709D01*
X6002Y2659D02*
X6102D01*
X6002Y2259D02*
Y2659D01*
X5118Y2718D02*
X5148D01*
Y2918D01*
X5088D02*
X5148D01*
X5088Y2718D02*
Y2918D01*
Y2718D02*
X5118D01*
Y2918D02*
Y2927D01*
Y2709D02*
Y2718D01*
X6008Y4232D02*
X6232D01*
X5937D02*
X5974D01*
X6008D02*
X6010Y4256D01*
X5972D02*
X5974Y4232D01*
X5972Y4256D02*
X6010D01*
X5937Y3839D02*
X6138D01*
X5937D02*
Y4232D01*
X6165Y3839D02*
X6232D01*
X6165D02*
X6168Y3815D01*
X6135D02*
X6138Y3839D01*
X6135Y3815D02*
X6168D01*
X6232Y3839D02*
X6232Y4232D01*
D13*
X98Y177D02*
X3051D01*
X98Y2264D02*
X3051D01*
Y177D02*
Y2264D01*
X98Y177D02*
Y2264D01*
D14*
X3611Y2885D02*
Y2945D01*
X3641D01*
X3651Y2935D01*
Y2915D01*
X3641Y2905D01*
X3611D01*
X3631D02*
X3651Y2885D01*
X3671Y2945D02*
Y2885D01*
X3711D01*
X3761D02*
X3741D01*
X3731Y2895D01*
Y2915D01*
X3741Y2925D01*
X3761D01*
X3771Y2915D01*
Y2905D01*
X3731D01*
X3831Y2945D02*
Y2885D01*
X3801D01*
X3791Y2895D01*
Y2915D01*
X3801Y2925D01*
X3831D01*
X3881Y2885D02*
Y2945D01*
X3851Y2915D01*
X3891D01*
X2643Y2885D02*
Y2945D01*
X2673D01*
X2683Y2935D01*
Y2915D01*
X2673Y2905D01*
X2643D01*
X2663D02*
X2683Y2885D01*
X2703Y2945D02*
Y2885D01*
X2743D01*
X2793D02*
X2773D01*
X2763Y2895D01*
Y2915D01*
X2773Y2925D01*
X2793D01*
X2803Y2915D01*
Y2905D01*
X2763D01*
X2863Y2945D02*
Y2885D01*
X2833D01*
X2823Y2895D01*
Y2915D01*
X2833Y2925D01*
X2863D01*
X2883Y2935D02*
X2893Y2945D01*
X2913D01*
X2923Y2935D01*
Y2925D01*
X2913Y2915D01*
X2903D01*
X2913D01*
X2923Y2905D01*
Y2895D01*
X2913Y2885D01*
X2893D01*
X2883Y2895D01*
X4578Y2885D02*
Y2945D01*
X4608D01*
X4618Y2935D01*
Y2915D01*
X4608Y2905D01*
X4578D01*
X4598D02*
X4618Y2885D01*
X4638Y2945D02*
Y2885D01*
X4678D01*
X4728D02*
X4708D01*
X4698Y2895D01*
Y2915D01*
X4708Y2925D01*
X4728D01*
X4738Y2915D01*
Y2905D01*
X4698D01*
X4798Y2945D02*
Y2885D01*
X4768D01*
X4758Y2895D01*
Y2915D01*
X4768Y2925D01*
X4798D01*
X4858Y2885D02*
X4818D01*
X4858Y2925D01*
Y2935D01*
X4848Y2945D01*
X4828D01*
X4818Y2935D01*
X5011Y3907D02*
Y3967D01*
X5041D01*
X5051Y3957D01*
Y3937D01*
X5041Y3927D01*
X5011D01*
X5031D02*
X5051Y3907D01*
X5101D02*
X5081D01*
X5071Y3917D01*
Y3937D01*
X5081Y3947D01*
X5101D01*
X5111Y3937D01*
Y3927D01*
X5071D01*
X5151Y3887D02*
X5161D01*
X5171Y3897D01*
Y3947D01*
X5141D01*
X5131Y3937D01*
Y3917D01*
X5141Y3907D01*
X5171D01*
X5191D02*
Y3947D01*
X5211Y3967D01*
X5231Y3947D01*
Y3907D01*
Y3937D01*
X5191D01*
X5291Y3967D02*
Y3907D01*
X5261D01*
X5251Y3917D01*
Y3937D01*
X5261Y3947D01*
X5291D01*
X5311Y3887D02*
X5321D01*
X5331Y3897D01*
Y3947D01*
X5371Y3967D02*
Y3927D01*
X5391Y3907D01*
X5411Y3927D01*
Y3967D01*
X4093Y3909D02*
Y3969D01*
X4123D01*
X4133Y3959D01*
Y3939D01*
X4123Y3929D01*
X4093D01*
X4113D02*
X4133Y3909D01*
X4183D02*
X4163D01*
X4153Y3919D01*
Y3939D01*
X4163Y3949D01*
X4183D01*
X4193Y3939D01*
Y3929D01*
X4153D01*
X4233Y3889D02*
X4243D01*
X4253Y3899D01*
Y3949D01*
X4223D01*
X4213Y3939D01*
Y3919D01*
X4223Y3909D01*
X4253D01*
X4273D02*
X4293D01*
X4283D01*
Y3969D01*
X4273Y3959D01*
X4363Y3909D02*
X4323D01*
X4363Y3949D01*
Y3959D01*
X4353Y3969D01*
X4333D01*
X4323Y3959D01*
X4383Y3969D02*
Y3929D01*
X4403Y3909D01*
X4422Y3929D01*
Y3969D01*
X3173Y3909D02*
Y3969D01*
X3203D01*
X3213Y3959D01*
Y3939D01*
X3203Y3929D01*
X3173D01*
X3193D02*
X3213Y3909D01*
X3263D02*
X3243D01*
X3233Y3919D01*
Y3939D01*
X3243Y3949D01*
X3263D01*
X3273Y3939D01*
Y3929D01*
X3233D01*
X3313Y3889D02*
X3323D01*
X3333Y3899D01*
Y3949D01*
X3303D01*
X3293Y3939D01*
Y3919D01*
X3303Y3909D01*
X3333D01*
X3393Y3969D02*
X3353D01*
Y3939D01*
X3373Y3949D01*
X3383D01*
X3393Y3939D01*
Y3919D01*
X3383Y3909D01*
X3363D01*
X3353Y3919D01*
X3413Y3969D02*
Y3929D01*
X3433Y3909D01*
X3453Y3929D01*
Y3969D01*
X2255Y3909D02*
Y3969D01*
X2285D01*
X2295Y3959D01*
Y3939D01*
X2285Y3929D01*
X2255D01*
X2275D02*
X2295Y3909D01*
X2345D02*
X2325D01*
X2315Y3919D01*
Y3939D01*
X2325Y3949D01*
X2345D01*
X2355Y3939D01*
Y3929D01*
X2315D01*
X2395Y3889D02*
X2405D01*
X2415Y3899D01*
Y3949D01*
X2385D01*
X2375Y3939D01*
Y3919D01*
X2385Y3909D01*
X2415D01*
X2435Y3959D02*
X2445Y3969D01*
X2465D01*
X2475Y3959D01*
Y3949D01*
X2465Y3939D01*
X2455D01*
X2465D01*
X2475Y3929D01*
Y3919D01*
X2465Y3909D01*
X2445D01*
X2435Y3919D01*
X2495Y3969D02*
Y3929D01*
X2515Y3909D01*
X2535Y3929D01*
Y3969D01*
X6008Y2743D02*
Y2803D01*
X6038D01*
X6048Y2793D01*
Y2773D01*
X6038Y2763D01*
X6008D01*
X6028D02*
X6048Y2743D01*
X6108D02*
X6068D01*
X6108Y2783D01*
Y2793D01*
X6098Y2803D01*
X6078D01*
X6068Y2793D01*
X5094Y3030D02*
Y3090D01*
X5124D01*
X5134Y3080D01*
Y3060D01*
X5124Y3050D01*
X5094D01*
X5114D02*
X5134Y3030D01*
X5154D02*
X5174D01*
X5164D01*
Y3090D01*
X5154Y3080D01*
X1199Y4575D02*
X1179D01*
X1189D01*
Y4525D01*
X1179Y4515D01*
X1169D01*
X1159Y4525D01*
X1219Y4575D02*
Y4535D01*
X1239Y4515D01*
X1259Y4535D01*
Y4575D01*
X1279Y4515D02*
Y4555D01*
X1299Y4575D01*
X1319Y4555D01*
Y4515D01*
Y4545D01*
X1279D01*
X1379Y4565D02*
X1369Y4575D01*
X1349D01*
X1339Y4565D01*
Y4525D01*
X1349Y4515D01*
X1369D01*
X1379Y4525D01*
X206Y2993D02*
X186D01*
X196D01*
Y2943D01*
X186Y2933D01*
X176D01*
X166Y2943D01*
X226Y2993D02*
X266D01*
X246D01*
Y2933D01*
X316Y2993D02*
X296D01*
X286Y2983D01*
Y2943D01*
X296Y2933D01*
X316D01*
X326Y2943D01*
Y2983D01*
X316Y2993D01*
X346Y2973D02*
Y2943D01*
X356Y2933D01*
X386D01*
Y2973D01*
X416Y2983D02*
Y2973D01*
X406D01*
X426D01*
X416D01*
Y2943D01*
X426Y2933D01*
X206Y3698D02*
X186D01*
X196D01*
Y3648D01*
X186Y3638D01*
X176D01*
X166Y3648D01*
X226Y3698D02*
X266D01*
X246D01*
Y3638D01*
X286D02*
X306D01*
X296D01*
Y3678D01*
X286D01*
X336Y3638D02*
Y3678D01*
X366D01*
X376Y3668D01*
Y3638D01*
X3570Y4583D02*
X3560Y4593D01*
X3540D01*
X3530Y4583D01*
Y4573D01*
X3540Y4563D01*
X3560D01*
X3570Y4553D01*
Y4543D01*
X3560Y4533D01*
X3540D01*
X3530Y4543D01*
X3590Y4593D02*
Y4533D01*
X3610Y4553D01*
X3630Y4533D01*
Y4593D01*
X3650Y4533D02*
X3670D01*
X3660D01*
Y4593D01*
X3650Y4583D01*
X3740Y4533D02*
X3700D01*
X3740Y4573D01*
Y4583D01*
X3730Y4593D01*
X3710D01*
X3700Y4583D01*
X2876D02*
X2866Y4593D01*
X2846D01*
X2836Y4583D01*
Y4573D01*
X2846Y4563D01*
X2866D01*
X2876Y4553D01*
Y4543D01*
X2866Y4533D01*
X2846D01*
X2836Y4543D01*
X2896Y4593D02*
Y4533D01*
X2916Y4553D01*
X2936Y4533D01*
Y4593D01*
X2996D02*
X2956D01*
Y4563D01*
X2976Y4573D01*
X2986D01*
X2996Y4563D01*
Y4543D01*
X2986Y4533D01*
X2966D01*
X2956Y4543D01*
X2183Y4583D02*
X2173Y4593D01*
X2153D01*
X2143Y4583D01*
Y4573D01*
X2153Y4563D01*
X2173D01*
X2183Y4553D01*
Y4543D01*
X2173Y4533D01*
X2153D01*
X2143Y4543D01*
X2203Y4593D02*
Y4533D01*
X2223Y4553D01*
X2243Y4533D01*
Y4593D01*
X2263Y4583D02*
X2273Y4593D01*
X2293D01*
X2303Y4583D01*
Y4573D01*
X2293Y4563D01*
X2283D01*
X2293D01*
X2303Y4553D01*
Y4543D01*
X2293Y4533D01*
X2273D01*
X2263Y4543D01*
X5143Y4568D02*
X5123D01*
X5133D01*
Y4518D01*
X5123Y4508D01*
X5113D01*
X5103Y4518D01*
X5163Y4508D02*
Y4568D01*
X5193D01*
X5203Y4558D01*
Y4538D01*
X5193Y4528D01*
X5163D01*
X5233Y4508D02*
X5253D01*
X5263Y4518D01*
Y4538D01*
X5253Y4548D01*
X5233D01*
X5223Y4538D01*
Y4518D01*
X5233Y4508D01*
X5283Y4548D02*
Y4518D01*
X5293Y4508D01*
X5303Y4518D01*
X5313Y4508D01*
X5323Y4518D01*
Y4548D01*
X5343Y4568D02*
Y4528D01*
X5363Y4508D01*
X5383Y4528D01*
Y4568D01*
X5413Y4508D02*
X5433D01*
X5443Y4518D01*
Y4538D01*
X5433Y4548D01*
X5413D01*
X5403Y4538D01*
Y4518D01*
X5413Y4508D01*
X5463D02*
X5483D01*
X5473D01*
Y4568D01*
X5463D01*
X5523Y4558D02*
Y4548D01*
X5513D01*
X5533D01*
X5523D01*
Y4518D01*
X5533Y4508D01*
X5563D02*
Y4548D01*
X5583Y4568D01*
X5603Y4548D01*
Y4508D01*
Y4538D01*
X5563D01*
X5623Y4508D02*
Y4548D01*
X5633D01*
X5643Y4538D01*
Y4508D01*
Y4538D01*
X5653Y4548D01*
X5663Y4538D01*
Y4508D01*
X5683Y4488D02*
Y4548D01*
X5713D01*
X5723Y4538D01*
Y4518D01*
X5713Y4508D01*
X5683D01*
X4425Y4568D02*
X4405D01*
X4415D01*
Y4518D01*
X4405Y4508D01*
X4395D01*
X4385Y4518D01*
X4444Y4568D02*
Y4508D01*
X4484D01*
X4514D02*
X4534D01*
X4544Y4518D01*
Y4538D01*
X4534Y4548D01*
X4514D01*
X4504Y4538D01*
Y4518D01*
X4514Y4508D01*
X4574Y4548D02*
X4594D01*
X4604Y4538D01*
Y4508D01*
X4574D01*
X4564Y4518D01*
X4574Y4528D01*
X4604D01*
X4664Y4568D02*
Y4508D01*
X4634D01*
X4624Y4518D01*
Y4538D01*
X4634Y4548D01*
X4664D01*
X4684Y4568D02*
Y4528D01*
X4704Y4508D01*
X4724Y4528D01*
Y4568D01*
X4754Y4508D02*
X4774D01*
X4784Y4518D01*
Y4538D01*
X4774Y4548D01*
X4754D01*
X4744Y4538D01*
Y4518D01*
X4754Y4508D01*
X4804D02*
X4824D01*
X4814D01*
Y4568D01*
X4804D01*
X4864Y4558D02*
Y4548D01*
X4854D01*
X4874D01*
X4864D01*
Y4518D01*
X4874Y4508D01*
X4904D02*
Y4548D01*
X4924Y4568D01*
X4944Y4548D01*
Y4508D01*
Y4538D01*
X4904D01*
X4964Y4508D02*
Y4548D01*
X4974D01*
X4984Y4538D01*
Y4508D01*
Y4538D01*
X4994Y4548D01*
X5004Y4538D01*
Y4508D01*
X5024Y4488D02*
Y4548D01*
X5054D01*
X5064Y4538D01*
Y4518D01*
X5054Y4508D01*
X5024D01*
X5978Y3587D02*
X5958D01*
X5968D01*
Y3537D01*
X5958Y3527D01*
X5948D01*
X5938Y3537D01*
X5998Y3527D02*
Y3567D01*
X6018Y3587D01*
X6038Y3567D01*
Y3527D01*
Y3557D01*
X5998D01*
X6098Y3587D02*
Y3527D01*
X6068D01*
X6058Y3537D01*
Y3557D01*
X6068Y3567D01*
X6098D01*
X6118Y3507D02*
X6128D01*
X6138Y3517D01*
Y3567D01*
X6208Y3587D02*
X6188D01*
X6178Y3577D01*
Y3537D01*
X6188Y3527D01*
X6208D01*
X6218Y3537D01*
Y3577D01*
X6208Y3587D01*
X6238Y3567D02*
Y3537D01*
X6248Y3527D01*
X6278D01*
Y3567D01*
X6308Y3577D02*
Y3567D01*
X6298D01*
X6318D01*
X6308D01*
Y3537D01*
X6318Y3527D01*
X5978Y1894D02*
X5958D01*
X5968D01*
Y1844D01*
X5958Y1834D01*
X5948D01*
X5938Y1844D01*
X5998Y1834D02*
X6018D01*
X6008D01*
Y1894D01*
X5998Y1884D01*
X6088Y1834D02*
X6048D01*
X6088Y1874D01*
Y1884D01*
X6078Y1894D01*
X6058D01*
X6048Y1884D01*
X6108Y1894D02*
Y1854D01*
X6128Y1834D01*
X6148Y1854D01*
Y1894D01*
X6198D02*
X6178D01*
X6168Y1884D01*
Y1844D01*
X6178Y1834D01*
X6198D01*
X6208Y1844D01*
Y1884D01*
X6198Y1894D01*
X6228Y1874D02*
Y1844D01*
X6238Y1834D01*
X6268D01*
Y1874D01*
X6298Y1884D02*
Y1874D01*
X6288D01*
X6308D01*
X6298D01*
Y1844D01*
X6308Y1834D01*
X5978Y4355D02*
X5958D01*
X5968D01*
Y4305D01*
X5958Y4295D01*
X5948D01*
X5938Y4305D01*
X6038Y4355D02*
X5998D01*
Y4325D01*
X6018Y4335D01*
X6028D01*
X6038Y4325D01*
Y4305D01*
X6028Y4295D01*
X6008D01*
X5998Y4305D01*
X6058Y4355D02*
Y4315D01*
X6078Y4295D01*
X6098Y4315D01*
Y4355D01*
X6148D02*
X6128D01*
X6118Y4345D01*
Y4305D01*
X6128Y4295D01*
X6148D01*
X6158Y4305D01*
Y4345D01*
X6148Y4355D01*
X6178Y4335D02*
Y4305D01*
X6188Y4295D01*
X6218D01*
Y4335D01*
X6248Y4345D02*
Y4335D01*
X6238D01*
X6258D01*
X6248D01*
Y4305D01*
X6258Y4295D01*
X5978Y910D02*
X5958D01*
X5968D01*
Y860D01*
X5958Y850D01*
X5948D01*
X5938Y860D01*
X5998Y900D02*
X6008Y910D01*
X6028D01*
X6038Y900D01*
Y890D01*
X6028Y880D01*
X6018D01*
X6028D01*
X6038Y870D01*
Y860D01*
X6028Y850D01*
X6008D01*
X5998Y860D01*
X6058Y910D02*
Y870D01*
X6078Y850D01*
X6098Y870D01*
Y910D01*
X6148D02*
X6128D01*
X6118Y900D01*
Y860D01*
X6128Y850D01*
X6148D01*
X6158Y860D01*
Y900D01*
X6148Y910D01*
X6178Y890D02*
Y860D01*
X6188Y850D01*
X6218D01*
Y890D01*
X6248Y900D02*
Y890D01*
X6238D01*
X6258D01*
X6248D01*
Y860D01*
X6258Y850D01*
X1729Y3396D02*
X1689D01*
Y3366D01*
X1709D01*
X1689D01*
Y3336D01*
X1789D02*
X1749D01*
X1789Y3376D01*
Y3386D01*
X1779Y3396D01*
X1759D01*
X1749Y3386D01*
X378Y4495D02*
X338D01*
Y4465D01*
X358D01*
X338D01*
Y4435D01*
X398D02*
X418D01*
X408D01*
Y4495D01*
X398Y4485D01*
X3518Y2326D02*
Y2266D01*
X3548D01*
X3558Y2276D01*
Y2316D01*
X3548Y2326D01*
X3518D01*
X3618D02*
X3578D01*
Y2296D01*
X3598Y2306D01*
X3608D01*
X3618Y2296D01*
Y2276D01*
X3608Y2266D01*
X3588D01*
X3578Y2276D01*
X2787Y2694D02*
Y2634D01*
X2817D01*
X2827Y2644D01*
Y2684D01*
X2817Y2694D01*
X2787D01*
X2877Y2634D02*
Y2694D01*
X2847Y2664D01*
X2887D01*
X4486Y2326D02*
Y2266D01*
X4516D01*
X4526Y2276D01*
Y2316D01*
X4516Y2326D01*
X4486D01*
X4546Y2316D02*
X4556Y2326D01*
X4576D01*
X4586Y2316D01*
Y2306D01*
X4576Y2296D01*
X4566D01*
X4576D01*
X4586Y2286D01*
Y2276D01*
X4576Y2266D01*
X4556D01*
X4546Y2276D01*
X1049Y3694D02*
Y3634D01*
X1079D01*
X1089Y3644D01*
Y3684D01*
X1079Y3694D01*
X1049D01*
X1109Y3634D02*
X1129D01*
X1119D01*
Y3694D01*
X1109Y3684D01*
X4263Y2987D02*
X4253Y2997D01*
X4233D01*
X4223Y2987D01*
Y2947D01*
X4233Y2937D01*
X4253D01*
X4263Y2947D01*
X4283Y2997D02*
X4323D01*
X4303D01*
Y2937D01*
X4373D02*
Y2997D01*
X4343Y2967D01*
X4383D01*
X3293Y2987D02*
X3283Y2997D01*
X3263D01*
X3253Y2987D01*
Y2947D01*
X3263Y2937D01*
X3283D01*
X3293Y2947D01*
X3313Y2997D02*
X3353D01*
X3333D01*
Y2937D01*
X3373Y2987D02*
X3383Y2997D01*
X3403D01*
X3413Y2987D01*
Y2977D01*
X3403Y2967D01*
X3393D01*
X3403D01*
X3413Y2957D01*
Y2947D01*
X3403Y2937D01*
X3383D01*
X3373Y2947D01*
X2323Y2987D02*
X2313Y2997D01*
X2293D01*
X2283Y2987D01*
Y2947D01*
X2293Y2937D01*
X2313D01*
X2323Y2947D01*
X2343Y2997D02*
X2383D01*
X2363D01*
Y2937D01*
X2443D02*
X2403D01*
X2443Y2977D01*
Y2987D01*
X2433Y2997D01*
X2413D01*
X2403Y2987D01*
X5367Y2862D02*
X5357Y2872D01*
X5337D01*
X5327Y2862D01*
Y2822D01*
X5337Y2812D01*
X5357D01*
X5367Y2822D01*
X5387Y2872D02*
X5427D01*
X5407D01*
Y2812D01*
X5447D02*
X5467D01*
X5457D01*
Y2872D01*
X5447Y2862D01*
X3208Y1890D02*
X3198Y1900D01*
X3178D01*
X3168Y1890D01*
Y1850D01*
X3178Y1840D01*
X3198D01*
X3208Y1850D01*
X3268Y1900D02*
X3228D01*
Y1870D01*
X3248D01*
X3228D01*
Y1840D01*
X3328D02*
X3288D01*
X3328Y1880D01*
Y1890D01*
X3318Y1900D01*
X3298D01*
X3288Y1890D01*
X4567Y1940D02*
X4557Y1950D01*
X4537D01*
X4527Y1940D01*
Y1900D01*
X4537Y1890D01*
X4557D01*
X4567Y1900D01*
X4627Y1950D02*
X4587D01*
Y1920D01*
X4607D01*
X4587D01*
Y1890D01*
X4647D02*
X4667D01*
X4657D01*
Y1950D01*
X4647Y1940D01*
M02*
