M48
;Layer_Color=9474304
;FILE_FORMAT=2:3
INCH,LZ
T11F00S00C0.047
%
G90
G05
T11
G00X06309Y-00022
M15
G01X06317Y-00016
G01X06322Y-00008
G01X06323Y0
G01X06323Y04626
G01X06321Y04635
G01X06315Y04643
G01X06307Y04648
G01X06299Y0465
G01X0Y0465
G01X-00009Y04648
G01X-00017Y04642
G01X-00022Y04634
G01X-00024Y04626
G01X-00024Y0
G01X-00022Y-00009
G01X-00016Y-00017
G01X-00008Y-00022
G01X0Y-00024
G01X06299Y-00024
G01X06309Y-00022
M16
M17
M30
