%FSDAX23Y23*%
%MOIN*%
%SFA1B1*%

%IPPOS*%
%ADD13C,0.028000*%
%ADD36C,0.039000*%
%ADD37C,0.079000*%
%ADD38C,0.157000*%
%ADD39C,0.123000*%
%ADD40O,0.099000X0.097000*%
%ADD41O,0.099000X0.099000*%
%ADD42C,0.055000*%
%ADD43C,0.063000*%
%ADD44R,0.063000X0.063000*%
%ADD45C,0.071000*%
%ADD46R,0.071000X0.071000*%
%ADD47C,0.047000*%
%ADD48R,0.077000X0.077000*%
%ADD49C,0.077000*%
%ADD50R,0.077000X0.077000*%
%ADD51C,0.059000*%
%ADD52R,0.059000X0.059000*%
%ADD53C,0.089000*%
%ADD54R,0.089000X0.089000*%
%ADD55R,0.059000X0.059000*%
%ADD56R,0.047000X0.047000*%
%ADD57R,0.041000X0.041000*%
%ADD58C,0.041000*%
%LNfuente-1*%
%LPD*%
G54D13*
X03276Y03643D02*
X03281D01*
X03150Y03517D02*
X03276Y03643D01*
X03150Y03001D02*
Y03517D01*
X03291Y03643D02*
X03296D01*
X04138Y03587D02*
X04195Y03643D01*
X04199*
X04035Y03455D02*
X04138Y03558D01*
Y03587*
X04035Y03085D02*
Y03455D01*
X05118Y02668D02*
X05120Y02671D01*
X04035Y03085D02*
X04292Y02828D01*
X05120Y02671D02*
X05411D01*
X05413Y02673*
X03635Y02347D02*
Y02523D01*
Y02347D02*
X03692Y02289D01*
Y02108D02*
Y02289D01*
X03325Y02826D02*
X03632D01*
X03322Y02828D02*
X03325Y02826D01*
X03632D02*
X03635Y02823D01*
X02795Y02523D02*
X02842Y02476D01*
X02667Y02523D02*
X02795D01*
X02842Y02476D02*
X02854D01*
X02355Y02826D02*
X02665D01*
X02352Y02828D02*
X02355Y02826D01*
X02665D02*
X02667Y02823D01*
X03150Y03001D02*
X03322Y02828D01*
X02165Y03015D02*
X02352Y02828D01*
X02165Y03451D02*
X02357Y03643D01*
X02362*
X02165Y03015D02*
Y03451D01*
X00820Y04346D02*
X00838Y04364D01*
X00341Y04351D02*
X00343Y04349D01*
G54D36*
X04602Y02347D02*
X04660Y02289D01*
X04602Y02347D02*
Y02523D01*
X04660Y02108D02*
Y02289D01*
X05118Y02968D02*
Y03542D01*
Y02968D02*
D01*
Y03542D02*
D01*
Y03642D02*
X05315D01*
X05663Y03294*
Y02923D02*
Y03294D01*
Y02923D02*
X05889Y03150D01*
X05436Y02696D02*
X05663Y02923D01*
X05217Y03740D02*
Y03839D01*
X05118Y03642D02*
X05217Y03740D01*
X04823Y04232D02*
Y04346D01*
Y04232D02*
X05217Y03839D01*
X04332Y04528D02*
X05118Y03742D01*
X06201Y01280D02*
Y03352D01*
X06004Y01083D02*
X06201Y01280D01*
X05906Y01083D02*
X06004D01*
X05217Y01772D02*
X05906Y01083D01*
X05512Y00886D02*
Y01280D01*
Y00886D02*
X05906Y00492D01*
X05217Y01575D02*
X05512Y01280D01*
X06102Y03451D02*
X06201Y03352D01*
X06102Y03451D02*
Y03937D01*
X05512Y01772D02*
X05807Y01476D01*
X05512Y01772D02*
Y01914D01*
X05807Y01476D02*
X06102D01*
X04429Y01772D02*
X05217D01*
X04134Y02067D02*
X04429Y01772D01*
X04134Y02067D02*
Y02324D01*
X03635Y02823D02*
X04134Y02324D01*
X05823Y03937D02*
X06102D01*
X05413Y04346D02*
X05823Y03937D01*
X04602Y02823D02*
X05512Y01914D01*
X04921Y02681D02*
X05080Y02522D01*
X05940*
X06102Y02359*
X04921Y02681D02*
Y02771D01*
X05118Y02968*
X05436Y02696D02*
D01*
X05413Y02673D02*
X05436Y02696D01*
X05889Y03150D02*
X06102D01*
X03543Y01575D02*
X05217D01*
X05906Y00492D02*
X06102D01*
X04593Y02828D02*
X04598Y02823D01*
X04292Y02828D02*
X04593D01*
X04598Y02823D02*
X04602D01*
X03445Y01673D02*
Y02165D01*
X02787Y02823D02*
X03445Y02165D01*
Y01673D02*
X03543Y01575D01*
X02667Y02823D02*
X02787D01*
X01911Y02814D02*
X03445Y01280D01*
X03740*
X01738Y02814D02*
X01911D01*
X03740Y01280D02*
X05217D01*
X03814Y04528D02*
X04332D01*
X03651Y04364D02*
X03814Y04528D01*
X03121D02*
X03487D01*
X03651Y04364*
X02957D02*
X03121Y04528D01*
X02427D02*
X02794D01*
X02957Y04364*
X02264D02*
X02427Y04528D01*
X04044Y04364D02*
X04229Y04179D01*
Y03743D02*
Y04179D01*
X03296Y04309D02*
X03351Y04364D01*
X03296Y03743D02*
Y04309D01*
X02657Y04039D02*
Y04364D01*
X02362Y03743D02*
X02657Y04039D01*
X01738Y03838D02*
X02264Y04364D01*
X01738Y03272D02*
Y03838D01*
X01428Y02504D02*
X01738Y02814D01*
X01178Y02504D02*
X01428D01*
X00855Y02575D02*
X01178Y02898D01*
X00295Y02575D02*
X00855D01*
X00756Y02771D02*
X01178Y03193D01*
X00295Y02771D02*
X00756D01*
G54D37*
X00820Y04346D02*
X01280D01*
X00410Y03280D02*
X01476Y04346D01*
X00295Y03280D02*
X00410D01*
X00295Y03476D02*
Y04280D01*
X00361Y04346*
G54D38*
X02815Y01240D03*
X00335D03*
G54D39*
X03740Y01280D03*
Y00886D03*
X05217Y01280D03*
Y00886D03*
G54D40*
X04528Y00394D03*
X-03444Y07530D03*
X00591Y03937D03*
G54D41*
X05610Y03740D03*
G54D42*
X03635Y02523D03*
Y02823D03*
X02667Y02523D03*
Y02823D03*
X04602Y02523D03*
Y02823D03*
X05118Y02668D03*
Y02968D03*
G54D43*
X04199Y03743D03*
Y03643D03*
X03281Y03743D03*
Y03643D03*
X02362Y03743D03*
Y03643D03*
X05118Y03742D03*
Y03642D03*
G54D44*
X04199Y03543D03*
X03281D03*
X02362D03*
X05118Y03542D03*
G54D45*
X03692Y02108D03*
X04660D03*
X02854Y02476D03*
G54D46*
X03592Y02108D03*
X04560D03*
X02954Y02476D03*
G54D47*
X04292Y02528D03*
Y02828D03*
X03322Y02528D03*
Y02828D03*
X02352Y02528D03*
Y02828D03*
X06102Y02459D03*
Y02559D03*
G54D48*
X05413Y04346D03*
X04823D03*
X01476D03*
X04044Y04364D03*
X03351D03*
X02657D03*
G54D49*
X05217Y04346D03*
X04626D03*
X06102Y01673D03*
Y00689D03*
Y03346D03*
X00295Y02575D03*
Y03280D03*
X01280Y04346D03*
X03651Y04364D03*
X03847D03*
X02957D03*
X03154D03*
X02264D03*
X02461D03*
X06102Y04134D03*
G54D50*
X06102Y01476D03*
Y00492D03*
Y03150D03*
X00295Y02771D03*
Y03476D03*
X06102Y03937D03*
G54D51*
X01738Y03272D03*
X00361Y04346D03*
G54D52*
X01738Y02814D03*
G54D53*
X01178Y03488D03*
Y03193D03*
Y02898D03*
G54D54*
X01178Y02504D03*
G54D55*
X00820Y04346D03*
G54D56*
X06102Y02359D03*
G54D57*
X05413Y02673D03*
G54D58*
X05492Y02673D03*
M02*