%FSDAX23Y23*%
%MOIN*%
%SFA1B1*%

%IPPOS*%
%ADD40C,0.063000*%
%ADD41R,0.063000X0.063000*%
%ADD42C,0.157000*%
%ADD43C,0.123000*%
%ADD44O,0.099000X0.097000*%
%ADD45O,0.099000X0.099000*%
%ADD46C,0.055000*%
%ADD47C,0.063000*%
%ADD48R,0.063000X0.063000*%
%ADD49C,0.071000*%
%ADD50R,0.071000X0.071000*%
%ADD51C,0.047000*%
%ADD52R,0.077000X0.077000*%
%ADD53C,0.077000*%
%ADD54R,0.077000X0.077000*%
%ADD55C,0.059000*%
%ADD56R,0.059000X0.059000*%
%ADD57C,0.089000*%
%ADD58R,0.089000X0.089000*%
%ADD59R,0.059000X0.059000*%
%ADD60R,0.047000X0.047000*%
%ADD61R,0.041000X0.041000*%
%ADD62C,0.041000*%
%LNfuente-1*%
%LPD*%
G36*
X06299Y04602D02*
Y00016D01*
X00027*
Y04622*
X00030Y04626*
X06299Y04602*
G37*
%LNfuente-2*%
%LPC*%
G36*
X03855Y04418D02*
Y04372D01*
X03901*
X03898Y04385*
X03891Y04397*
X03881Y04407*
X03868Y04414*
X03855Y04418*
G37*
G36*
X03162D02*
Y04372D01*
X03208*
X03204Y04385*
X03197Y04397*
X03187Y04407*
X03175Y04414*
X03162Y04418*
G37*
G36*
X02469D02*
Y04372D01*
X02515*
X02511Y04385*
X02504Y04397*
X02494Y04407*
X02482Y04414*
X02469Y04418*
G37*
G36*
X03840D02*
X03827Y04414D01*
X03814Y04407*
X03804Y04397*
X03797Y04385*
X03794Y04372*
X03840*
Y04418*
G37*
G36*
X03146D02*
X03133Y04414D01*
X03121Y04407*
X03111Y04397*
X03104Y04385*
X03100Y04372*
X03146*
Y04418*
G37*
G36*
X02453D02*
X02440Y04414D01*
X02427Y04407*
X02417Y04397*
X02410Y04385*
X02407Y04372*
X02453*
Y04418*
G37*
G36*
X05224Y04400D02*
Y04354D01*
X05270*
X05267Y04367*
X05260Y04379*
X05250Y04390*
X05237Y04397*
X05224Y04400*
G37*
G36*
X04634D02*
Y04354D01*
X04680*
X04676Y04367*
X04669Y04379*
X04659Y04390*
X04647Y04397*
X04634Y04400*
G37*
G36*
X05209D02*
X05196Y04397D01*
X05183Y04390*
X05173Y04379*
X05166Y04367*
X05163Y04354*
X05209*
Y04400*
G37*
G36*
X04618D02*
X04605Y04397D01*
X04593Y04390*
X04583Y04379*
X04576Y04367*
X04572Y04354*
X04618*
Y04400*
G37*
G36*
X03208Y04356D02*
X03162D01*
Y04310*
X03175Y04314*
X03187Y04321*
X03197Y04331*
X03204Y04343*
X03208Y04356*
G37*
G36*
X02515D02*
X02469D01*
Y04310*
X02482Y04314*
X02494Y04321*
X02504Y04331*
X02511Y04343*
X02515Y04356*
G37*
G36*
X03901D02*
X03855D01*
Y04310*
X03868Y04314*
X03881Y04321*
X03891Y04331*
X03898Y04343*
X03901Y04356*
G37*
G36*
X03840D02*
X03794D01*
X03797Y04343*
X03804Y04331*
X03814Y04321*
X03827Y04314*
X03840Y04310*
Y04356*
G37*
G36*
X03146D02*
X03100D01*
X03104Y04343*
X03111Y04331*
X03121Y04321*
X03133Y04314*
X03146Y04310*
Y04356*
G37*
G36*
X02453D02*
X02407D01*
X02410Y04343*
X02417Y04331*
X02427Y04321*
X02440Y04314*
X02453Y04310*
Y04356*
G37*
G36*
X04098Y04418D02*
X03990D01*
Y04310*
X04098*
Y04418*
G37*
G36*
X03658D02*
X03644D01*
X03630Y04414*
X03617Y04407*
X03607Y04397*
X03600Y04385*
X03596Y04371*
Y04357*
X03600Y04343*
X03607Y04331*
X03617Y04321*
X03630Y04314*
X03644Y04310*
X03658*
X03672Y04314*
X03684Y04321*
X03694Y04331*
X03701Y04343*
X03705Y04357*
Y04371*
X03701Y04385*
X03694Y04397*
X03684Y04407*
X03672Y04414*
X03658Y04418*
G37*
G36*
X03405D02*
X03297D01*
Y04310*
X03405*
Y04418*
G37*
G36*
X02964D02*
X02950D01*
X02936Y04414*
X02924Y04407*
X02914Y04397*
X02907Y04385*
X02903Y04371*
Y04357*
X02907Y04343*
X02914Y04331*
X02924Y04321*
X02936Y04314*
X02950Y04310*
X02964*
X02978Y04314*
X02990Y04321*
X03001Y04331*
X03008Y04343*
X03011Y04357*
Y04371*
X03008Y04385*
X03001Y04397*
X02990Y04407*
X02978Y04414*
X02964Y04418*
G37*
G36*
X02712D02*
X02603D01*
Y04310*
X02712*
Y04418*
G37*
G36*
X02271D02*
X02257D01*
X02243Y04414*
X02231Y04407*
X02220Y04397*
X02213Y04385*
X02210Y04371*
Y04357*
X02213Y04343*
X02220Y04331*
X02231Y04321*
X02243Y04314*
X02257Y04310*
X02271*
X02285Y04314*
X02297Y04321*
X02307Y04331*
X02314Y04343*
X02318Y04357*
Y04371*
X02314Y04385*
X02307Y04397*
X02297Y04407*
X02285Y04414*
X02271Y04418*
G37*
G36*
X00865Y04392D02*
X00775D01*
Y04301*
X00865*
Y04392*
G37*
G36*
X00367D02*
X00355D01*
X00344Y04388*
X00333Y04382*
X00325Y04374*
X00319Y04364*
X00316Y04352*
Y04340*
X00319Y04329*
X00325Y04318*
X00333Y04310*
X00344Y04304*
X00355Y04301*
X00367*
X00379Y04304*
X00389Y04310*
X00397Y04318*
X00403Y04329*
X00406Y04340*
Y04352*
X00403Y04364*
X00397Y04374*
X00389Y04382*
X00379Y04388*
X00367Y04392*
G37*
G36*
X05270Y04338D02*
X05224D01*
Y04292*
X05237Y04296*
X05250Y04303*
X05260Y04313*
X05267Y04325*
X05270Y04338*
G37*
G36*
X04680D02*
X04634D01*
Y04292*
X04647Y04296*
X04659Y04303*
X04669Y04313*
X04676Y04325*
X04680Y04338*
G37*
G36*
X05209D02*
X05163D01*
X05166Y04325*
X05173Y04313*
X05183Y04303*
X05196Y04296*
X05209Y04292*
Y04338*
G37*
G36*
X04618D02*
X04572D01*
X04576Y04325*
X04583Y04313*
X04593Y04303*
X04605Y04296*
X04618Y04292*
Y04338*
G37*
G36*
X05468Y04400D02*
X05359D01*
Y04292*
X05468*
Y04400*
G37*
G36*
X04877D02*
X04769D01*
Y04292*
X04877*
Y04400*
G37*
G36*
X01531D02*
X01422D01*
Y04292*
X01531*
Y04400*
G37*
G36*
X01287D02*
X01272D01*
X01259Y04397*
X01246Y04390*
X01236Y04379*
X01229Y04367*
X01225Y04353*
Y04339*
X01229Y04325*
X01236Y04313*
X01246Y04303*
X01259Y04296*
X01272Y04292*
X01287*
X01300Y04296*
X01313Y04303*
X01323Y04313*
X01330Y04325*
X01334Y04339*
Y04353*
X01330Y04367*
X01323Y04379*
X01313Y04390*
X01300Y04397*
X01287Y04400*
G37*
G36*
X06110Y04188D02*
Y04142D01*
X06156*
X06153Y04155*
X06146Y04167*
X06136Y04177*
X06123Y04184*
X06110Y04188*
G37*
G36*
X06094D02*
X06081Y04184D01*
X06069Y04177*
X06059Y04167*
X06052Y04155*
X06048Y04142*
X06094*
Y04188*
G37*
G36*
X06156Y04126D02*
X06110D01*
Y04080*
X06123Y04083*
X06136Y04091*
X06146Y04101*
X06153Y04113*
X06156Y04126*
G37*
G36*
X06094D02*
X06048D01*
X06052Y04113*
X06059Y04101*
X06069Y04091*
X06081Y04083*
X06094Y04080*
Y04126*
G37*
G36*
X06156Y03991D02*
X06048D01*
Y03883*
X06156*
Y03991*
G37*
G36*
X00597Y04002D02*
X00584D01*
X00572Y04000*
X00560Y03995*
X00549Y03987*
X00545Y03983*
X00544*
Y03982*
X00540Y03978*
X00537Y03974*
X00536Y03973*
X00535Y03971*
X00533Y03968*
X00531Y03964*
X00530Y03962*
X00529Y03959*
X00528Y03956*
X00527Y03952*
X00526Y03950*
Y03947*
Y03943*
Y03940*
X00525Y03937*
X00526Y03934*
Y03931*
Y03927*
Y03924*
X00527Y03922*
X00528Y03918*
X00529Y03915*
X00530Y03912*
X00531Y03910*
X00533Y03906*
X00535Y03903*
X00536Y03901*
X00537Y03900*
X00540Y03896*
X00544Y03892*
Y03891*
X00545*
X00549Y03887*
X00560Y03879*
X00572Y03875*
X00584Y03872*
X00597*
X00610Y03875*
X00621Y03879*
X00632Y03887*
X00636Y03891*
X00637*
Y03892*
X00641Y03896*
X00644Y03900*
X00645Y03901*
X00646Y03903*
X00648Y03906*
X00650Y03910*
X00651Y03912*
X00652Y03915*
X00653Y03918*
X00654Y03922*
X00655Y03924*
Y03927*
X00656Y03931*
Y03934*
Y03937*
Y03940*
Y03943*
X00655Y03947*
Y03950*
X00654Y03952*
X00653Y03956*
X00652Y03959*
X00651Y03962*
X00650Y03964*
X00648Y03968*
X00646Y03971*
X00645Y03973*
X00644Y03974*
X00641Y03978*
X00637Y03982*
Y03983*
X00636*
X00632Y03987*
X00621Y03995*
X00610Y04000*
X00597Y04002*
G37*
G36*
X04247Y03791D02*
X04152D01*
Y03696*
X04247*
Y03791*
G37*
G36*
X02368D02*
X02356D01*
X02344Y03787*
X02333Y03781*
X02324Y03772*
X02318Y03762*
X02315Y03750*
Y03737*
X02318Y03725*
X02324Y03714*
X02333Y03706*
X02344Y03699*
X02356Y03696*
X02368*
X02380Y03699*
X02391Y03706*
X02400Y03714*
X02406Y03725*
X02409Y03737*
Y03750*
X02406Y03762*
X02400Y03772*
X02391Y03781*
X02380Y03787*
X02368Y03791*
G37*
G36*
X05124Y03789D02*
X05112D01*
X05100Y03786*
X05089Y03780*
X05080Y03771*
X05074Y03760*
X05071Y03748*
Y03736*
X05074Y03723*
X05080Y03713*
X05089Y03704*
X05100Y03698*
X05112Y03694*
X05124*
X05136Y03698*
X05147Y03704*
X05156Y03713*
X05162Y03723*
X05165Y03736*
Y03748*
X05162Y03760*
X05156Y03771*
X05147Y03780*
X05136Y03786*
X05124Y03789*
G37*
G36*
X03295Y03787D02*
X03201D01*
Y03693*
X03295*
Y03787*
G37*
G36*
X05610Y03805D02*
X05607D01*
X05604*
X05601*
X05597Y03804*
X05594Y03803*
X05591*
X05588Y03801*
X05585Y03800*
X05582Y03799*
X05579Y03798*
X05577Y03796*
X05574Y03794*
X05571Y03792*
X05569Y03791*
X05567Y03788*
X05564Y03786*
X05562Y03784*
X05560Y03782*
X05558Y03779*
X05556Y03776*
X05554Y03774*
X05553Y03771*
X05551Y03768*
X05550Y03765*
X05549Y03762*
X05548Y03759*
X05547Y03756*
X05546Y03753*
Y03750*
X05545Y03747*
Y03743*
Y03740*
Y03737*
Y03734*
X05546Y03731*
Y03727*
X05547Y03724*
X05548Y03721*
X05549Y03718*
X05550Y03715*
X05551Y03712*
X05553Y03709*
X05554Y03707*
X05556Y03704*
X05558Y03701*
X05560Y03699*
X05562Y03696*
X05564Y03694*
X05567Y03692*
X05569Y03690*
X05571Y03688*
X05574Y03686*
X05577Y03684*
X05579Y03683*
X05582Y03681*
X05585Y03680*
X05588Y03679*
X05591Y03678*
X05594Y03677*
X05597Y03676*
X05601*
X05604Y03675*
X05607*
X05610*
X05613*
X05617*
X05620Y03676*
X05623*
X05626Y03677*
X05629Y03678*
X05632Y03679*
X05635Y03680*
X05638Y03681*
X05641Y03683*
X05644Y03684*
X05647Y03686*
X05649Y03688*
X05652Y03690*
X05654Y03692*
X05656Y03694*
X05658Y03696*
X05661Y03699*
X05662Y03701*
X05665Y03704*
X05666Y03707*
X05668Y03709*
X05669Y03712*
X05671Y03715*
X05672Y03718*
X05673Y03721*
Y03724*
X05674Y03727*
X05675Y03731*
Y03734*
Y03737*
X05676Y03740*
X05675Y03743*
Y03747*
Y03750*
X05674Y03753*
X05673Y03756*
Y03759*
X05672Y03762*
X05671Y03765*
X05669Y03768*
X05668Y03771*
X05666Y03774*
X05665Y03776*
X05662Y03779*
X05661Y03782*
X05658Y03784*
X05656Y03786*
X05654Y03788*
X05652Y03791*
X05649Y03792*
X05647Y03794*
X05644Y03796*
X05641Y03798*
X05638Y03799*
X05635Y03800*
X05632Y03801*
X05629Y03803*
X05626*
X05623Y03804*
X05620Y03805*
X05617*
X05613*
X05610*
G37*
G36*
X04207Y03690D02*
Y03651D01*
X04246*
X04244Y03662*
X04237Y03672*
X04228Y03681*
X04218Y03687*
X04207Y03690*
G37*
G36*
X04192D02*
X04181Y03687D01*
X04170Y03681*
X04162Y03672*
X04155Y03662*
X04153Y03651*
X04192*
Y03690*
G37*
G36*
X03256Y03687D02*
Y03648D01*
X03295*
X03292Y03658*
X03286Y03669*
X03277Y03678*
X03266Y03684*
X03256Y03687*
G37*
G36*
X03240D02*
X03230Y03684D01*
X03219Y03678*
X03210Y03669*
X03204Y03658*
X03201Y03648*
X03240*
Y03687*
G37*
G36*
X04246Y03635D02*
X04207D01*
Y03597*
X04218Y03599*
X04228Y03606*
X04237Y03614*
X04244Y03625*
X04246Y03635*
G37*
G36*
X04192D02*
X04153D01*
X04155Y03625*
X04162Y03614*
X04170Y03606*
X04181Y03599*
X04192Y03597*
Y03635*
G37*
G36*
X02368Y03691D02*
X02356D01*
X02344Y03687*
X02333Y03681*
X02324Y03672*
X02318Y03662*
X02315Y03650*
Y03637*
X02318Y03625*
X02324Y03614*
X02333Y03606*
X02344Y03599*
X02356Y03596*
X02368*
X02380Y03599*
X02391Y03606*
X02400Y03614*
X02406Y03625*
X02409Y03637*
Y03650*
X02406Y03662*
X02400Y03672*
X02391Y03681*
X02380Y03687*
X02368Y03691*
G37*
G36*
X05124Y03689D02*
X05112D01*
X05100Y03686*
X05089Y03680*
X05080Y03671*
X05074Y03660*
X05071Y03648*
Y03636*
X05074Y03623*
X05080Y03613*
X05089Y03604*
X05100Y03598*
X05112Y03594*
X05124*
X05136Y03598*
X05147Y03604*
X05156Y03613*
X05162Y03623*
X05165Y03636*
Y03648*
X05162Y03660*
X05156Y03671*
X05147Y03680*
X05136Y03686*
X05124Y03689*
G37*
G36*
X03295Y03632D02*
X03256D01*
Y03593*
X03266Y03596*
X03277Y03602*
X03286Y03611*
X03292Y03622*
X03295Y03632*
G37*
G36*
X03240D02*
X03201D01*
X03204Y03622*
X03210Y03611*
X03219Y03602*
X03230Y03596*
X03240Y03593*
Y03632*
G37*
G36*
X02409Y03591D02*
X02370D01*
Y03551*
X02409*
Y03591*
G37*
G36*
X02354D02*
X02315D01*
Y03551*
X02354*
Y03591*
G37*
G36*
X01186Y03548D02*
Y03496D01*
X01238*
X01236Y03506*
X01232Y03517*
X01225Y03527*
X01217Y03535*
X01207Y03542*
X01196Y03546*
X01186Y03548*
G37*
G36*
X01170D02*
X01160Y03546D01*
X01149Y03542*
X01139Y03535*
X01131Y03527*
X01124Y03517*
X01120Y03506*
X01118Y03496*
X01170*
Y03548*
G37*
G36*
X04206Y03591D02*
X04193D01*
X04181Y03587*
X04170Y03581*
X04162Y03572*
X04155Y03562*
X04152Y03550*
Y03537*
X04155Y03525*
X04162Y03514*
X04170Y03506*
X04181Y03499*
X04193Y03496*
X04206*
X04218Y03499*
X04228Y03506*
X04237Y03514*
X04244Y03525*
X04247Y03537*
Y03550*
X04244Y03562*
X04237Y03572*
X04228Y03581*
X04218Y03587*
X04206Y03591*
G37*
G36*
X02409Y03535D02*
X02370D01*
Y03496*
X02409*
Y03535*
G37*
G36*
X02354D02*
X02315D01*
Y03496*
X02354*
Y03535*
G37*
G36*
X05165Y03589D02*
X05071D01*
Y03494*
X05165*
Y03589*
G37*
G36*
X03254Y03587D02*
X03242D01*
X03230Y03584*
X03219Y03578*
X03210Y03569*
X03204Y03558*
X03201Y03546*
Y03534*
X03204Y03522*
X03210Y03511*
X03219Y03502*
X03230Y03496*
X03242Y03493*
X03254*
X03266Y03496*
X03277Y03502*
X03286Y03511*
X03292Y03522*
X03295Y03534*
Y03546*
X03292Y03558*
X03286Y03569*
X03277Y03578*
X03266Y03584*
X03254Y03587*
G37*
G36*
X01238Y03480D02*
X01186D01*
Y03428*
X01196Y03430*
X01207Y03435*
X01217Y03441*
X01225Y03450*
X01232Y03460*
X01236Y03471*
X01238Y03480*
G37*
G36*
X01170D02*
X01118D01*
X01120Y03471*
X01124Y03460*
X01131Y03450*
X01139Y03441*
X01149Y03435*
X01160Y03430*
X01170Y03428*
Y03480*
G37*
G36*
X00349Y03531D02*
X00241D01*
Y03422*
X00349*
Y03531*
G37*
G36*
X06109Y03401D02*
X06095D01*
X06081Y03397*
X06069Y03390*
X06059Y03380*
X06052Y03367*
X06048Y03354*
Y03339*
X06052Y03326*
X06059Y03313*
X06069Y03303*
X06081Y03296*
X06095Y03292*
X06109*
X06123Y03296*
X06136Y03303*
X06146Y03313*
X06153Y03326*
X06156Y03339*
Y03354*
X06153Y03367*
X06146Y03380*
X06136Y03390*
X06123Y03397*
X06109Y03401*
G37*
G36*
X01744Y03318D02*
X01732D01*
X01721Y03315*
X01710Y03309*
X01702Y03300*
X01696Y03290*
X01693Y03278*
Y03266*
X01696Y03255*
X01702Y03245*
X01710Y03236*
X01721Y03230*
X01732Y03227*
X01744*
X01755Y03230*
X01766Y03236*
X01774Y03245*
X01780Y03255*
X01783Y03266*
Y03278*
X01780Y03290*
X01774Y03300*
X01766Y03309*
X01755Y03315*
X01744Y03318*
G37*
G36*
X00302Y03334D02*
X00288D01*
X00274Y03330*
X00262Y03323*
X00252Y03313*
X00245Y03300*
X00241Y03287*
Y03272*
X00245Y03259*
X00252Y03246*
X00262Y03236*
X00274Y03229*
X00288Y03225*
X00302*
X00316Y03229*
X00329Y03236*
X00339Y03246*
X00346Y03259*
X00349Y03272*
Y03287*
X00346Y03300*
X00339Y03313*
X00329Y03323*
X00316Y03330*
X00302Y03334*
G37*
G36*
X01184Y03253D02*
X01172D01*
X01160Y03251*
X01149Y03247*
X01139Y03240*
X01131Y03232*
X01124Y03222*
X01120Y03211*
X01118Y03199*
Y03187*
X01120Y03175*
X01124Y03164*
X01131Y03154*
X01139Y03146*
X01149Y03139*
X01160Y03135*
X01172Y03133*
X01184*
X01196Y03135*
X01207Y03139*
X01217Y03146*
X01225Y03154*
X01232Y03164*
X01236Y03175*
X01238Y03187*
Y03199*
X01236Y03211*
X01232Y03222*
X01225Y03232*
X01217Y03240*
X01207Y03247*
X01196Y03251*
X01184Y03253*
G37*
G36*
X06156Y03204D02*
X06048D01*
Y03095*
X06156*
Y03204*
G37*
G36*
X05124Y03012D02*
X05112D01*
X05101Y03009*
X05092Y03003*
X05083Y02995*
X05078Y02985*
X05075Y02974*
Y02963*
X05078Y02952*
X05083Y02942*
X05092Y02934*
X05101Y02928*
X05112Y02925*
X05124*
X05135Y02928*
X05145Y02934*
X05153Y02942*
X05158Y02952*
X05161Y02963*
Y02974*
X05158Y02985*
X05153Y02995*
X05145Y03003*
X05135Y03009*
X05124Y03012*
G37*
G36*
X01184Y02958D02*
X01172D01*
X01160Y02956*
X01149Y02951*
X01139Y02945*
X01131Y02936*
X01124Y02926*
X01120Y02915*
X01118Y02904*
Y02892*
X01120Y02880*
X01124Y02869*
X01131Y02859*
X01139Y02851*
X01149Y02844*
X01160Y02840*
X01172Y02837*
X01184*
X01196Y02840*
X01207Y02844*
X01217Y02851*
X01225Y02859*
X01232Y02869*
X01236Y02880*
X01238Y02892*
Y02904*
X01236Y02915*
X01232Y02926*
X01225Y02936*
X01217Y02945*
X01207Y02951*
X01196Y02956*
X01184Y02958*
G37*
G36*
X04297Y02868D02*
X04287D01*
X04277Y02865*
X04268Y02860*
X04261Y02852*
X04256Y02844*
X04253Y02833*
Y02823*
X04256Y02813*
X04261Y02804*
X04268Y02797*
X04277Y02792*
X04287Y02789*
X04297*
X04307Y02792*
X04316Y02797*
X04324Y02804*
X04329Y02813*
X04332Y02823*
Y02833*
X04329Y02844*
X04324Y02852*
X04316Y02860*
X04307Y02865*
X04297Y02868*
G37*
G36*
X03327D02*
X03317D01*
X03307Y02865*
X03298Y02860*
X03291Y02852*
X03286Y02844*
X03283Y02833*
Y02823*
X03286Y02813*
X03291Y02804*
X03298Y02797*
X03307Y02792*
X03317Y02789*
X03327*
X03337Y02792*
X03346Y02797*
X03354Y02804*
X03359Y02813*
X03362Y02823*
Y02833*
X03359Y02844*
X03354Y02852*
X03346Y02860*
X03337Y02865*
X03327Y02868*
G37*
G36*
X02357D02*
X02347D01*
X02337Y02865*
X02328Y02860*
X02321Y02852*
X02316Y02844*
X02313Y02833*
Y02823*
X02316Y02813*
X02321Y02804*
X02328Y02797*
X02337Y02792*
X02347Y02789*
X02357*
X02367Y02792*
X02376Y02797*
X02384Y02804*
X02389Y02813*
X02392Y02823*
Y02833*
X02389Y02844*
X02384Y02852*
X02376Y02860*
X02367Y02865*
X02357Y02868*
G37*
G36*
X04608Y02867D02*
X04597D01*
X04585Y02864*
X04576Y02858*
X04568Y02850*
X04562Y02840*
X04559Y02829*
Y02818*
X04562Y02807*
X04568Y02797*
X04576Y02789*
X04585Y02783*
X04597Y02780*
X04608*
X04619Y02783*
X04629Y02789*
X04637Y02797*
X04643Y02807*
X04646Y02818*
Y02829*
X04643Y02840*
X04637Y02850*
X04629Y02858*
X04619Y02864*
X04608Y02867*
G37*
G36*
X03640D02*
X03629D01*
X03618Y02864*
X03608Y02858*
X03600Y02850*
X03594Y02840*
X03591Y02829*
Y02818*
X03594Y02807*
X03600Y02797*
X03608Y02789*
X03618Y02783*
X03629Y02780*
X03640*
X03651Y02783*
X03661Y02789*
X03669Y02797*
X03675Y02807*
X03678Y02818*
Y02829*
X03675Y02840*
X03669Y02850*
X03661Y02858*
X03651Y02864*
X03640Y02867*
G37*
G36*
X02673D02*
X02662D01*
X02650Y02864*
X02641Y02858*
X02633Y02850*
X02627Y02840*
X02624Y02829*
Y02818*
X02627Y02807*
X02633Y02797*
X02641Y02789*
X02650Y02783*
X02662Y02780*
X02673*
X02684Y02783*
X02694Y02789*
X02702Y02797*
X02708Y02807*
X02711Y02818*
Y02829*
X02708Y02840*
X02702Y02850*
X02694Y02858*
X02684Y02864*
X02673Y02867*
G37*
G36*
X01783Y02859D02*
X01693D01*
Y02768*
X01783*
Y02859*
G37*
G36*
X00349Y02826D02*
X00241D01*
Y02717*
X00349*
Y02826*
G37*
G36*
X05500Y02709D02*
Y02681D01*
X05528*
X05526Y02687*
X05521Y02695*
X05514Y02702*
X05506Y02707*
X05500Y02709*
G37*
G36*
X05484D02*
X05478Y02707D01*
X05470Y02702*
X05463Y02695*
X05458Y02687*
X05457Y02681*
X05484*
Y02709*
G37*
G36*
X05528Y02665D02*
X05500D01*
Y02637*
X05506Y02639*
X05514Y02644*
X05521Y02651*
X05526Y02659*
X05528Y02665*
G37*
G36*
X05484D02*
X05457D01*
X05458Y02659*
X05463Y02651*
X05470Y02644*
X05478Y02639*
X05484Y02637*
Y02665*
G37*
G36*
X05450Y02709D02*
X05377D01*
Y02637*
X05450*
Y02709*
G37*
G36*
X05124Y02712D02*
X05112D01*
X05101Y02709*
X05092Y02703*
X05083Y02695*
X05078Y02685*
X05075Y02674*
Y02663*
X05078Y02652*
X05083Y02642*
X05092Y02634*
X05101Y02628*
X05112Y02625*
X05124*
X05135Y02628*
X05145Y02634*
X05153Y02642*
X05158Y02652*
X05161Y02663*
Y02674*
X05158Y02685*
X05153Y02695*
X05145Y02703*
X05135Y02709*
X05124Y02712*
G37*
G36*
X06110Y02598D02*
Y02567D01*
X06141*
X06139Y02574*
X06134Y02583*
X06127Y02591*
X06118Y02596*
X06110Y02598*
G37*
G36*
X06094D02*
X06087Y02596D01*
X06078Y02591*
X06071Y02583*
X06066Y02574*
X06064Y02567*
X06094*
Y02598*
G37*
G36*
X04300Y02567D02*
Y02536D01*
X04331*
X04329Y02544*
X04324Y02552*
X04316Y02560*
X04307Y02565*
X04300Y02567*
G37*
G36*
X03330D02*
Y02536D01*
X03361*
X03359Y02544*
X03354Y02552*
X03346Y02560*
X03337Y02565*
X03330Y02567*
G37*
G36*
X02360D02*
Y02536D01*
X02391*
X02389Y02544*
X02384Y02552*
X02376Y02560*
X02367Y02565*
X02360Y02567*
G37*
G36*
X04284D02*
X04277Y02565D01*
X04268Y02560*
X04261Y02552*
X04256Y02544*
X04254Y02536*
X04284*
Y02567*
G37*
G36*
X03314D02*
X03307Y02565D01*
X03298Y02560*
X03291Y02552*
X03286Y02544*
X03284Y02536*
X03314*
Y02567*
G37*
G36*
X02344D02*
X02337Y02565D01*
X02328Y02560*
X02321Y02552*
X02316Y02544*
X02314Y02536*
X02344*
Y02567*
G37*
G36*
X00302Y02629D02*
X00288D01*
X00274Y02625*
X00262Y02618*
X00252Y02608*
X00245Y02595*
X00241Y02582*
Y02567*
X00245Y02554*
X00252Y02541*
X00262Y02531*
X00274Y02524*
X00288Y02520*
X00302*
X00316Y02524*
X00329Y02531*
X00339Y02541*
X00346Y02554*
X00349Y02567*
Y02582*
X00346Y02595*
X00339Y02608*
X00329Y02618*
X00316Y02625*
X00302Y02629*
G37*
G36*
X06141Y02551D02*
X06110D01*
Y02520*
X06118Y02522*
X06127Y02528*
X06134Y02535*
X06139Y02544*
X06141Y02551*
G37*
G36*
X06094D02*
X06064D01*
X06066Y02544*
X06071Y02535*
X06078Y02528*
X06087Y02522*
X06094Y02520*
Y02551*
G37*
G36*
X02946Y02528D02*
X02903D01*
Y02505*
X02898Y02504*
X02896Y02508*
X02886Y02517*
X02874Y02524*
X02861Y02528*
X02848*
X02834Y02524*
X02823Y02517*
X02813Y02508*
X02806Y02496*
X02803Y02483*
Y02469*
X02806Y02456*
X02813Y02445*
X02823Y02435*
X02834Y02428*
X02848Y02425*
X02861*
X02874Y02428*
X02886Y02435*
X02896Y02445*
X02898Y02449*
X02903Y02447*
Y02425*
X02946*
Y02476*
Y02528*
G37*
G36*
X04331Y02520D02*
X04300D01*
Y02490*
X04307Y02492*
X04316Y02497*
X04324Y02504*
X04329Y02513*
X04331Y02520*
G37*
G36*
X03361D02*
X03330D01*
Y02490*
X03337Y02492*
X03346Y02497*
X03354Y02504*
X03359Y02513*
X03361Y02520*
G37*
G36*
X02391D02*
X02360D01*
Y02490*
X02367Y02492*
X02376Y02497*
X02384Y02504*
X02389Y02513*
X02391Y02520*
G37*
G36*
X04284D02*
X04254D01*
X04256Y02513*
X04261Y02504*
X04268Y02497*
X04277Y02492*
X04284Y02490*
Y02520*
G37*
G36*
X03314D02*
X03284D01*
X03286Y02513*
X03291Y02504*
X03298Y02497*
X03307Y02492*
X03314Y02490*
Y02520*
G37*
G36*
X02344D02*
X02314D01*
X02316Y02513*
X02321Y02504*
X02328Y02497*
X02337Y02492*
X02344Y02490*
Y02520*
G37*
G36*
X03006Y02528D02*
X02962D01*
Y02484*
X03006*
Y02528*
G37*
G36*
X04608Y02567D02*
X04597D01*
X04585Y02564*
X04576Y02558*
X04568Y02550*
X04562Y02540*
X04559Y02529*
Y02518*
X04562Y02507*
X04568Y02497*
X04576Y02489*
X04585Y02483*
X04597Y02480*
X04608*
X04619Y02483*
X04629Y02489*
X04637Y02497*
X04643Y02507*
X04646Y02518*
Y02529*
X04643Y02540*
X04637Y02550*
X04629Y02558*
X04619Y02564*
X04608Y02567*
G37*
G36*
X03640D02*
X03629D01*
X03618Y02564*
X03608Y02558*
X03600Y02550*
X03594Y02540*
X03591Y02529*
Y02518*
X03594Y02507*
X03600Y02497*
X03608Y02489*
X03618Y02483*
X03629Y02480*
X03640*
X03651Y02483*
X03661Y02489*
X03669Y02497*
X03675Y02507*
X03678Y02518*
Y02529*
X03675Y02540*
X03669Y02550*
X03661Y02558*
X03651Y02564*
X03640Y02567*
G37*
G36*
X02673D02*
X02662D01*
X02650Y02564*
X02641Y02558*
X02633Y02550*
X02627Y02540*
X02624Y02529*
Y02518*
X02627Y02507*
X02633Y02497*
X02641Y02489*
X02650Y02483*
X02662Y02480*
X02673*
X02684Y02483*
X02694Y02489*
X02702Y02497*
X02708Y02507*
X02711Y02518*
Y02529*
X02708Y02540*
X02702Y02550*
X02694Y02558*
X02684Y02564*
X02673Y02567*
G37*
G36*
X01238Y02564D02*
X01118D01*
Y02444*
X01238*
Y02564*
G37*
G36*
X03006Y02468D02*
X02962D01*
Y02425*
X03006*
Y02468*
G37*
G36*
X06108Y02498D02*
X06097D01*
X06087Y02496*
X06078Y02491*
X06071Y02483*
X06066Y02474*
X06063Y02464*
Y02454*
X06066Y02444*
X06071Y02435*
X06078Y02428*
X06087Y02422*
X06097Y02420*
X06108*
X06118Y02422*
X06127Y02428*
X06134Y02435*
X06139Y02444*
X06142Y02454*
Y02464*
X06139Y02474*
X06134Y02483*
X06127Y02491*
X06118Y02496*
X06108Y02498*
G37*
G36*
X06142Y02398D02*
X06063D01*
Y02320*
X06142*
Y02398*
G37*
G36*
X04666Y02160D02*
X04653D01*
X04640Y02156*
X04628Y02149*
X04618Y02140*
X04616Y02136*
X04611Y02137*
Y02160*
X04567*
Y02108*
Y02057*
X04611*
Y02079*
X04616Y02081*
X04618Y02077*
X04628Y02067*
X04640Y02060*
X04653Y02057*
X04666*
X04679Y02060*
X04691Y02067*
X04701Y02077*
X04708Y02088*
X04711Y02102*
Y02115*
X04708Y02128*
X04701Y02140*
X04691Y02149*
X04679Y02156*
X04666Y02160*
G37*
G36*
X03699D02*
X03685D01*
X03672Y02156*
X03660Y02149*
X03651Y02140*
X03649Y02136*
X03644Y02137*
Y02160*
X03600*
Y02108*
Y02057*
X03644*
Y02079*
X03649Y02081*
X03651Y02077*
X03660Y02067*
X03672Y02060*
X03685Y02057*
X03699*
X03712Y02060*
X03724Y02067*
X03733Y02077*
X03740Y02088*
X03744Y02102*
Y02115*
X03740Y02128*
X03733Y02140*
X03724Y02149*
X03712Y02156*
X03699Y02160*
G37*
G36*
X04552D02*
X04508D01*
Y02116*
X04552*
Y02160*
G37*
G36*
X03584D02*
X03541D01*
Y02116*
X03584*
Y02160*
G37*
G36*
X04552Y02100D02*
X04508D01*
Y02057*
X04552*
Y02100*
G37*
G36*
X03584D02*
X03541D01*
Y02057*
X03584*
Y02100*
G37*
G36*
X06110Y01727D02*
Y01681D01*
X06156*
X06153Y01694*
X06146Y01706*
X06136Y01717*
X06123Y01724*
X06110Y01727*
G37*
G36*
X06094D02*
X06081Y01724D01*
X06069Y01717*
X06059Y01706*
X06052Y01694*
X06048Y01681*
X06094*
Y01727*
G37*
G36*
X06156Y01665D02*
X06110D01*
Y01619*
X06123Y01623*
X06136Y01630*
X06146Y01640*
X06153Y01652*
X06156Y01665*
G37*
G36*
X06094D02*
X06048D01*
X06052Y01652*
X06059Y01640*
X06069Y01630*
X06081Y01623*
X06094Y01619*
Y01665*
G37*
G36*
X06156Y01531D02*
X06048D01*
Y01422*
X06156*
Y01531*
G37*
G36*
X05224Y01357D02*
X05209D01*
X05194Y01354*
X05180Y01348*
X05167Y01339*
X05157Y01329*
X05148Y01316*
X05142Y01302*
X05139Y01287*
Y01272*
X05142Y01257*
X05148Y01243*
X05157Y01230*
X05167Y01220*
X05180Y01211*
X05194Y01205*
X05209Y01202*
X05224*
X05239Y01205*
X05253Y01211*
X05266Y01220*
X05276Y01230*
X05285Y01243*
X05291Y01257*
X05294Y01272*
Y01287*
X05291Y01302*
X05285Y01316*
X05276Y01329*
X05266Y01339*
X05253Y01348*
X05239Y01354*
X05224Y01357*
G37*
G36*
X03748D02*
X03733D01*
X03718Y01354*
X03704Y01348*
X03691Y01339*
X03680Y01329*
X03672Y01316*
X03666Y01302*
X03663Y01287*
Y01272*
X03666Y01257*
X03672Y01243*
X03680Y01230*
X03691Y01220*
X03704Y01211*
X03718Y01205*
X03733Y01202*
X03748*
X03763Y01205*
X03777Y01211*
X03789Y01220*
X03800Y01230*
X03808Y01243*
X03814Y01257*
X03817Y01272*
Y01287*
X03814Y01302*
X03808Y01316*
X03800Y01329*
X03789Y01339*
X03777Y01348*
X03763Y01354*
X03748Y01357*
G37*
G36*
X02824Y01335D02*
X02806D01*
X02787Y01331*
X02770Y01324*
X02755Y01314*
X02742Y01300*
X02731Y01285*
X02724Y01268*
X02721Y01249*
Y01231*
X02724Y01213*
X02731Y01195*
X02742Y01180*
X02755Y01167*
X02770Y01156*
X02787Y01149*
X02806Y01146*
X02824*
X02843Y01149*
X02860Y01156*
X02875Y01167*
X02888Y01180*
X02899Y01195*
X02906Y01213*
X02909Y01231*
Y01249*
X02906Y01268*
X02899Y01285*
X02888Y01300*
X02875Y01314*
X02860Y01324*
X02843Y01331*
X02824Y01335*
G37*
G36*
X00344D02*
X00325D01*
X00307Y01331*
X00290Y01324*
X00274Y01314*
X00261Y01300*
X00251Y01285*
X00244Y01268*
X00240Y01249*
Y01231*
X00244Y01213*
X00251Y01195*
X00261Y01180*
X00274Y01167*
X00290Y01156*
X00307Y01149*
X00325Y01146*
X00344*
X00362Y01149*
X00379Y01156*
X00395Y01167*
X00408Y01180*
X00418Y01195*
X00425Y01213*
X00429Y01231*
Y01249*
X00425Y01268*
X00418Y01285*
X00408Y01300*
X00395Y01314*
X00379Y01324*
X00362Y01331*
X00344Y01335*
G37*
G36*
X05224Y00963D02*
Y00894D01*
X05294*
X05291Y00908*
X05285Y00922*
X05276Y00935*
X05266Y00946*
X05253Y00954*
X05239Y00960*
X05224Y00963*
G37*
G36*
X05209D02*
X05194Y00960D01*
X05180Y00954*
X05167Y00946*
X05157Y00935*
X05148Y00922*
X05142Y00908*
X05140Y00894*
X05209*
Y00963*
G37*
G36*
X03748D02*
Y00894D01*
X03817*
X03814Y00908*
X03808Y00922*
X03800Y00935*
X03789Y00946*
X03777Y00954*
X03763Y00960*
X03748Y00963*
G37*
G36*
X03732D02*
X03718Y00960D01*
X03704Y00954*
X03691Y00946*
X03680Y00935*
X03672Y00922*
X03666Y00908*
X03663Y00894*
X03732*
Y00963*
G37*
G36*
Y00878D02*
X03663D01*
X03666Y00863*
X03672Y00849*
X03680Y00837*
X03691Y00826*
X03704Y00818*
X03718Y00812*
X03732Y00809*
Y00878*
G37*
G36*
X05294D02*
X05224D01*
Y00809*
X05239Y00812*
X05253Y00818*
X05266Y00826*
X05276Y00837*
X05285Y00849*
X05291Y00863*
X05294Y00878*
G37*
G36*
X05209D02*
X05140D01*
X05142Y00863*
X05148Y00849*
X05157Y00837*
X05167Y00826*
X05180Y00818*
X05194Y00812*
X05209Y00809*
Y00878*
G37*
G36*
X03817D02*
X03748D01*
Y00809*
X03763Y00812*
X03777Y00818*
X03789Y00826*
X03800Y00837*
X03808Y00849*
X03814Y00863*
X03817Y00878*
G37*
G36*
X06110Y00743D02*
Y00697D01*
X06156*
X06153Y00710*
X06146Y00722*
X06136Y00732*
X06123Y00739*
X06110Y00743*
G37*
G36*
X06094D02*
X06081Y00739D01*
X06069Y00732*
X06059Y00722*
X06052Y00710*
X06048Y00697*
X06094*
Y00743*
G37*
G36*
X06156Y00681D02*
X06110D01*
Y00635*
X06123Y00639*
X06136Y00646*
X06146Y00656*
X06153Y00668*
X06156Y00681*
G37*
G36*
X06094D02*
X06048D01*
X06052Y00668*
X06059Y00656*
X06069Y00646*
X06081Y00639*
X06094Y00635*
Y00681*
G37*
G36*
X06156Y00546D02*
X06048D01*
Y00438*
X06156*
Y00546*
G37*
G36*
X04534Y00459D02*
X04521D01*
X04509Y00456*
X04497Y00451*
X04486Y00444*
X04482Y00440*
X04481Y00439*
X04477Y00435*
X04474Y00431*
X04473Y00430*
X04472Y00428*
X04470Y00424*
X04468Y00421*
X04467Y00418*
X04466Y00416*
X04465Y00413*
X04464Y00409*
X04463Y00406*
Y00403*
Y00400*
Y00397*
X04462Y00394*
X04463Y00391*
Y00387*
Y00384*
Y00381*
X04464Y00378*
X04465Y00375*
X04466Y00371*
X04467Y00369*
X04468Y00367*
X04470Y00363*
X04472Y00359*
X04473Y00358*
X04474Y00357*
X04477Y00352*
X04481Y00349*
Y00348*
X04482*
X04486Y00343*
X04497Y00336*
X04509Y00331*
X04521Y00329*
X04534*
X04547Y00331*
X04558Y00336*
X04569Y00343*
X04573Y00348*
X04574*
Y00349*
X04578Y00352*
X04581Y00357*
X04582Y00358*
X04583Y00359*
X04585Y00363*
X04587Y00367*
X04588Y00369*
X04589Y00371*
X04590Y00375*
X04591Y00378*
X04592Y00381*
Y00384*
X04593Y00387*
Y00391*
Y00394*
Y00397*
Y00400*
X04592Y00403*
Y00406*
X04591Y00409*
X04590Y00413*
X04589Y00416*
X04588Y00418*
X04587Y00421*
X04585Y00424*
X04583Y00428*
X04582Y00430*
X04581Y00431*
X04578Y00435*
X04574Y00439*
X04573Y00440*
X04569Y00444*
X04558Y00451*
X04547Y00456*
X04534Y00459*
G37*
%LNfuente-3*%
%LPD*%
G54D40*
X04199Y03543D03*
Y03643D03*
X03248Y03540D03*
Y03640D03*
G54D41*
X04199Y03743D03*
X03248Y03740D03*
G54D42*
X02815Y01240D03*
X00335D03*
G54D43*
X03740Y01280D03*
Y00886D03*
X05217Y01280D03*
Y00886D03*
G54D44*
X04528Y00394D03*
X00591Y03937D03*
G54D45*
X05610Y03740D03*
G54D46*
X03635Y02523D03*
Y02823D03*
X02667Y02523D03*
Y02823D03*
X04602Y02523D03*
Y02823D03*
X05118Y02668D03*
Y02968D03*
G54D47*
X02362Y03743D03*
Y03643D03*
X05118Y03742D03*
Y03642D03*
G54D48*
X02362Y03543D03*
X05118Y03542D03*
G54D49*
X03692Y02108D03*
X04660D03*
X02854Y02476D03*
G54D50*
X03592Y02108D03*
X04560D03*
X02954Y02476D03*
G54D51*
X04292Y02528D03*
Y02828D03*
X03322Y02528D03*
Y02828D03*
X02352Y02528D03*
Y02828D03*
X06102Y02459D03*
Y02559D03*
G54D52*
X05413Y04346D03*
X04823D03*
X01476D03*
X04044Y04364D03*
X03351D03*
X02657D03*
G54D53*
X05217Y04346D03*
X04626D03*
X06102Y01673D03*
Y00689D03*
Y03346D03*
X00295Y02575D03*
Y03280D03*
X01280Y04346D03*
X03651Y04364D03*
X03847D03*
X02957D03*
X03154D03*
X02264D03*
X02461D03*
X06102Y04134D03*
G54D54*
X06102Y01476D03*
Y00492D03*
Y03150D03*
X00295Y02771D03*
Y03476D03*
X06102Y03937D03*
G54D55*
X01738Y03272D03*
X00361Y04346D03*
G54D56*
X01738Y02814D03*
G54D57*
X01178Y03488D03*
Y03193D03*
Y02898D03*
G54D58*
X01178Y02504D03*
G54D59*
X00820Y04346D03*
G54D60*
X06102Y02359D03*
G54D61*
X05413Y02673D03*
G54D62*
X05492Y02673D03*
M02*